<svg width="1440" height="113" viewBox="0 0 1440 113" fill="none" xmlns="http://www.w3.org/2000/svg">
<g clip-path="url(#clip0_1461_111)">
<path d="M-34.1943 19.5163C-32.1146 13.6947 -28.3663 8.91184 -24.4971 4.22558C-18.6206 -2.87629 -11.4381 -7.36931 -1.7165 -6.35475C-1.45049 -6.3306 -1.1604 -6.66877 -0.773474 -6.91033C-2.24864 -9.83321 -3.72375 -12.7803 -5.24728 -15.7031C-5.90023 -16.9351 -6.16618 -18.167 -6.09363 -19.5439C-5.4165 -33.5544 1.52392 -44.7387 10.1089 -55.0774C13.9298 -59.6671 14.0992 -59.498 12.5998 -65.7302C12.3338 -66.8414 12.1887 -68.0734 12.3096 -69.2087C12.624 -72.3007 11.1973 -73.436 8.27112 -74.2815C-1.93414 -77.156 -9.18906 -87.0842 -9.26161 -97.6645C-10.5917 -98.9206 -10.6401 -100.201 -10.1806 -102.085C-8.89887 -107.375 -5.94856 -111.965 -4.30411 -117.086C-2.75639 -121.289 -0.0237046 -124.671 2.95081 -127.908C7.56978 -131.869 10.4717 -138.392 17.9684 -138.174C21.5959 -139.986 25.5861 -140.735 29.4796 -141.242C48.1731 -143.682 66.8424 -146.677 85.7294 -147.136C92.1621 -147.281 97.2648 -148.102 97.8936 -156.243C98.087 -158.997 100.433 -161.605 101.884 -164.238C105.463 -170.736 110.856 -175.833 115.329 -181.655C119.852 -187.549 125.801 -188.805 132.572 -188.564C133.201 -188.564 133.878 -188.129 134.458 -188.225C148.17 -190.617 162.1 -189.771 175.884 -191.269C182.147 -191.945 188.58 -191.68 194.771 -192.235C205.46 -193.177 216.1 -193.419 226.789 -193.636C232.521 -193.757 238.18 -193.54 243.887 -193.177C253.294 -192.573 262.653 -192.525 272.084 -193.975C277.622 -194.82 283.426 -193.878 289.109 -193.661C342.142 -191.631 395.031 -195.883 448.016 -196.752C453.82 -196.849 459.841 -196.052 465.355 -196.946C475.923 -198.661 486.515 -198.371 496.987 -198.202C510.36 -198.009 523.564 -199.241 536.816 -200.086C559.161 -201.511 581.506 -203.226 603.924 -203.226C612.557 -203.226 621.457 -201.946 629.752 -203.661C639.739 -205.714 649.63 -205.207 659.545 -205.545C675.24 -206.077 690.959 -205.545 706.678 -205.811C730.402 -206.173 754.149 -206.946 777.873 -207.309C796.421 -207.599 814.994 -207.309 833.567 -207.671C875.21 -208.42 916.853 -209.386 958.496 -210.28C967.783 -210.473 977.045 -210.546 986.331 -210.763C993.175 -210.908 1000.04 -210.014 1006.93 -210.449C1021.93 -211.415 1036.95 -212.816 1051.96 -212.865C1072.16 -212.84 1092.28 -214.024 1112.45 -214C1147.22 -213.952 1181.97 -213.734 1216.75 -213.227C1223.23 -213.13 1229.83 -212.261 1236.14 -212.575C1245.31 -213.034 1254.45 -212.937 1263.54 -212.381C1271.09 -211.898 1278.99 -212.285 1285.91 -207.985C1288.52 -206.367 1291.5 -206.149 1294.59 -206.101C1306.27 -205.908 1317.95 -205.642 1329.61 -204.99C1335.68 -204.652 1341.7 -204.096 1346.71 -199.313C1349.13 -196.994 1352.7 -194.723 1356.5 -194.917C1367.04 -195.472 1376.74 -191.366 1386.85 -189.626C1393.55 -188.467 1399.76 -185.423 1404.14 -179.916C1406.61 -176.824 1409.37 -175.906 1413.21 -175.978C1418.36 -176.099 1423.54 -174.94 1428.64 -175.181C1436.74 -175.544 1444.75 -173.853 1452.87 -174.529C1457.3 -174.891 1461.92 -173.611 1465.62 -171.509C1467.91 -170.205 1466.41 -165.905 1466.87 -162.958C1467.07 -161.799 1467.07 -160.639 1467.16 -159.456C1467.91 -148.175 1462.04 -142.981 1450.79 -144.6C1448.08 -144.986 1444.89 -145.083 1442.54 -143.561C1440.73 -142.377 1442.09 -139.793 1442.11 -137.884C1442.25 -128.874 1436.28 -122.594 1432.19 -115.492C1431.83 -114.864 1430.94 -114.332 1430.21 -114.187C1421.26 -112.424 1412.34 -110.201 1403.3 -109.163C1393.86 -108.1 1384.29 -108.559 1374.81 -109.163C1371.33 -109.404 1368.25 -108.486 1365.09 -107.568C1363.68 -107.158 1362.31 -106.337 1362.43 -105.008C1362.57 -103.269 1364.38 -103.124 1365.86 -102.979C1375.32 -102.109 1384.8 -101.385 1394.23 -100.37C1410.96 -98.5583 1427.72 -96.6499 1444.09 -92.7125C1449.07 -91.5289 1452.65 -91.7946 1455.17 -96.5775C1457.08 -100.177 1461.02 -99.9593 1463.51 -98.9448C1466.78 -97.6162 1471.37 -94.8141 1471.83 -92.0603C1473.62 -81.3109 1473.02 -70.8513 1465.13 -61.6479C1458.26 -53.6281 1451.03 -47.0576 1440.15 -45.6566C1437.37 -45.2942 1434.15 -46.2605 1431.9 -44.2072C1429.05 -41.6225 1432.65 -39.062 1432.56 -36.3082C1432.1 -24.7616 1431.64 -13.3117 1420.54 -4.66382C1431.54 -3.67342 1441.38 -2.61056 1451.23 -2.00666C1454.2 -1.83757 1457.56 0.674657 1460.27 -2.34485C1463.44 -5.89578 1467.21 -5.65422 1471.25 -4.76045C1480.08 -2.82797 1480.71 -1.5477 1482.3 7.31756C1482.95 10.9168 1481.67 14.8542 1483.92 18.1636C1485.4 17.9704 1486.61 18.5743 1487.74 19.4439C1490.23 19.5405 1492.07 21.8836 1494.73 21.4005C1496.86 21.1348 1498.84 21.6662 1500.75 22.4875C1505.61 23.4779 1510.89 26.0868 1515.26 25.0481C1521.31 23.5987 1522.35 27.8985 1524.89 30.5556C1526.7 32.4398 1524.6 35.0728 1525.01 37.1261C1526.7 45.315 1526.24 53.4797 1523.56 61.1613C1521.72 66.4273 1520.66 72.3697 1515.29 76.0897C1508.61 80.7035 1501.5 81.4524 1493.84 80.0755C1486.34 78.7227 1478.79 77.4666 1471.35 75.8723C1468.88 75.3409 1468.35 75.8723 1467.79 78.2638C1465.93 86.2594 1463.54 94.1584 1461.6 102.154C1459.79 109.618 1455.92 110.005 1450.6 107.299C1445.93 104.932 1441.26 104.062 1436.35 103.41C1427.31 102.202 1418.36 100.028 1409.34 99.2071C1400.35 98.3857 1391.49 97.3712 1382.93 94.6415C1378.1 93.0956 1374.54 93.7236 1371.04 97.6852C1363.2 106.526 1352.46 109.208 1341.27 110.585C1340.59 110.705 1339.91 110.85 1339.23 110.971C1338.82 111.14 1338.39 111.188 1337.95 111.164C1334.47 111.285 1330.36 108.145 1330.31 104.884C1330.31 103.579 1332.2 101.985 1330.04 101.019C1328.57 100.367 1327.75 101.937 1326.66 102.637C1325.98 103.072 1325.18 103.628 1324.43 103.603C1320.81 103.483 1320.73 105.343 1321.65 108.048C1322.74 111.285 1322.04 113.338 1318.03 112.734C1311.67 112.034 1305.33 113.773 1298.97 112.734C1293.48 112.589 1287.94 112.904 1282.53 112.155C1279.31 111.696 1275.44 112.662 1272.9 110.198C1269.9 107.299 1266.2 106.985 1263.15 108.096C1256.38 110.56 1250.6 109.28 1244.05 106.816C1235.03 103.41 1225.16 106.43 1215.63 105.294C1206.25 104.183 1196.72 104.473 1187.24 104.038C1171.48 103.314 1155.68 102.516 1139.92 101.719C1128 101.115 1116.05 100.487 1104.13 99.8592C1096.63 99.7385 1089.13 99.5211 1081.64 99.4728C1071.48 99.4245 1061.32 99.5452 1051.14 99.5694C1047.13 98.6273 1044.93 103.676 1040.89 102.661C1038.98 104.787 1036.53 105.101 1033.9 104.715C1031.24 104.763 1028.58 104.787 1025.92 104.835C1020.65 104.835 1015.37 104.835 1010.08 104.86C1009.62 105.004 1009.18 105.101 1008.72 105.125C1004.13 105.922 999.559 105.294 994.964 104.86C994.481 104.908 993.997 104.956 993.538 105.004C993.151 105.125 992.739 105.149 992.304 105.125C981.76 106.116 971.192 105.463 960.624 105.681C951.217 106.188 941.858 105.439 932.524 104.715C930.734 104.956 928.799 105.753 927.155 105.343C917.82 103.048 908.655 106.406 899.393 105.802C893.081 105.802 886.793 105.802 880.482 105.802C870.954 107.589 870.47 107.251 869.382 98.2891C869.188 96.6465 869.382 94.859 867.036 94.5208C862.925 93.941 858.838 93.168 854.702 92.7574C853.904 92.6849 852.937 92.6366 852.042 92.7332C851.389 92.9023 850.761 93.0956 850.108 93.3613C849.866 93.5304 849.648 93.7478 849.527 94.0135C846.504 100.439 840.555 99.8834 835.114 100.705C829.117 103.241 823.506 101.115 821.451 95.2696C820.919 93.7719 820.097 92.7574 819.032 91.767C817.049 91.767 815.042 91.767 813.059 91.767C805.562 94.2309 797.824 91.9119 790.255 92.9023C791.609 97.9268 790.061 99.9559 784.692 100.077C783.798 100.077 782.903 100.004 782.637 100.946C782.516 101.405 782.951 102.154 783.338 102.613C784.451 103.99 786.675 105.053 785.587 107.154C784.354 109.473 781.936 109.014 779.759 108.628C764.427 108.821 749.095 109.473 733.787 108.966C727.306 108.749 720.825 109.135 714.32 108.845C703.462 108.338 692.555 108.628 681.648 108.58C678.287 109.014 674.901 109.135 671.54 108.58C668.445 109.039 666.22 108.386 666.51 104.57C666.631 102.975 666.195 101.598 664.914 100.632C662.084 98.4341 661.891 95.7527 663.342 92.7332C663.003 92.4434 662.665 92.1293 662.326 91.8395C660.005 92.2501 657.756 89.9311 655.386 91.5979C653.765 92.9265 652.314 94.3275 650.96 96.0184C648.3 99.4003 645.591 103.869 639.981 100.173C639.425 99.8109 638.167 99.8109 637.635 100.173C633.113 103.362 627.478 99.352 622.98 102.516C622.714 102.71 621.94 102.444 621.578 102.154C619.595 100.487 617.95 100.97 615.725 102.106C612.098 103.942 606.971 101.502 607.431 97.9751C608.156 92.3467 604.867 93.7236 601.941 93.7236C600.635 93.7236 599.305 93.5787 597.975 93.4821C590.986 93.3371 584.021 94.0135 577.081 94.7382C575.533 97.7094 573.526 101.985 570.43 101.236C565.86 100.149 561.072 100.077 556.743 98.5065C554.736 97.7818 553.261 96.3808 550.915 97.4195C549.73 97.9268 548.351 97.7335 547.07 97.0572C539.984 93.3371 534.64 94.3517 529.44 100.391C528.739 101.212 527.917 101.647 526.853 101.598C525.74 101.671 524.555 101.913 523.854 100.656C518.824 99.9317 513.77 99.8834 508.691 99.811C506.055 99.7626 503.129 100.077 500.566 98.7722C493.335 98.2649 486.032 98.1684 478.873 97.178C470.845 96.0668 463.396 99.3278 455.634 99.5211C443.663 99.8109 431.765 101.188 419.697 100.995C402.963 100.705 386.18 104.111 369.542 99.6902C369.107 99.5694 368.502 99.6902 368.091 99.9076C364.27 101.985 359.917 101.333 355.878 102.299C349.349 103.893 342.65 101.381 336.072 103.603C324.344 107.589 317.766 101.816 314.017 93.7961C313.05 91.7187 311.865 91.453 309.906 91.1148C305.07 90.2452 299.919 91.9361 295.493 90.6075C286.691 87.9745 277.743 88.6509 268.892 87.6122C268.118 87.8054 266.643 88.0711 266.643 88.1919C267.247 94.7623 262.048 92.7091 258.808 93.5062C254.745 93.2888 250.803 94.1826 246.837 94.7382C244.975 95.7044 242.919 95.5595 240.936 95.6078C235.955 95.7286 230.949 95.3179 226.015 95.8252C218.64 96.5982 211.264 97.492 203.84 97.7819C197.479 99.0138 191.119 100.053 184.614 99.6902C181.857 101.623 178.665 100.342 175.739 100.874C167.879 103.434 159.415 100.777 151.532 103.555C150.951 103.748 150.056 103.024 149.307 102.734C148.339 102.685 147.372 102.637 146.405 102.589C136.466 102.782 126.454 102.734 117.361 107.734C113.419 109.304 109.308 108.749 105.245 108.652C103.214 109.039 102.174 106.092 99.3687 107.662C95.0157 110.077 91.6784 107.976 90.2516 102.903C89.9372 101.743 89.0909 99.9076 88.3654 101.429C86.1648 105.947 79.9013 104.98 78.1601 109.667C75.8143 109.667 73.4686 109.667 71.1229 109.667C69.7203 110.705 68.3417 110.874 66.5038 110.609C61.3287 109.86 57.0241 106.792 52.0424 105.608C48.2457 104.207 46.5286 101.019 45.0293 97.6127C43.3848 93.9169 41.7646 90.221 40.1202 86.5251C38.4032 85.9937 38.5725 84.0854 37.6052 83.0225C35.9607 81.235 34.4855 77.9739 31.9221 78.8435C24.3286 81.4524 22.1037 75.8482 18.7665 71.3793C16.9044 68.8912 16.1789 64.3258 11.1005 66.1616C10.0123 66.5481 9.77043 64.9297 9.14167 64.205C7.18284 61.9343 7.95661 59.1805 7.83569 56.5717C3.72457 56.7408 -0.410698 56.8857 -4.52182 57.0548C-14.7271 57.5138 -23.3846 54.1078 -30.4702 46.7402C-33.3722 44.3004 -34.944 41.1601 -35.2826 37.416C-37.4833 35.3627 -36.3225 32.8022 -36.3467 30.4349C-37.6526 26.4008 -37.3382 22.6808 -34.2428 19.468L-34.1943 19.5163ZM520.202 98.7964C520.057 98.6515 519.96 98.5307 519.815 98.3858C519.743 98.5549 519.622 98.6756 519.477 98.7964H520.178H520.202ZM166.525 98.5065C166.525 98.5065 166.525 98.5307 166.501 98.5548C166.525 98.5548 166.549 98.5548 166.573 98.579C166.573 98.5548 166.549 98.5307 166.525 98.5065ZM-0.82174 -116.023C-1.20867 -115.782 -1.52308 -115.443 -1.76491 -115.009C-1.47472 -115.347 -1.1603 -115.685 -0.82174 -116.023Z" fill="#B5C273"/>
</g>
<defs>
<clipPath id="clip0_1461_111">
<rect width="1441" height="113" fill="white" transform="matrix(-1 0 0 1 1441 0)"/>
</clipPath>
</defs>
</svg>
