<svg width="73" height="70" viewBox="0 0 73 70" fill="none" xmlns="http://www.w3.org/2000/svg">
<rect width="73" height="70" fill="#1E1E1E"/>
<g clip-path="url(#clip0_1_14)">
<rect width="1440" height="7792" transform="translate(-147 -54)" fill="#F9F9F9"/>
<g clip-path="url(#clip1_1_14)">
<rect x="-147" y="-20" width="411" height="762" fill="#F9F9F9"/>
<g style="mix-blend-mode:multiply">
<path d="M-408.298 439.725C-405.911 434.166 -399.794 434.138 -395.755 431.102C-393.397 429.329 -385.585 431.551 -389.799 423.917C-390.464 422.718 -388.28 422.648 -387.482 423.117C-383.122 425.676 -379.02 423.819 -374.715 422.851C-366.722 421.056 -358.75 418.442 -350.344 420.51C-349.063 420.825 -347.446 420.797 -346.697 419.346C-345.976 417.937 -346.977 416.668 -347.642 415.518C-352.01 407.989 -358.694 405.493 -367.331 408.073C-369.179 408.627 -371.02 409.398 -372.91 409.58C-375.891 409.861 -378.936 410.19 -381.855 409.033C-379.72 406.327 -376.612 407.786 -373.981 407.274C-368.185 406.152 -363.083 401.939 -356.412 404.245C-353.431 405.276 -354.942 402.233 -355.579 401.224C-360.01 394.213 -366.4 390.371 -374.722 389.965C-377.48 389.832 -380.245 389.93 -383.003 389.839C-384.066 389.804 -385.725 389.958 -385.83 388.787C-385.935 387.616 -384.339 387.665 -383.311 387.546C-365.609 385.394 -357.392 389.488 -349.063 405.374C-340.3 422.08 -325.524 427.836 -308.019 427.99C-296.659 428.088 -285.734 424.527 -274.759 421.828C-273.226 421.449 -271.455 420.916 -270.832 419.115C-269.516 415.322 -269.516 415.21 -266.611 416.226C-260.802 418.245 -255.147 418.904 -248.833 417.783C-242.128 416.598 -235.311 414.985 -228.325 415.651C-227.079 415.771 -225.274 416.205 -224.721 414.6C-224.21 413.128 -225.701 412.174 -226.639 411.242C-230.754 407.155 -234.94 403.138 -239.048 399.043C-239.79 398.307 -240.735 397.2 -239.825 396.232C-238.845 395.188 -237.865 396.232 -237.081 396.968C-233.064 400.74 -229.641 405.185 -224.777 407.989C-223.825 408.543 -222.6 410.253 -221.536 408.129C-220.969 406.993 -222.663 404.785 -221.074 404.568C-219.156 404.315 -218.96 406.678 -218.722 408.234C-218.001 412.959 -214.432 415.848 -211.765 419.311C-202.659 431.116 -192.342 441.751 -180.926 451.328C-180.506 451.685 -180.142 452.127 -179.68 452.421C-176.748 454.321 -173.276 458.31 -170.385 455.983C-167.327 453.522 -169.755 448.79 -171.113 445.313C-171.883 443.343 -173.465 441.555 -175.04 440.069C-180.072 435.288 -184.566 430.114 -188.241 424.197C-189.381 422.36 -190.886 420.482 -192.685 419.36C-200.167 414.691 -205.074 407.596 -210.358 400.901C-218.778 390.238 -229.634 383.929 -242.884 381.538C-243.696 381.391 -244.599 381.44 -245.32 381.104C-256.498 375.853 -267.829 374.598 -279.511 379.47C-280.708 379.968 -282.367 380.031 -283.599 379.631C-294.938 376 -306.241 378.706 -315.508 383.943C-323.859 388.661 -330.914 387.623 -339.264 387.006C-345.262 386.565 -350.064 385.008 -354.194 381.286C-358.729 377.199 -363.692 374.948 -369.816 374.738C-373.029 374.626 -376.542 374.359 -378.453 370.917C-368.122 371.969 -357.602 372.151 -349.77 380.872C-347.915 382.94 -344.807 385.969 -341.525 381.601C-340.363 380.052 -338.508 381.09 -336.982 381.742C-334.708 382.709 -332.384 383.571 -330.116 384.56C-327.498 385.702 -325.286 385.415 -323.642 382.905C-321.913 380.269 -323.999 378.846 -325.517 377.339C-332.832 370.062 -340.965 364.482 -351.303 361.881C-363.447 358.824 -375.345 360.731 -387.328 361.916C-391.934 362.372 -388.175 364.965 -388.119 366.599C-399.955 361.755 -411.868 363.528 -423.808 366.136C-425.404 366.487 -427.098 366.41 -428.75 366.41C-429.233 366.41 -430.038 366.087 -430.129 365.751C-430.416 364.699 -429.464 364.538 -428.757 364.447C-419.742 363.304 -410.923 360.71 -401.796 360.451C-394.348 360.24 -386.992 359.406 -379.769 357.703C-369.312 355.235 -358.988 355.501 -348.699 358.453C-347.677 358.747 -346.326 359.483 -345.717 358.334C-345.129 357.226 -346.515 356.455 -347.187 355.62C-347.88 354.765 -348.664 353.973 -349.287 353.069C-349.784 352.354 -349.973 351.449 -348.993 350.987C-348.636 350.818 -347.901 351.092 -347.537 351.4C-346.27 352.466 -344.912 353.496 -343.912 354.793C-337.36 363.269 -327.995 368.26 -319.652 374.507C-316.971 376.512 -313.864 377.907 -310.392 376.077C-302.168 371.752 -293.244 372.558 -284.432 372.516C-281.135 372.502 -277.768 372.852 -274.612 371.513C-273.366 370.987 -271.833 370.56 -271.602 368.982C-271.357 367.342 -272.701 366.529 -273.926 365.94C-278.867 363.549 -283.137 358.137 -289.618 362.393C-290.22 362.792 -291.305 362.764 -291.55 361.734C-291.634 361.383 -291.06 360.801 -290.689 360.423C-286.489 356.111 -283.095 356.216 -277.558 359.511C-265.177 366.872 -251.969 372.235 -237.585 374.24C-236.074 374.451 -234.009 375.075 -233.099 373.364C-232.35 371.962 -234.233 371.086 -234.856 369.922C-237.781 364.503 -242.779 360.731 -246.146 355.655C-247.09 354.232 -248.686 353.496 -250.317 353.111C-260.746 350.629 -270.839 346.437 -281.828 346.738C-286.293 346.857 -290.612 346.395 -294.812 344.677C-304.016 340.912 -313.871 343.261 -323.362 341.915C-327.463 341.333 -331.502 340.716 -335.547 339.784C-348.993 336.664 -362.481 333.923 -376.227 338.326C-378.047 338.907 -380.091 339.503 -381.911 339.251C-384.948 338.83 -388.399 339.601 -390.884 336.93C-388.357 335.297 -385.522 336.3 -382.842 336.005C-381.533 335.858 -379.475 336.475 -379.153 335.15C-378.649 333.082 -381.015 332.773 -382.38 332.142C-386.901 330.053 -391.493 328.16 -396.672 328.441C-398.87 328.56 -401.138 328.525 -403.175 327.508C-404.21 326.99 -406.331 327.193 -405.799 325.328C-405.484 324.22 -403.909 324.865 -402.832 324.992C-393.257 326.078 -383.626 326.835 -375.023 331.911C-373.057 333.075 -370.684 332.92 -368.535 332.367C-366.778 331.918 -364.237 331.988 -363.825 329.787C-363.517 328.125 -365.651 327.249 -366.75 326.071C-368.262 324.452 -370.285 323.141 -371.286 321.262C-375.107 314.125 -381.449 311.447 -388.931 310.648C-393.25 310.185 -396.742 308.622 -399.577 305.096C-405.568 297.63 -413.282 294.272 -422.941 296.326C-423.731 296.494 -424.585 296.501 -425.397 296.424C-426.531 296.319 -427.714 295.863 -427.833 294.65C-428.001 292.982 -426.433 293.283 -425.481 293.171C-419.077 292.4 -412.834 292.919 -406.737 295.239C-403.126 296.613 -402.013 295.078 -403.343 291.643C-407.71 280.405 -408.606 267.912 -416.2 257.803C-418.769 254.382 -420.701 252.272 -425.488 253.001C-431.172 253.863 -437.051 253.471 -442.846 253.541C-443.588 253.548 -444.953 253.134 -444.988 252.819C-445.142 251.248 -443.749 251.459 -442.818 251.487C-438.101 251.634 -433.502 251.157 -428.841 250.218C-424.27 249.299 -424.837 247.974 -427.392 245.191C-428.722 243.74 -431.914 241.763 -430.15 240.116C-428.456 238.531 -426.44 241.728 -425.299 243.27C-421.436 248.507 -416.445 250.155 -410.146 249.713C-402.146 249.152 -394.145 249.594 -386.299 251.585C-385.298 251.837 -383.989 252.398 -383.402 251.143C-382.87 250.007 -384.003 249.187 -384.64 248.304C-387.125 244.862 -390.464 243.396 -394.677 243.705C-395.727 243.782 -397.568 243.845 -397.582 242.808C-397.61 241.013 -395.622 241.623 -394.453 241.23C-389.841 239.681 -386.243 241.356 -383.618 245.044C-377.172 254.108 -366.813 254.894 -357.427 257.691C-355.656 258.217 -353.326 258.364 -352.059 256.562C-350.701 254.62 -352.381 252.917 -353.284 251.269C-356.076 246.18 -359.17 241.244 -361.676 236.021C-365.623 227.77 -370.971 221.061 -379.573 217.338C-382.436 216.098 -384.479 213.784 -386.453 211.464C-387.188 210.594 -387.622 209.164 -386.089 208.94C-378.376 207.797 -382.198 203.766 -383.822 200.289C-384.22 199.434 -386.005 198.817 -384.633 197.758C-384.08 197.33 -382.569 197.87 -381.638 198.291C-378.306 199.784 -377.795 202.834 -377.963 205.974C-378.222 210.692 -375.926 214.065 -372.28 216.357C-367.212 219.54 -363.391 223.711 -360.465 228.85C-359.821 229.978 -359.205 231.822 -357.623 231.289C-355.782 230.665 -355.698 228.646 -356.097 227.006C-358.029 219.063 -356.846 211.022 -356.986 203.03C-357 202.322 -356.356 201.6 -356.02 200.885C-355.621 201.53 -354.837 202.196 -354.872 202.813C-355.369 210.952 -350.162 218.572 -351.807 226.487C-353.697 235.566 -350.001 242.758 -346.207 250.021C-343.793 254.634 -340.692 259.051 -337.171 262.886C-328.688 272.132 -321.451 282.094 -316.299 293.599C-314.438 297.749 -314.634 296.129 -314.438 292.933C-314.27 290.177 -312.541 292.204 -312.191 293.192C-311.085 296.312 -310.273 299.529 -309.321 302.705C-305.395 315.766 -296.925 325.293 -285.992 332.956C-281.821 335.879 -277.32 337.141 -272.225 337.912C-262.72 339.349 -253.397 342.02 -243.983 344.109C-240.735 344.824 -239.069 347.236 -236.998 349.535C-221.858 366.354 -208.65 384.847 -192.888 401.112C-185.434 408.802 -176.685 415.238 -170.609 424.274C-169.699 425.627 -168.244 427.05 -166.487 425.985C-165.017 425.087 -166.018 423.412 -166.403 422.178C-167.712 417.951 -169.146 413.766 -170.56 409.573C-174.473 397.985 -177.231 386.298 -176.51 373.848C-175.887 363.087 -176.51 352.255 -176.027 341.48C-175.831 337.134 -176.853 335.781 -181.199 334.259C-195.044 329.415 -209.077 332.24 -223.02 331.792C-226.037 331.694 -229.13 332.219 -232.021 330.958C-232.735 330.642 -233.827 329.934 -233.813 329.436C-233.771 327.88 -232.469 328.23 -231.44 328.378C-230.089 328.574 -228.745 328.96 -227.395 328.96C-226.66 328.96 -225.386 328.42 -225.295 327.95C-224.952 326.134 -226.667 327.018 -227.437 326.667C-228.171 326.331 -229.221 326.183 -229.186 325.279C-229.13 323.94 -227.898 323.526 -226.793 323.442C-224.231 323.246 -221.893 324.234 -219.674 325.314C-217.434 326.401 -215.349 327.733 -212.717 327.684C-208.867 327.621 -203.422 328.749 -201.966 325.419C-200.517 322.089 -206.04 320.589 -208.468 318.226C-216.973 309.954 -226.8 304.367 -238.467 301.654C-244.165 300.329 -249.281 296.985 -251.892 291.383C-258.135 277.972 -270.44 273.205 -283.102 268.901C-285.433 268.108 -287.994 268.017 -290.353 267.295C-292.817 266.538 -297.415 267.989 -294.518 261.778C-293.517 259.64 -298.22 254.915 -301.545 252.279C-308.754 246.551 -314.032 239.064 -319.708 231.948C-320.317 231.184 -321.542 230.175 -320.037 229.277C-319.582 229.004 -318.441 229.544 -317.804 229.978C-314.291 232.376 -312.59 236.351 -309.755 239.386C-302.784 246.853 -294.322 252.79 -288.064 260.965C-286.895 262.493 -285.363 264.133 -283.403 264.211C-276.249 264.498 -270.167 267.807 -263.924 270.695C-263.21 271.025 -262.293 271.733 -261.81 270.814C-261.544 270.303 -262.055 269.251 -262.426 268.557C-265.436 262.956 -268.473 257.361 -270.286 251.22C-270.671 249.909 -271.336 247.974 -270.041 247.434C-268.193 246.663 -268.487 248.977 -267.899 249.972C-266.793 251.837 -266.863 255.609 -264.981 255.447C-262.615 255.244 -262.601 251.571 -261.754 249.383C-260.977 247.371 -261.04 245.051 -260.627 242.885C-260.452 241.987 -261.054 240.235 -259.248 240.627C-258.17 240.859 -257.876 242.317 -257.904 243.396C-258.03 247.596 -259.178 251.648 -260.669 255.476C-262.293 259.633 -261.446 263.04 -258.912 266.3C-253.985 272.651 -249.813 279.416 -246.419 286.749C-244.207 291.523 -239.979 294.23 -234.499 294.426C-231.097 294.545 -228.78 293.157 -229.942 289.518C-234.618 274.888 -233.218 259.794 -232.476 245.009C-231.734 230.224 -239.279 221.664 -251.01 216.679C-262.657 211.73 -272.106 204.986 -279.287 194.681C-281.856 190.993 -285.713 188.715 -289.814 186.857C-297.408 183.422 -302.098 176.797 -307.067 170.55C-307.816 169.611 -309.202 167.942 -307.732 166.996C-306.318 166.085 -305.695 168.139 -304.821 169.043C-301.377 172.625 -298.01 176.299 -294.413 179.727C-292.663 181.396 -289.842 183.898 -288.071 182.419C-285.944 180.638 -288.484 177.855 -289.877 176.012C-296.26 167.543 -299.662 157.476 -304.919 148.418C-307.319 144.282 -305.744 140.861 -303.96 137.265C-303.603 136.549 -303.4 135.652 -302.406 136.059C-302.063 136.199 -301.874 137.005 -301.818 137.524C-299.956 155.036 -290.171 168.587 -279.84 181.907C-278.167 184.067 -276.977 186.618 -275.683 189.058C-271.98 196.027 -267.122 201.936 -260.333 206.101C-259.507 206.605 -258.485 207.93 -257.589 206.823C-256.889 205.96 -257.771 204.67 -258.541 203.941C-262.916 199.826 -262.895 192.661 -268.886 189.514C-271.189 188.301 -270.797 185.139 -270.923 182.643C-271.161 178.01 -270.055 173.193 -272.771 168.868C-273.191 168.195 -273.394 167.052 -272.414 166.793C-271.882 166.653 -270.811 167.333 -270.44 167.928C-267.654 172.359 -268.137 177.484 -267.759 182.377C-267.612 184.284 -268.487 186.906 -266.646 187.719C-261.117 190.159 -260.347 195.725 -257.841 200.093C-253.215 208.183 -245.481 212.501 -238.019 217.226C-234.478 219.47 -233.442 218.194 -232.763 214.422C-230.138 199.819 -234.037 186.731 -242.968 175.563C-248.448 168.707 -252.207 161.325 -255.238 153.326C-256.665 149.554 -260.011 146.574 -259.871 142.151C-255.077 143.574 -255.028 148.811 -252.165 151.818C-249.925 154.167 -248.868 160.364 -247.566 159.649C-244.382 157.896 -246.531 153.27 -246.041 149.855C-245.852 148.537 -246.265 146.35 -244.844 146.329C-243.458 146.315 -243.745 148.488 -243.654 149.813C-243.598 150.641 -243.472 151.51 -243.654 152.295C-246.426 164.304 -239.461 172.724 -233.008 181.326C-232.371 182.174 -231.685 183.401 -230.46 183.001C-229.256 182.608 -229.585 181.192 -229.368 180.176C-228.906 178.017 -228.451 175.857 -227.898 173.719C-227.534 172.324 -228.444 169.681 -226.338 169.919C-224.875 170.088 -225.134 172.913 -225.477 174.392C-228.227 186.226 -225.743 198.095 -225.064 209.788C-223.825 231.065 -224.525 252.349 -223.454 273.584C-222.866 285.228 -219.198 296.431 -209.679 304.535C-208.44 305.594 -206.992 307.01 -205.375 305.846C-204.15 304.97 -204.822 303.259 -205.235 301.962C-206.53 297.882 -206.726 293.823 -205.256 289.764C-204.892 288.761 -204.598 287.107 -203.506 287.226C-202.19 287.366 -202.575 288.895 -202.701 289.96C-204.283 303.518 -198.06 313.214 -187.471 320.729C-184.587 322.776 -181.332 323.064 -177.959 322.685C-175.033 322.363 -173.486 320.954 -173.857 317.736C-175.068 307.367 -173.913 296.774 -178.092 286.679C-180.975 279.711 -183.775 273.093 -189.409 267.695C-194.834 262.493 -197.851 255.44 -201.147 248.738C-203.149 244.665 -205.228 240.929 -210.274 239.968C-213.018 239.45 -214.446 237.402 -214.446 234.542C-214.446 233.196 -214.922 231.051 -213.62 230.799C-211.898 230.462 -212.241 232.635 -211.968 233.813C-211.548 235.601 -210.498 237.017 -208.839 237.36C-203.275 238.51 -200.573 242.436 -198.564 247.224C-198.27 247.925 -197.466 248.977 -197.004 248.928C-195.674 248.781 -195.814 247.329 -195.674 246.397C-194.358 237.395 -192.489 228.443 -192.944 219.259C-192.993 218.208 -193.105 216.406 -192.034 216.371C-190.144 216.308 -190.641 218.271 -190.641 219.428C-190.599 228.836 -190.627 238.244 -190.697 247.652C-190.732 252.461 -189.598 256.962 -187.485 261.245C-186.988 262.255 -186.246 263.25 -185.028 263.11C-183.761 262.963 -183.418 261.757 -183.173 260.656C-182.991 259.85 -182.767 259.037 -182.704 258.21C-181.717 244.56 -177.714 231.016 -181.563 217.212C-183.565 210.033 -182.9 202.329 -185.742 195.29C-186.141 194.309 -186.498 192.64 -185.329 192.346C-183.607 191.918 -183.313 193.846 -183.012 195.01C-181.633 200.359 -180.324 205.736 -179.176 211.141C-177.98 216.778 -179.757 223.627 -172.086 226.431C-170.616 226.971 -172.03 228.906 -172.863 229.845C-176.615 234.08 -177.392 239.155 -177.322 244.546C-177.252 249.797 -177.49 254.971 -178.568 260.201C-180.198 268.122 -175.376 274.502 -172.352 281.246C-172.065 281.891 -171.239 282.697 -170.63 282.718C-169.363 282.767 -168.796 281.527 -168.621 280.503C-164.261 255.56 -156.905 230.967 -159.718 205.161C-160.054 202.084 -160.376 198.901 -162.084 196.433C-170.707 183.975 -172.982 169.366 -176.09 155.106C-177.063 150.648 -178.609 148.72 -183.012 149.133C-191.6 149.94 -199.271 147.374 -206.719 143.266C-212.801 139.915 -219.625 138.547 -226.471 137.496C-227.688 137.307 -229.837 137.734 -229.641 136.087C-229.48 134.741 -227.275 135.077 -225.967 135.147C-219.31 135.533 -212.934 137.307 -206.607 139.291C-205.599 139.606 -204.465 140.574 -203.583 139.669C-202.47 138.526 -202.918 136.893 -203.863 135.926C-209.518 130.156 -212.248 121.246 -221.522 119.325C-222.432 119.135 -223.909 119.206 -223.531 117.663C-223.433 117.257 -221.984 116.752 -221.389 116.962C-214.971 119.241 -214.439 115.609 -215.468 110.905C-216.063 108.171 -213.907 106.979 -213.095 105.051C-210.701 99.3238 -205.27 94.7109 -206.677 87.5742C-206.831 86.789 -206.929 85.6883 -205.928 85.6323C-205.424 85.6042 -204.591 86.5997 -204.367 87.2797C-203.583 89.7054 -203.646 92.2221 -204.486 94.6197C-205.032 96.176 -205.69 97.7744 -206.663 99.0784C-213.991 108.879 -211.975 117.993 -205.102 127.05C-202.113 130.99 -199.054 134.888 -196.808 139.417C-194.302 144.478 -183.432 147.163 -178.518 144.471C-176.776 143.518 -176.643 141.913 -176.391 140.272C-174.725 129.329 -172.268 118.603 -168.398 108.185C-165.766 101.111 -167.201 93.3298 -165.115 86.109C-164.583 84.2582 -164.205 82.3584 -163.547 80.5567C-163.33 79.9608 -162.287 79.1265 -161.902 79.2527C-160.95 79.5612 -161.216 80.6198 -161.405 81.4119C-164.044 92.145 -162.931 103.502 -166.788 114.011C-169.762 122.136 -170.434 130.717 -172.065 139.101C-172.961 143.707 -171.624 147.29 -167.124 149.309C-166.62 149.533 -166.179 149.89 -165.668 150.094C-161.965 151.545 -159.41 154.461 -156.66 157.125C-156.534 153.178 -159.634 150.178 -159.739 146.259C-159.921 139.606 -159.69 133.107 -157.773 126.574C-154.511 115.49 -150.388 104.722 -149.121 92.9582C-147.995 82.4635 -148.695 72.6628 -152.047 62.7921C-153.643 58.102 -154.539 53.1737 -155.757 48.3575C-155.96 47.5442 -156.24 46.4506 -155.442 46.1281C-154.063 45.5673 -153.594 46.9764 -153.335 47.8667C-148.898 63.1566 -142.892 78.131 -143.893 94.5286C-143.935 95.2647 -143.522 96.0218 -143.319 96.7719C-142.598 96.4424 -141.821 96.2111 -141.177 95.7764C-139.001 94.3042 -136.635 89.9928 -134.885 91.8155C-132.799 93.9888 -137.223 95.8536 -138.763 97.8445C-147.827 109.566 -151.963 123.166 -154.007 137.552C-154.602 141.744 -153.594 145.817 -151.844 149.666C-149.66 154.461 -148.632 159.586 -147.197 164.613C-144.964 172.408 -139.938 178.718 -132.365 182.44C-130.853 183.183 -129.097 183.492 -127.76 182.069C-126.668 180.898 -127.165 179.489 -127.739 178.199C-130.125 172.85 -131.686 167.368 -131.91 161.416C-132.099 156.382 -136.117 154.756 -140.253 153.459C-141.205 153.157 -142.78 151.895 -142.661 151.58C-141.989 149.687 -140.526 150.893 -139.357 151.131C-136.628 151.685 -133.73 152.246 -131.987 154.552C-129.3 158.107 -127.984 158.864 -127.844 153.389C-127.802 151.769 -126.395 151.973 -125.779 153.256C-125.324 154.195 -124.946 155.478 -125.219 156.41C-128.516 167.641 -122.839 176.173 -116.953 184.677C-113.18 190.124 -109.52 195.641 -105.691 201.046C-104.97 202.056 -103.934 203.661 -102.401 202.679C-101.792 202.287 -101.813 200.674 -101.806 199.609C-101.757 193.797 -101.617 187.978 -101.841 182.174C-102.149 174.105 -101.904 165.959 -99.6506 158.31C-95.773 145.13 -101.183 135.21 -109.149 125.788C-110.751 123.889 -112.564 122.164 -114.055 120.187C-116.736 116.633 -116.582 116.864 -112.375 115.581C-109.135 114.593 -106.867 112.02 -105.705 108.767C-103.703 103.173 -102.646 97.4309 -103.185 91.4369C-103.29 90.2592 -103.927 88.3804 -102.058 88.163C-100.868 88.0228 -100.756 89.7334 -100.497 90.7429C-98.5656 98.2862 -98.9436 105.5 -103.465 112.195C-108.491 119.626 -108.715 119.886 -103.423 126.531C-100.98 129.595 -99.7695 135.61 -95.346 134.825C-92.0073 134.236 -91.8323 128.466 -90.3205 124.996C-88.4377 120.678 -86.5269 116.387 -84.0701 112.37C-81.5574 108.262 -80.1575 103.909 -80.1575 99.0223C-80.1575 96.5756 -79.8216 94.0028 -79.0166 91.6963C-75.468 81.5031 -73.1583 70.9803 -70.4915 60.5487C-70.0296 58.733 -69.7916 55.431 -67.9998 55.9849C-65.1581 56.8542 -67.5588 59.6724 -67.8458 61.5162C-69.4416 71.8987 -71.9613 82.0779 -75.342 92.0328C-75.7829 93.3228 -76.3499 94.9422 -74.8031 95.6643C-73.2702 96.3723 -72.3113 94.8581 -71.5204 93.7855C-70.8765 92.9162 -70.6315 91.7524 -70.0085 90.8691C-68.9377 89.3478 -69.5536 85.5832 -66.9428 86.5927C-65.27 87.2377 -66.3549 90.834 -67.5238 92.6217C-71.8774 99.2817 -75.895 106.033 -79.4016 113.261C-87.6118 130.177 -93.3582 147.906 -93.6452 166.47C-93.9111 184.018 -94.5271 201.978 -88.4867 219.07C-88.1227 220.108 -87.7798 221.152 -87.4298 222.19C-87.0308 221.264 -86.5759 220.353 -86.2399 219.407C-84.4761 214.436 -83.3072 209.353 -83.0622 204.061C-83.0202 203.1 -82.4113 201.74 -81.0884 202.013C-80.1995 202.196 -80.7244 203.374 -80.5984 204.117C-79.5626 210.391 -82.1313 216.161 -83.5452 221.951C-85.351 229.34 -83.3002 235.566 -80.2905 241.896C-78.4357 245.801 -76.1889 246.86 -72.8293 243.312C-68.6437 238.896 -64.1082 234.809 -60.0766 230.266C-55.758 225.393 -53.0912 219.82 -53.6232 212.901C-54.0502 207.398 -53.9662 201.824 -53.6582 196.3C-52.9933 184.529 -54.7361 173.467 -59.5936 162.474C-63.8072 152.919 -62.4283 141.835 -65.1581 131.698C-65.4871 130.485 -65.1161 128.831 -64.5071 127.674C-63.7022 126.139 -64.5561 123.019 -62.2043 123.272C-60.7555 123.426 -61.6724 126.125 -61.9384 127.709C-62.1203 128.789 -62.5263 129.96 -62.2883 130.962C-61.8613 132.736 -61.9734 135.253 -59.6357 135.617C-57.7668 135.905 -57.0529 133.871 -56.2549 132.469C-52.3773 125.697 -53.6512 117.923 -52.2444 110.667C-50.6765 102.598 -49.3537 94.3253 -51.9294 86.0879C-52.2304 85.1135 -52.2094 83.2978 -51.2155 83.1155C-49.1437 82.7439 -49.8086 84.819 -49.5566 85.8987C-45.952 101.315 -48.8427 116.668 -50.1936 132.028C-50.3056 133.297 -51.2504 134.587 -52.0483 135.694C-58.0117 143.918 -56.5419 152.281 -52.8883 160.862C-50.6345 166.162 -47.1839 170.936 -46.148 176.79C-45.5881 179.937 -44.1532 178.465 -43.0753 176.986C-36.9019 168.475 -32.0374 159.144 -26.634 150.15C-24.7442 147.002 -25.752 143.721 -26.7809 140.517C-29.5876 131.775 -31.1905 122.907 -30.5746 113.625C-30.2456 108.662 -29.0558 104.294 -25.2622 101.048C-18.8508 95.5731 -15.4072 88.5626 -13.9653 80.4094C-13.7833 79.3719 -13.7973 77.7244 -12.6144 77.8296C-11.4665 77.9277 -11.7675 79.6102 -11.5435 80.6618C-11.0325 83.0804 -13.7763 86.2912 -11.5085 87.6513C-8.54086 89.4249 -6.11905 85.9127 -3.43134 84.7419C-0.239655 83.3539 1.33511 79.1826 5.52768 79.5401C5.03073 84.104 0.796234 85.1415 -2.11548 87.0484C-9.28275 91.7384 -16.814 95.8325 -22.5044 102.478C-24.1282 104.371 -26.2141 106.026 -26.2281 108.732C-26.2631 117.803 -27.8099 127.029 -23.7503 135.715C-22.9874 137.342 -23.4424 140.048 -20.8946 140.195C-19.0118 140.3 -18.5498 138.099 -17.5839 136.816C-16.093 134.832 -14.7492 132.736 -13.1884 130.815C-12.5235 129.995 -11.2426 129.16 -10.3326 129.833C-9.07278 130.759 -10.3746 131.698 -10.9486 132.525C-16.135 140.027 -18.9838 148.853 -24.5692 156.186C-27.9359 160.602 -27.4739 161.016 -21.8115 161.661C-20.2926 161.836 -17.6469 161.135 -17.6819 162.909C-17.7169 164.62 -20.4396 163.883 -21.9865 164.178C-27.2359 165.194 -30.9946 168.118 -33.4023 172.871C-34.6552 175.339 -35.6071 178.073 -37.3289 180.155C-43.5233 187.628 -45.2101 196.097 -44.8041 205.638C-44.3422 216.665 -46.9809 226.957 -54.8691 235.447C-60.3145 241.307 -65.0741 247.806 -70.5685 253.618C-76.063 259.436 -78.3447 266.917 -81.9774 273.703C-82.5023 274.684 -82.8383 275.953 -81.7184 276.675C-81.2354 276.991 -80.0735 276.759 -79.5136 276.36C-73.2142 271.845 -65.5711 269.882 -59.3067 265.094C-54.6592 261.54 -52.5244 257.467 -52.0204 251.928C-51.5934 247.252 -51.0195 242.492 -46.6589 239.485C-46.022 239.043 -44.8111 238.559 -44.3912 238.854C-42.8443 239.933 -44.4962 240.536 -45.0071 241.3C-51.1805 250.582 -49.1786 255.069 -38.5957 256.296C-36.405 256.548 -32.2404 254.641 -32.4714 256.857C-32.7654 259.605 -37.3079 259.191 -39.6947 258.455C-44.7552 256.906 -47.7788 258.827 -51.2225 262.332C-55.415 266.608 -60.0276 270.695 -65.914 272.798C-80.7175 278.084 -86.7299 290.815 -92.2173 304.002C-93.9182 308.082 -95.444 312.275 -97.5858 316.116C-99.9795 320.4 -99.1396 323.926 -95.248 326.008C-83.7272 332.191 -76.7838 342.237 -70.7085 353.279C-67.5938 358.936 -60.7065 360.156 -55.835 356.034C-50.6415 351.646 -47.0719 346.002 -45.7351 339.293C-44.5452 333.306 -46.813 328.714 -51.8665 325.02C-59.0127 319.783 -60.3635 311.258 -55.646 304.682C-54.9951 303.778 -54.1622 302.488 -53.1193 302.937C-51.8244 303.49 -52.5803 304.893 -53.0982 305.769C-54.4141 308.005 -54.7501 310.41 -54.7711 312.941C-54.8061 317.049 -53.8542 320.554 -49.9276 322.762C-46.736 324.557 -44.3912 327.207 -42.5924 330.453C-40.4996 334.245 -39.0857 337.863 -41.4865 342.125C-42.7043 344.291 -43.8032 347.495 -42.2494 349.206C-40.0656 351.603 -37.9868 348.238 -35.9361 347.376C-27.7959 343.955 -19.8237 340.113 -11.6625 336.748C-4.08929 333.622 0.439209 328.427 1.4191 320.147C2.94495 307.29 4.6738 294.475 3.18295 281.456C2.30106 273.752 2.39206 265.998 3.74292 258.294C4.65982 253.064 4.93979 247.778 2.763 242.766C-1.40158 233.168 -2.21347 223.024 -2.27646 212.775C-2.31845 206.241 -3.76733 200.261 -7.44894 194.751C-11.9985 187.943 -11.3336 179.461 -6.14008 173.27C-5.64313 172.682 -5.13922 171.889 -4.26431 172.422C-3.96335 172.604 -3.85831 173.404 -3.94229 173.866C-4.08926 174.673 -4.29929 175.549 -4.76123 176.208C-11.2006 185.441 -5.32822 192.178 -0.232727 199.111C1.49609 201.467 2.539 200.023 3.35791 198.487C7.37549 190.944 10.9101 183.155 14.9907 175.626C17.4125 171.16 14.0528 165.482 13.3249 160.343C13.1359 159.004 12.3451 157.763 11.8971 156.459C11.0782 154.097 9.97229 150.36 11.9741 149.715C13.9829 149.07 12.968 153.136 14.0949 154.861C16.5866 158.675 16.2016 163.4 17.8885 167.473C18.8404 169.779 20.1282 171.588 22.648 168.889C22.837 168.686 22.9979 168.37 23.2289 168.307C36.6465 164.388 33.3499 153.052 34.0918 143.581C34.3718 139.999 34.0848 136.367 35.5546 132.974C35.8626 132.266 36.4506 131.074 36.8355 131.102C38.2564 131.215 38.2774 132.589 38.0044 133.528C36.1286 140.034 36.5626 146.694 36.6466 153.319C36.6746 155.681 35.6386 158.864 38.3754 160.077C41.2031 161.332 43.6108 158.934 45.7736 157.378C52.2479 152.688 53.5219 145.544 53.9768 138.267C54.3268 132.75 54.0818 127.197 54.2077 121.666C54.2217 120.958 54.8867 120.271 55.2436 119.57C55.6216 120.243 56.3215 120.902 56.3355 121.582C56.4545 127.394 56.6155 133.212 56.4406 139.017C56.3006 143.812 57.1055 147.367 63.0899 146.792C64.0068 146.701 65.3646 146.596 65.4206 148.124C65.4276 148.397 64.6157 148.951 64.1817 148.958C57.4834 148.965 54.5857 154.91 49.8402 157.953C41.791 163.105 37.4445 168.707 42.589 178.725C44.6957 182.826 41.91 187.277 38.7534 190.713C28.1425 202.28 21.2761 216.119 15.0047 230.294C12.618 235.685 13.3109 241.7 11.918 247.315C11.5961 248.612 11.9811 250.225 13.6189 250.659C14.7948 250.968 15.6347 250.07 16.3136 249.159C16.9715 248.269 17.8045 247.463 18.2734 246.488C23.054 236.505 31.2011 231.458 41.693 228.527C49.5882 226.319 56.9444 222.169 64.4966 218.776C68.9062 216.792 72.189 213.356 74.8907 209.48C78.3344 204.537 78.0403 199.952 74.4357 195.024C73.4628 193.692 72.2799 192.458 71.58 190.993C70.5861 188.925 71.342 186.52 73.4557 186.394C76.6404 186.205 73.5187 188.722 74.3167 189.78C76.2974 192.409 78.2223 195.087 80.2871 197.653C81.253 198.852 82.051 197.905 83.0378 197.281C86.9575 194.786 89.1832 191.112 90.912 186.962C91.241 186.163 91.9129 184.747 93.2358 185.672C93.5648 185.903 93.3618 187.214 93.0958 187.915C91.528 192.031 90.3171 196.342 86.6564 199.307C85.5925 200.163 84.4726 201.193 83.9197 202.392C82.2678 205.995 77.7323 209.241 79.7271 213.09C80.434 214.457 85.7256 210.58 89.0502 209.368C97.0784 206.437 105.359 204.222 113.177 200.66C116.004 199.378 118.629 198.032 120.596 195.592C123.102 192.486 124.837 188.161 130.318 189.99C131.347 190.334 132.04 188.785 132.586 187.838C137.667 178.907 145.275 171.833 150.658 163.126C152.989 159.355 155.529 155.695 154.207 150.823C153.941 149.841 154.157 148.58 154.535 147.591C155.634 144.724 155.34 140.062 158.518 139.781C160.044 139.641 158.238 144.584 157.958 147.226C157.447 152.127 158.973 152.975 163.81 151.138C166.21 150.227 169.115 145.901 170.438 148.362C171.985 151.236 166.945 152.337 164.726 154.104C161.535 156.649 155.865 158.801 157.265 162.937C158.714 167.22 164.558 164.62 168.443 164.851C171.124 165.012 173.854 163.855 176.59 163.673C180.713 163.393 182.988 161.724 183.925 157.392C185.591 149.694 191.261 144.577 196.776 139.494C197.518 138.814 198.512 137.608 199.464 138.877C200.171 139.816 199.296 140.98 198.589 141.786C195.145 145.712 190.897 148.972 188.986 154.132C188.02 156.74 186.459 159.488 188.454 161.949C190.372 164.325 193.193 163.028 195.369 162.047C201.718 159.186 208.395 160.371 214.946 160.133C216.57 160.07 219.468 158.976 219.72 161.619C220.077 165.412 225.984 163.47 224.857 165.937C223.576 168.742 220.077 165.089 217.487 165.818C209.585 168.048 201.704 166.435 193.773 165.902C186.83 165.433 185.857 166.919 185.85 174.175C185.843 176.979 186.431 179.643 187.159 182.328C187.887 184.985 188.391 187.712 188.923 190.418C189.462 193.159 186.389 196.517 188.524 198.326C191.569 200.892 195.593 202.525 199.45 203.815C203.411 205.14 205.791 201.228 208.955 199.812C210.271 199.223 212.462 196.847 212.861 198.747C213.644 202.518 217.984 202.238 218.747 205.126C219.174 206.76 217.263 206.297 216.437 205.932C212.028 203.976 207.884 204.285 203.887 206.991C201.494 208.617 199.191 208.113 196.958 206.577C190.764 202.322 184.996 203.941 179.278 207.741C170.452 213.609 169.164 213.399 162.018 205.519C157.755 200.822 152.905 199.553 147.221 202.399C142.343 204.846 137.702 205.519 132.138 204.811C123.858 203.752 116.053 206.739 108.179 209.648C104.561 210.987 111.434 216.308 105.365 214.436C102.608 213.588 99.892 214.275 97.2183 215.074C84.2626 218.951 71.552 223.536 59.2263 229.081C52.185 232.25 45.4517 236.063 38.0464 238.482C29.8013 241.174 27.0295 249.103 23.3479 255.679C16.7266 267.506 14.8157 280.636 14.8157 294.103C14.8157 297.924 15.9776 298.506 19.1063 296.494C26.4276 291.776 32.5239 286.455 30.2841 276.423C30.1652 275.89 30.0322 275.287 30.1582 274.782C30.7321 272.469 30.3892 268.515 32.9719 268.655C35.1977 268.774 33.0349 272.21 33.2449 274.18C33.5039 276.64 33.2309 279.157 33.2869 281.646C33.4338 287.661 31.1521 292.694 26.1546 295.814C18.6934 300.476 15.3897 307.367 13.9059 315.583C13.171 319.657 12.4221 323.737 11.4702 327.768C9.52435 336.005 5.1568 342.041 -2.88538 345.806C-16.373 352.122 -29.5737 359.014 -42.4734 366.578C-52.3844 372.39 -64.1501 374.647 -74.3411 380.29C-75.307 380.823 -76.3919 381.132 -77.3718 381.629C-87.3948 386.719 -100.043 410.569 -97.5998 419.738C-96.1509 425.186 -94.0931 425.901 -89.4456 422.62C-78.8277 415.133 -67.5798 408.641 -56.213 402.415C-44.7552 396.141 -35.5581 387.827 -29.5037 376.182C-28.4608 374.17 -27.2219 372.397 -25.2481 371.226C-23.1833 369.999 -20.3137 367.377 -18.8718 368.975C-17.423 370.588 -21.1955 371.766 -22.3994 373.371C-26.06 378.257 -26.9139 384.553 -30.7005 389.467C-31.8764 390.988 -29.3918 391.171 -28.1599 390.694C-13.7553 385.086 0.663177 379.519 14.9907 373.715C18.3504 372.354 20.9122 369.515 22.9 366.536C30.9981 354.359 40.2932 342.988 47.6564 330.327C54.0118 319.39 57.6934 307.697 57.4764 294.839C57.3854 289.329 56.5525 284.401 52.1989 280.608C49.3503 278.119 48.6083 275.112 50.3092 271.677C50.6241 271.032 51.443 270.134 51.926 270.191C52.8989 270.303 52.9269 271.417 52.7379 272.217C51.1211 279.115 58.2953 281.106 60.4511 285.936C61.1791 287.57 63.5308 287.023 64.8606 285.894C66.5265 284.478 68.1573 282.908 69.3822 281.12C72.9728 275.869 76.4375 270.618 81.428 266.447C84.9066 263.545 85.9915 258.995 87.5943 254.887C88.0002 253.849 88.6932 252.826 89.9461 253.351C90.842 253.73 90.457 254.739 90.261 255.546C88.9242 261.238 87.3984 266.819 82.8068 270.927C81.9809 271.663 81.064 272.357 80.462 273.254C79.4681 274.74 77.0814 276.451 79.1742 278.14C80.5811 279.276 82.2958 277.103 82.9608 275.841C86.5794 269.027 93.5928 267.442 99.7241 264.484C100.669 264.028 101.894 263.089 102.657 264.281C103.378 265.395 102.041 266.04 101.306 266.797C92.2069 276.192 81.162 282.964 70.2011 289.792C65.2386 292.884 61.9349 296.136 64.5177 302.509C65.0916 303.932 64.8047 305.818 64.5527 307.437C64.0698 310.543 65.5605 311.3 67.5623 309.47C75.3595 302.334 84.9905 299.102 94.7056 295.905C103.518 292.996 112.785 291.692 121.45 288.271C122.199 287.976 123.319 288.032 123.613 288.916C123.907 289.792 122.962 290.227 122.234 290.507C117.859 292.197 113.464 293.837 109.096 295.555C108.361 295.842 107.318 296.305 107.157 296.894C106.835 298.071 108.088 297.756 108.725 297.903C117.523 299.838 126.405 303.427 134.784 296.627C135.637 295.933 137.149 295.611 137.457 294.776C140.474 286.742 148.67 284.709 154.41 279.858C155.109 279.269 155.515 277.51 156.796 278.715C157.657 279.522 157.174 280.783 156.474 281.702C155.977 282.361 155.473 283.279 154.794 283.489C145.968 286.217 143.225 295.779 135.938 300.202C134.973 300.784 134.231 301.429 134.07 302.684C133.846 304.465 137.884 305.537 135.189 307.213C134.182 307.837 131.767 305.797 129.905 305.523C119.007 303.911 108.123 301.64 97.1624 301.198C87.8603 300.819 79.7551 305.481 72.5599 311.496C62.187 320.161 55.5376 331.68 48.4614 342.819C45.3747 347.685 46.4105 348.918 52.1779 349.073C58.2463 349.234 64.1328 349.612 70.0331 351.8C76.5075 354.204 83.0588 352.326 89.2881 349.514C96.9524 346.058 103.686 341.41 109.292 335.101C110.097 334.196 111.42 332.724 112.708 334.238C113.45 335.115 112.274 336.173 111.581 336.994C110.685 338.045 109.579 338.985 108.942 340.176C107.745 342.413 108.34 343.829 111.133 344.011C129.121 345.182 146.185 341.908 162.137 333.341C167.232 330.607 170.697 326.681 172.328 320.926C174.504 313.228 179.369 307.22 185.437 302.172C186.431 301.345 187.705 299.943 188.937 301.219C189.714 302.018 188.51 303.203 187.719 303.876C180.741 309.786 176.499 317.287 173.833 326.008C172.23 331.245 167.554 334.245 163.187 337.239C162.319 337.835 161.08 338.83 161.108 339.608C161.178 341.613 163.173 340.772 164.348 341.172C171.726 343.689 178.508 343.724 183.604 336.573C183.897 336.159 184.541 335.612 184.898 335.69C186.704 336.068 188.461 332.759 189.861 335.136C190.659 336.482 188.566 337.947 187.404 339.083C186.62 339.854 185.752 340.597 184.793 341.109C182.12 342.546 181.595 343.941 184.541 345.68C185.724 346.381 186.865 347.194 187.88 348.119C188.44 348.631 189.154 349.626 188.986 350.145C188.678 351.106 187.67 350.727 186.886 350.405C171.25 344.004 155.452 342.995 138.934 347.292C130.773 349.416 122.024 349.676 113.513 349.928C106.954 350.117 100.928 351.428 95.2516 354.499C85.0676 360.002 75.0096 361.152 63.4258 357.766C52.367 354.534 40.7551 357.065 33.7348 367.202C24.5448 380.473 10.4972 385.156 -3.0184 391.304C-26.0811 401.806 -50.2566 410.12 -70.7015 425.859C-75.636 429.658 -79.8846 433.851 -82.4533 439.501C-83.2792 441.317 -84.9311 443.553 -82.6353 445.565C-80.4795 447.451 -78.0577 447.409 -75.741 445.902C-70.1346 442.263 -64.1292 439.697 -57.6758 437.868C-40.4226 432.96 -23.1834 427.983 -6.89606 420.208C-2.96246 418.329 1.44016 417.166 5.75873 416.415C19.6733 413.976 31.0051 406.909 40.5732 396.961C46.0466 391.269 52.8919 388.773 60.0172 386.509C63.3698 385.443 66.5685 386.011 69.6272 387.602C76.2065 391.03 83.6118 392.391 90.0231 396.492C95.3146 399.878 107.878 397.066 112.708 392.755C116.032 389.79 115.34 386.453 114.234 382.863C113.758 381.314 113.212 378.965 114.898 378.426C116.172 378.019 116.088 380.494 116.564 381.714C118.979 387.925 118.902 387.834 123.998 383.347C129.576 378.433 134.965 373.231 141.678 369.796C142.84 369.2 144.505 367.931 145.352 369.137C146.402 370.616 144.408 371.296 143.372 371.969C134.21 377.914 127.042 385.941 120.043 394.171C116.011 398.91 110.699 401.855 105.079 404.308C104.155 404.715 102.657 404.911 102.867 406.229C103.077 407.589 104.575 407.407 105.596 407.379C120.743 407.007 135.833 405.858 150.819 403.635C153.29 403.271 155.347 401.651 157.188 399.913C161.633 395.713 167.127 395.538 172.734 395.945C173.49 396.001 174.861 396.59 174.84 396.807C174.686 398.174 173.427 398.097 172.405 398.223C168.044 398.763 163.551 398.938 159.841 401.679C158.84 402.416 157.265 403.46 158.119 404.995C158.469 405.619 160.065 405.738 161.101 405.745C168.548 405.809 176.023 405.416 183.296 407.582C184.261 407.87 185.997 407.575 185.885 408.774C185.78 409.847 184.016 409.741 182.981 409.636C179.152 409.251 175.33 408.283 171.509 408.311C157.433 408.409 143.435 410.218 129.324 410.099C123.305 410.05 122.997 411.662 126.797 417.551C127.336 418.385 128.666 419.234 127.252 420.215C126.867 420.482 125.586 419.998 125.104 419.486C119.378 413.485 112.078 412.7 104.435 413.212C97.9953 413.639 92.4028 411.592 87.6503 407.449C82.3519 402.829 76.1785 399.787 69.8932 396.912C63.0549 393.786 54.9847 396.393 51.2471 402.731C49.3363 405.97 50.3162 408.066 53.8088 408.865C64.5807 411.333 74.0577 417.446 84.9626 419.71C89.7432 420.699 94.2576 423.461 98.0303 426.714C105.617 433.262 114.591 437.931 123.123 442.579C135.217 449.168 148.978 452.632 162.746 445.355C165.181 444.072 167.617 442.347 170.396 442.579C171.047 442.635 179.999 436.465 173.784 445.523C172.853 446.883 174.721 447.949 175.925 448.453C179.922 450.108 182.925 453.108 185.332 456.403C192.787 466.618 202.656 470.396 214.939 468.679C216.206 468.503 218.138 467.192 218.642 468.742C219.293 470.733 216.99 471.125 215.534 471.749C212.371 473.109 209.074 473.348 205.791 472.464C196.622 470.004 188.132 466.786 182.414 458.156C177.626 450.928 168.758 448.636 160.394 451.23C154.57 453.031 148.796 454.777 142.574 453.221C141.055 452.842 138.913 452.421 137.933 453.922C136.883 455.52 138.29 457.125 139.452 458.261C143.288 462.005 145.975 467.375 152.625 467.136C156.054 467.017 154.242 471.784 157.825 472.794C166.826 475.346 175.512 479.061 184.849 480.428C187.32 480.793 189.77 481.052 192.073 482.062C193.06 482.496 194.459 483.015 193.99 484.193C193.507 485.413 192.003 484.754 191.002 484.543C182.372 482.735 173.594 481.669 165.125 479.096C162.809 478.388 160.079 476.965 158.385 479.713C156.964 482.006 157.727 484.508 159.61 486.555C160.443 487.467 162.13 488.476 160.261 489.745C159.267 490.418 158.175 489.423 157.37 488.666C155.501 486.899 154.186 484.635 153.962 482.167C153.5 477.07 150.42 474.582 146.206 472.373C138.801 468.503 132.033 463.792 128.407 455.688C126.062 450.451 120.393 449.182 116.207 446.14C115.801 445.846 114.962 445.565 114.71 445.768C113.919 446.399 114.318 447.332 114.703 448.026C116.529 451.37 116.403 455.029 116.116 458.584C115.311 468.623 119.091 476.355 127.252 482.076C128.281 482.798 130.206 483.492 129.058 484.999C128.05 486.317 126.566 484.859 125.453 484.228C123.774 483.275 122.234 482.083 120.568 481.101C119.448 480.442 118.244 478.963 116.97 479.91C115.738 480.828 116.452 482.426 116.97 483.716C117.453 484.915 118.482 486.541 116.396 486.871C114.85 487.116 114.017 485.364 114.024 484.004C114.087 476.166 111.343 468.777 110.531 461.107C108.998 446.49 94.6286 429.981 79.9021 426.7C72.0629 424.954 64.2727 423.3 57.0914 419.479C55.6846 418.729 53.9348 418.42 52.325 418.336C49.5463 418.182 46.2356 418.147 44.7097 420.587C42.9389 423.419 45.7596 425.613 47.4255 427.688C50.1902 431.13 53.0319 434.524 55.9576 437.826C59.1142 441.394 62.2989 444.976 67.9473 442.698C68.8292 442.34 70.1661 442.726 71.16 443.111C72.6438 443.679 74.8976 444.233 74.4217 446.182C74.0577 447.675 72.056 446.624 70.7821 446.589C61.578 446.322 61.697 446.406 61.382 455.527C61.207 460.61 62.9429 465.342 63.2509 470.298C63.4608 473.705 65.8755 474.89 68.7172 475.619C72.7208 476.643 76.7245 477.666 80.7141 478.732C81.4839 478.935 82.4639 479.426 82.2049 480.239C82.0509 480.709 80.7841 481.157 80.1051 481.052C76.2905 480.484 72.4409 479.98 68.7313 478.984C65.3716 478.087 63.3138 478.437 63.1038 482.412C63.0478 483.408 63.0688 485.062 61.725 484.838C60.6051 484.656 60.8361 482.98 60.7731 481.908C60.1431 471.104 57.8684 460.469 55.2157 450.136C52.22 438.449 43.7858 430.261 32.342 425.746C29.4723 424.611 26.0916 424.029 23.3829 425.2C12.303 429.981 -0.463654 430.591 -10.1717 438.709C-11.5435 439.859 -14.3222 439.929 -14.0073 442.193C-13.8953 443.006 -11.1866 443.406 -9.69577 444.079C-8.62488 444.563 -6.88898 443.616 -6.48303 445.544C-7.55392 445.712 -8.64578 446.098 -9.70267 446.028C-21.1885 445.271 -31.4075 448.797 -40.9685 454.91C-44.4681 457.146 -48.4297 458.675 -52.4963 459.432C-59.9366 460.82 -66.5929 464.01 -73.3402 467.235C-94.45 477.323 -103.269 495.396 -103.969 517.318C-104.382 530.112 -106.062 542.66 -108.043 555.111C-109.855 566.524 -107.511 577.075 -105.376 587.836C-101.4 607.886 -94.5901 627.207 -89.9426 647.11C-87.1429 659.098 -80.9974 670.266 -80.2135 682.884C-80.0595 685.359 -79.4926 687.82 -79.4856 690.287C-79.4226 707.996 -78.1557 725.543 -73.9561 742.831C-71.9684 751.019 -72.8363 751.917 -81.4524 751.945C-106.321 752.022 -131.196 752.015 -156.065 751.945C-163.561 751.924 -164.352 751.23 -165.85 743.686C-167.698 734.377 -165.976 725.263 -161.986 717.011C-157.472 707.674 -158.459 698.917 -161.741 689.79C-164.625 681.763 -167.327 673.701 -167.075 664.938C-166.991 662.028 -166.256 660.465 -163.309 661.446C-159.508 662.715 -158.878 660.808 -157.85 657.654C-153.86 645.378 -155.54 632.822 -157.136 620.736C-158.885 607.515 -159.851 594.412 -159.851 581.134C-159.851 571.2 -160.278 561.266 -160.768 551.332C-161.293 540.726 -160.215 529.845 -156.814 519.435C-152.88 507.405 -154.742 496.167 -161.573 485.448C-166.389 477.883 -172.023 471.721 -179.757 466.744C-191.411 459.236 -200.972 448.797 -209.399 437.987C-217.281 427.878 -226.142 423.279 -238.523 424.842C-244.795 425.634 -251.115 426.265 -257.309 427.471C-268.858 429.714 -276.774 437.377 -283.613 446.301C-286.664 450.283 -289.807 454.258 -293.902 457.034C-299.592 460.883 -301.664 466.19 -301.594 472.598C-301.482 483.12 -303.134 481.108 -311.631 485.013C-312.387 485.357 -313.402 485.693 -313.752 484.719C-313.927 484.221 -313.297 482.882 -312.87 482.798C-302.343 480.786 -304.653 472.352 -304.093 465.363C-303.757 461.206 -305.185 458.591 -309.678 457.665C-313.458 456.887 -317.034 455.191 -320.03 452.639C-323.964 449.288 -327.148 450.767 -330.032 454.034C-332.769 457.139 -335.239 460.49 -338.032 463.547C-344.87 471.041 -353.137 470.277 -358.253 461.451C-360.878 456.929 -362.922 452.036 -364.867 447.171C-366.463 443.189 -368.612 442.27 -373.057 442.775C-381.729 443.77 -389.288 447.142 -396.693 451.293C-394.026 446.028 -389.708 443.097 -383.94 442.158C-380.441 441.59 -376.906 441.142 -373.477 440.279C-369.368 439.242 -368.899 436.879 -371.951 433.886C-375.947 429.953 -382.219 428.999 -387.881 431.355C-394.677 434.173 -401.495 436.935 -408.298 439.725ZM-132.652 266.741C-132.652 267.618 -132.365 268.824 -132.701 269.812C-134.122 274.025 -133.058 275.126 -128.957 273.191C-128.39 272.925 -126.976 273.24 -126.745 273.696C-125.975 275.203 -127.676 275.147 -128.369 275.764C-140.764 286.77 -137.965 302.453 -122.559 308.342C-109.743 313.242 -109.751 313.242 -104.9 300.217C-101.428 290.9 -99.8395 280.776 -94.5831 272.266C-87.8498 261.371 -85.722 250.982 -92.1683 238.938C-95.899 231.969 -97.1448 223.529 -102.597 217.465C-108.372 211.05 -113.257 204.075 -117.793 196.805C-120.158 193.012 -123.154 190.783 -127.802 190.537C-133.541 190.236 -138.154 187.242 -142.563 183.709C-144.859 181.872 -145.776 176.895 -148.52 177.967C-151.452 179.11 -150.437 183.905 -151.298 187.06C-151.809 188.939 -152.299 190.783 -151.893 192.767C-148.289 210.454 -150.941 228.114 -153.895 245.387C-157.052 263.86 -159.788 282.431 -163.512 300.812C-164.268 304.549 -163.855 308.524 -164.009 312.387C-164.156 316.011 -162.903 317.427 -159.046 316.271C-154.784 314.995 -150.752 313.27 -146.77 311.342C-144.551 310.27 -141.576 309.912 -140.155 308.215C-138.021 305.657 -142.171 304.241 -142.5 301.899C-142.731 300.273 -143.445 298.492 -143.032 297.034C-140.617 288.509 -140.645 279.529 -138.175 271.06C-136.166 264.183 -135.809 257.445 -138.322 250.743C-139.826 246.74 -140.092 242.674 -139.847 238.503C-139.791 237.536 -139.966 236.19 -138.497 236.183C-138.196 236.183 -137.65 237.515 -137.629 238.251C-137.51 241.854 -137.363 245.394 -135.683 248.745C-132.883 254.347 -132.015 260.32 -132.652 266.741ZM-321.556 334.33C-319.344 334.33 -317.132 334.435 -314.935 334.309C-309.139 333.972 -308.901 333.46 -311.274 327.971C-314.228 321.136 -317.3 314.364 -319.694 307.269C-323.831 295.001 -328.212 283.118 -338.487 273.878C-343.38 269.475 -348.118 265.928 -354.152 263.86C-368.01 259.121 -382.436 256.681 -396.679 253.513C-401.306 252.482 -405.897 252.012 -410.608 252.047C-414.758 252.075 -415.787 253.611 -413.162 256.899C-406.59 265.122 -404.189 275.14 -400.963 284.814C-399.395 289.533 -397.547 294.173 -396.287 298.976C-394.95 304.058 -392.102 306.407 -386.81 306.147C-379.678 305.804 -373.687 308.797 -369.445 314.223C-357.147 329.948 -339.733 332.949 -321.556 334.33ZM-164.24 358.81C-163.484 370.707 -165.458 382.134 -162.035 393.218C-161.146 396.092 -160.796 401.154 -158.899 401.224C-156.177 401.322 -156.331 396.59 -154.959 394.073C-154.308 392.874 -154.028 391.472 -153.426 390.238C-153.097 389.558 -152.32 388.472 -151.963 388.549C-151.067 388.745 -151.074 389.818 -151.235 390.61C-152.019 394.388 -152.712 398.195 -153.713 401.918C-157.738 416.934 -152.509 428.41 -138.497 435.07C-129.775 439.214 -124.736 436.332 -122.02 427.135C-117.233 410.905 -123.014 395.475 -124.687 379.751C-125.856 368.821 -128.712 357.871 -124.071 347.187C-122.293 343.1 -120.921 338.985 -119.941 334.673C-117.786 325.223 -119.123 323.113 -128.39 320.743C-132.414 319.713 -136.089 320.694 -139.665 322.152C-145.545 324.55 -151.389 327.151 -157.633 328.322C-162.826 329.296 -164.345 332.297 -164.268 337.071C-164.149 344.523 -164.24 351.982 -164.24 358.81ZM-347.95 426.469C-354.145 425.585 -359.625 427.499 -363.58 432.939C-365.021 434.923 -366.463 437.068 -365.119 439.788C-361.571 446.96 -358.442 454.377 -354.396 461.248C-351.079 466.891 -345.913 467.059 -341.364 462.306C-338.711 459.523 -336.597 456.228 -333.966 453.424C-326.539 445.495 -325.944 445.467 -316.614 450.718C-305.499 456.978 -295.743 455.247 -288.197 445.264C-285.517 441.716 -282.535 438.52 -279.532 435.295C-278.37 434.047 -275.753 432.897 -277.397 430.717C-278.524 429.224 -280.47 430.668 -282.01 431.053C-298.626 435.197 -315.075 435.954 -331.439 429.546C-336.534 427.562 -341.966 426.181 -347.95 426.469ZM183.331 187.579C182.085 182.826 181.623 177.098 181.574 171.315C181.553 168.566 179.691 167.213 177.213 167.529C169.906 168.475 162.137 167.725 155.382 170.677C146.514 174.553 141.034 182.335 136.841 190.902C135.931 192.76 136.232 194.688 137.604 196.307C139.354 198.375 141.16 196.91 142.819 196.195C145.583 194.996 148.208 193.005 151.302 193.349C154.179 193.664 157.93 190.558 159.575 193.44C161.626 197.015 165.993 197.744 167.526 201.509C168.156 203.051 169.29 204.341 171.313 203.927C175.162 203.135 183.365 192.598 183.331 187.579ZM5.11475 219.554C5.11475 220.661 5.05176 221.769 5.12875 222.877C5.28275 225.015 4.66678 227.945 7.2915 228.569C10.0422 229.221 10.3573 225.968 11.6311 224.335C12.3101 223.466 12.8279 222.477 13.4229 221.545C20.6951 210.174 26.4766 197.835 36.4016 188.217C40.3422 184.403 39.4532 179.117 37.9974 174.098C35.8626 166.751 32.867 165.629 27.2115 170.908C13.171 184.018 7.47351 201.053 5.11475 219.554ZM-110.968 360.976C-109.849 367.23 -108.967 374.086 -107.315 380.746C-106.188 385.268 -102.667 386.34 -100.141 382.975C-96.2839 377.851 -91.5034 373.701 -87.3038 368.961C-86.3659 367.896 -85.617 366.683 -85.827 365.232C-87.4438 354.057 -92.1753 344.775 -102.086 338.697C-103.619 337.758 -105.089 337.036 -105.873 339.552C-107.994 346.395 -110.114 353.244 -110.968 360.976ZM-160.971 183.709C-159.494 183.197 -159.053 181.886 -158.501 180.646C-154.112 170.908 -156.8 161.759 -165.794 156.032C-166.921 155.317 -168.293 154.377 -169.587 155.303C-170.805 156.172 -170.833 157.812 -170.455 159.102C-168.314 166.47 -166.081 173.81 -163.764 181.129C-163.372 182.37 -162.672 183.709 -160.971 183.709Z" fill="#C0A084"/>
</g>
<g clip-path="url(#clip2_1_14)">
<path d="M-181.194 -0.483658C-179.115 -6.30527 -175.366 -11.0882 -171.497 -15.7744C-165.621 -22.8763 -158.438 -27.3693 -148.717 -26.3548C-148.45 -26.3306 -148.16 -26.6688 -147.773 -26.9103C-149.249 -29.8332 -150.724 -32.7803 -152.247 -35.7031C-152.9 -36.9351 -153.166 -38.167 -153.094 -39.5439C-152.417 -53.5544 -145.476 -64.7387 -136.891 -75.0774C-133.07 -79.6671 -132.901 -79.498 -134.4 -85.7302C-134.666 -86.8414 -134.811 -88.0734 -134.69 -89.2087C-134.376 -92.3007 -135.803 -93.436 -138.729 -94.2815C-148.934 -97.156 -156.189 -107.084 -156.262 -117.664C-157.592 -118.921 -157.64 -120.201 -157.181 -122.085C-155.899 -127.375 -152.949 -131.965 -151.304 -137.086C-149.756 -141.289 -147.024 -144.671 -144.049 -147.908C-139.43 -151.869 -136.528 -158.392 -129.032 -158.174C-125.404 -159.986 -121.414 -160.735 -117.52 -161.242C-98.8269 -163.682 -80.1576 -166.677 -61.2706 -167.136C-54.8379 -167.281 -49.7352 -168.102 -49.1064 -176.243C-48.913 -178.997 -46.5673 -181.605 -45.1163 -184.238C-41.5372 -190.736 -36.1444 -195.833 -31.6705 -201.655C-27.1483 -207.549 -21.1992 -208.805 -14.428 -208.564C-13.7992 -208.564 -13.1221 -208.129 -12.5416 -208.225C1.17017 -210.617 15.0996 -209.771 28.8839 -211.269C35.1473 -211.945 41.5801 -211.68 47.7709 -212.235C58.4598 -213.177 69.1003 -213.419 79.7893 -213.636C85.5206 -213.757 91.1796 -213.54 96.8867 -213.177C106.294 -212.573 115.653 -212.525 125.084 -213.975C130.622 -214.82 136.426 -213.878 142.109 -213.661C195.142 -211.631 248.031 -215.883 301.016 -216.752C306.82 -216.849 312.841 -216.052 318.355 -216.946C328.923 -218.661 339.515 -218.371 349.987 -218.202C363.36 -218.009 376.564 -219.241 389.816 -220.086C412.161 -221.511 434.506 -223.226 456.924 -223.226C465.557 -223.226 474.457 -221.946 482.752 -223.661C492.739 -225.714 502.63 -225.207 512.545 -225.545C528.24 -226.077 543.959 -225.545 559.678 -225.811C583.402 -226.173 607.149 -226.946 630.873 -227.309C649.421 -227.599 667.994 -227.309 686.567 -227.671C728.21 -228.42 769.853 -229.386 811.496 -230.28C820.783 -230.473 830.045 -230.546 839.331 -230.763C846.175 -230.908 853.043 -230.014 859.935 -230.449C874.928 -231.415 889.946 -232.816 904.964 -232.865C925.157 -232.84 945.277 -234.024 965.446 -234C1000.22 -233.952 1034.97 -233.734 1069.75 -233.227C1076.23 -233.13 1082.83 -232.261 1089.14 -232.575C1098.31 -233.034 1107.45 -232.937 1116.54 -232.381C1124.09 -231.898 1131.99 -232.285 1138.91 -227.985C1141.52 -226.367 1144.5 -226.149 1147.59 -226.101C1159.27 -225.908 1170.95 -225.642 1182.61 -224.99C1188.68 -224.652 1194.7 -224.096 1199.71 -219.313C1202.13 -216.994 1205.7 -214.723 1209.5 -214.917C1220.04 -215.472 1229.74 -211.366 1239.85 -209.626C1246.55 -208.467 1252.76 -205.423 1257.14 -199.916C1259.61 -196.824 1262.37 -195.906 1266.21 -195.978C1271.36 -196.099 1276.54 -194.94 1281.64 -195.181C1289.74 -195.544 1297.75 -193.853 1305.87 -194.529C1310.3 -194.891 1314.92 -193.611 1318.62 -191.509C1320.91 -190.205 1319.41 -185.905 1319.87 -182.958C1320.07 -181.799 1320.07 -180.639 1320.16 -179.456C1320.91 -168.175 1315.04 -162.981 1303.79 -164.6C1301.08 -164.986 1297.89 -165.083 1295.54 -163.561C1293.73 -162.377 1295.08 -159.793 1295.11 -157.884C1295.25 -148.874 1289.28 -142.594 1285.19 -135.492C1284.83 -134.864 1283.94 -134.332 1283.21 -134.187C1274.26 -132.424 1265.34 -130.201 1256.3 -129.163C1246.86 -128.1 1237.29 -128.559 1227.81 -129.163C1224.33 -129.404 1221.25 -128.486 1218.09 -127.568C1216.68 -127.158 1215.31 -126.337 1215.43 -125.008C1215.57 -123.269 1217.38 -123.124 1218.86 -122.979C1228.32 -122.109 1237.8 -121.385 1247.23 -120.37C1263.96 -118.558 1280.72 -116.65 1297.09 -112.713C1302.07 -111.529 1305.65 -111.795 1308.17 -116.577C1310.08 -120.177 1314.02 -119.959 1316.51 -118.945C1319.78 -117.616 1324.37 -114.814 1324.83 -112.06C1326.62 -101.311 1326.02 -90.8513 1318.13 -81.6479C1311.26 -73.6281 1304.03 -67.0576 1293.15 -65.6566C1290.37 -65.2943 1287.15 -66.2605 1284.9 -64.2072C1282.05 -61.6225 1285.65 -59.062 1285.56 -56.3082C1285.1 -44.7616 1284.64 -33.3117 1273.54 -24.6638C1284.54 -23.6734 1294.38 -22.6106 1304.23 -22.0067C1307.2 -21.8376 1310.56 -19.3253 1313.27 -22.3448C1316.44 -25.8958 1320.21 -25.6542 1324.25 -24.7605C1333.08 -22.828 1333.71 -21.5477 1335.3 -12.6824C1335.95 -9.08319 1334.67 -5.14577 1336.92 -1.8364C1338.4 -2.02963 1339.61 -1.42574 1340.74 -0.556122C1343.23 -0.459503 1345.07 1.88362 1347.73 1.40051C1349.86 1.1348 1351.84 1.66623 1353.75 2.48753C1358.61 3.47794 1363.89 6.08678 1368.26 5.04807C1374.31 3.59871 1375.35 7.89848 1377.89 10.5556C1379.7 12.4398 1377.6 15.0728 1378.01 17.1261C1379.7 25.315 1379.24 33.4797 1376.56 41.1613C1374.72 46.4273 1373.66 52.3697 1368.29 56.0897C1361.61 60.7035 1354.5 61.4524 1346.84 60.0755C1339.34 58.7227 1331.79 57.4666 1324.35 55.8723C1321.88 55.3409 1321.35 55.8723 1320.79 58.2638C1318.93 66.2594 1316.54 74.1584 1314.6 82.1541C1312.79 89.6183 1308.92 90.0048 1303.6 87.2993C1298.93 84.932 1294.26 84.0624 1289.35 83.4102C1280.31 82.2024 1271.36 80.0284 1262.34 79.2071C1253.35 78.3857 1244.49 77.3712 1235.93 74.6415C1231.1 73.0956 1227.54 73.7236 1224.04 77.6852C1216.2 86.5263 1205.46 89.2076 1194.27 90.5845C1193.59 90.7053 1192.91 90.8503 1192.23 90.971C1191.82 91.1401 1191.39 91.1884 1190.95 91.1643C1187.47 91.2851 1183.36 88.1447 1183.31 84.8837C1183.31 83.5793 1185.2 81.985 1183.04 81.0188C1181.57 80.3665 1180.75 81.9367 1179.66 82.6372C1178.98 83.072 1178.18 83.6276 1177.43 83.6034C1173.81 83.4826 1173.73 85.3427 1174.65 88.0482C1175.74 91.2851 1175.04 93.3383 1171.03 92.7344C1164.67 92.0339 1158.33 93.7731 1151.97 92.7344C1146.48 92.5895 1140.94 92.9035 1135.53 92.1547C1132.31 91.6957 1128.44 92.662 1125.9 90.1981C1122.9 87.2993 1119.2 86.9853 1116.15 88.0964C1109.38 90.5604 1103.6 89.2801 1097.05 86.8162C1088.03 83.4102 1078.16 86.4297 1068.63 85.2943C1059.25 84.1832 1049.72 84.4731 1040.24 84.0383C1024.48 83.3136 1008.68 82.5164 992.918 81.7193C980.995 81.1154 969.049 80.4873 957.127 79.8593C949.63 79.7385 942.133 79.5211 934.636 79.4728C924.48 79.4245 914.323 79.5452 904.142 79.5694C900.127 78.6273 897.926 83.6759 893.888 82.6613C891.977 84.7871 889.535 85.1011 886.899 84.7146C884.239 84.7629 881.579 84.7871 878.919 84.8354C873.647 84.8354 868.375 84.8354 863.079 84.8596C862.619 85.0045 862.184 85.1011 861.724 85.1253C857.13 85.9224 852.559 85.2944 847.964 84.8596C847.481 84.9079 846.997 84.9562 846.538 85.0045C846.151 85.1253 845.739 85.1494 845.304 85.1253C834.76 86.1157 824.192 85.4634 813.624 85.6808C804.217 86.1881 794.858 85.4393 785.524 84.7146C783.734 84.9562 781.799 85.7533 780.155 85.3427C770.82 83.0479 761.655 86.4055 752.393 85.8016C746.081 85.8016 739.793 85.8016 733.482 85.8016C723.953 87.5892 723.47 87.251 722.382 78.2891C722.188 76.6465 722.382 74.859 720.036 74.5208C715.925 73.941 711.838 73.168 707.702 72.7574C706.904 72.6849 705.937 72.6366 705.042 72.7332C704.389 72.9023 703.761 73.0956 703.108 73.3613C702.866 73.5304 702.648 73.7478 702.527 74.0135C699.504 80.439 693.555 79.8834 688.114 80.7047C682.117 83.2411 676.506 81.1154 674.451 75.2696C673.919 73.7719 673.096 72.7574 672.032 71.767C670.049 71.767 668.042 71.767 666.059 71.767C658.562 74.2309 650.824 71.9119 643.255 72.9023C644.609 77.9268 643.061 79.9559 637.693 80.0767C636.798 80.0767 635.903 80.0042 635.637 80.9463C635.516 81.4052 635.951 82.1541 636.338 82.6131C637.451 83.99 639.675 85.0528 638.587 87.1544C637.354 89.4734 634.936 89.0144 632.759 88.6279C617.427 88.8211 602.095 89.4734 586.787 88.9661C580.306 88.7487 573.825 89.1352 567.32 88.8453C556.462 88.338 545.555 88.6279 534.648 88.5796C531.287 89.0144 527.901 89.1352 524.54 88.5796C521.445 89.0385 519.22 88.3864 519.51 84.5697C519.631 82.9754 519.195 81.5985 517.914 80.6323C515.084 78.4341 514.891 75.7527 516.342 72.7332C516.003 72.4434 515.665 72.1293 515.326 71.8394C513.005 72.2501 510.756 69.9312 508.386 71.5979C506.765 72.9265 505.314 74.3275 503.96 76.0184C501.3 79.4003 498.591 83.8691 492.981 80.1733C492.425 79.8109 491.167 79.8109 490.635 80.1733C486.113 83.3619 480.478 79.352 475.98 82.5164C475.714 82.7097 474.94 82.444 474.578 82.1541C472.595 80.4873 470.95 80.9704 468.725 82.1058C465.098 83.9416 459.971 81.5019 460.431 77.9751C461.156 72.3467 457.867 73.7236 454.941 73.7236C453.635 73.7236 452.305 73.5787 450.975 73.4821C443.986 73.3371 437.021 74.0135 430.081 74.7382C428.533 77.7094 426.526 81.985 423.43 81.2361C418.86 80.1491 414.072 80.0767 409.743 78.5065C407.736 77.7818 406.261 76.3808 403.915 77.4195C402.73 77.9268 401.351 77.7336 400.07 77.0572C392.984 73.3372 387.64 74.3517 382.44 80.3907C381.739 81.212 380.917 81.6468 379.853 81.5985C378.74 81.6709 377.555 81.9125 376.854 80.6564C371.824 79.9317 366.77 79.8834 361.691 79.8109C359.055 79.7626 356.129 80.0767 353.566 78.7722C346.335 78.265 339.032 78.1684 331.873 77.1779C323.845 76.0668 316.396 79.3278 308.634 79.5211C296.663 79.8109 284.765 81.1878 272.698 80.9946C255.963 80.7047 239.18 84.1107 222.542 79.6902C222.107 79.5694 221.502 79.6902 221.091 79.9076C217.27 81.985 212.917 81.3328 208.878 82.299C202.349 83.8933 195.65 81.3811 189.073 83.6034C177.344 87.5892 170.766 81.8159 167.017 73.7961C166.05 71.7187 164.865 71.453 162.906 71.1148C158.07 70.2451 152.919 71.9361 148.493 70.6075C139.691 67.9745 130.743 68.6509 121.892 67.6122C121.118 67.8054 119.643 68.0711 119.643 68.1919C120.247 74.7623 115.048 72.7091 111.808 73.5062C107.745 73.2888 103.803 74.1826 99.8369 74.7382C97.9749 75.7044 95.9193 75.5595 93.9363 75.6078C88.9546 75.7286 83.9487 75.3179 79.0154 75.8252C71.6395 76.5982 64.2638 77.492 56.8396 77.7819C50.4794 79.0138 44.1193 80.0525 37.614 79.6902C34.8572 81.6227 31.665 80.3424 28.7389 80.8738C20.8794 83.4344 12.4153 80.7772 4.53162 83.5551C3.95117 83.7484 3.05627 83.0237 2.30664 82.7338C1.33936 82.6855 0.37207 82.6372 -0.595215 82.5889C-10.5344 82.7821 -20.5463 82.7338 -29.6392 87.7341C-33.5809 89.3043 -37.6921 88.7487 -41.7549 88.6521C-43.7863 89.0386 -44.826 86.0915 -47.6313 87.6617C-51.9843 90.0773 -55.3215 87.9757 -56.7484 82.9029C-57.0627 81.7434 -57.9091 79.9076 -58.6345 81.4294C-60.8352 85.9466 -67.0988 84.9803 -68.84 89.6666C-71.1857 89.6666 -73.5314 89.6666 -75.8771 89.6666C-77.2798 90.7053 -78.6582 90.8744 -80.4962 90.6087C-85.6714 89.8599 -89.9758 86.792 -94.9576 85.6084C-98.7544 84.2073 -100.471 81.0187 -101.971 77.6128C-103.615 73.9169 -105.235 70.221 -106.88 66.5251C-108.597 65.9937 -108.427 64.0854 -109.395 63.0225C-111.039 61.235 -112.515 57.9739 -115.078 58.8435C-122.671 61.4524 -124.896 55.8482 -128.234 51.3793C-130.096 48.8912 -130.821 44.3258 -135.9 46.1616C-136.988 46.5481 -137.23 44.9297 -137.858 44.205C-139.817 41.9343 -139.043 39.1805 -139.164 36.5717C-143.275 36.7408 -147.411 36.8857 -151.522 37.0548C-161.727 37.5138 -170.385 34.1078 -177.47 26.7402C-180.372 24.3004 -181.944 21.1601 -182.283 17.416C-184.483 15.3627 -183.323 12.8022 -183.347 10.4349C-184.653 6.40082 -184.338 2.68079 -181.243 -0.531967L-181.194 -0.483658ZM373.202 78.7964C373.057 78.6515 372.96 78.5307 372.815 78.3858C372.743 78.5548 372.622 78.6756 372.477 78.7964H373.178H373.202ZM19.5251 78.5065C19.5251 78.5065 19.525 78.5307 19.5009 78.5548C19.525 78.5548 19.5492 78.5548 19.5734 78.579C19.5734 78.5548 19.5493 78.5307 19.5251 78.5065ZM-147.822 -136.023C-148.209 -135.782 -148.523 -135.443 -148.765 -135.009C-148.475 -135.347 -148.16 -135.685 -147.822 -136.023Z" fill="#B5C273"/>
</g>
</g>
<path d="M17.6121 46.1566C17.2582 46.3698 16.9137 46.6007 16.5486 46.7928C15.639 47.2731 14.7226 47.7407 13.8044 48.2066C12.658 48.788 11.7142 49.5085 11.8348 51.0471C10.7072 49.9719 9.98478 48.7796 9.60007 47.3809C9.11706 45.6207 9.86082 44.3307 11.1936 43.2572C11.2825 43.1856 11.4424 43.1384 11.4261 43.0196C11.4073 42.8822 11.2363 42.8806 11.1209 42.8334C10.5045 42.5823 9.88304 42.3404 9.39404 41.8652C9.05038 41.5315 8.83067 41.1313 8.66311 40.6906C8.54086 40.3696 8.59558 40.2221 8.976 40.2078C9.4727 40.1884 9.95229 40.0578 10.4293 39.918C12.1801 39.4057 13.1111 38.221 13.3684 36.4768C13.5967 34.9306 13.5967 33.3709 13.6001 31.8146C13.6087 28.3161 14.5661 25.1176 16.5991 22.2334C17.7344 20.6223 18.9022 19.0332 20.2837 17.6227C21.1839 16.7042 21.3557 15.6526 21.1539 14.4856C20.8351 12.6412 19.899 11.0605 18.8739 9.5286C17.8079 7.93439 16.5409 6.51966 14.9406 5.41922C14.7662 5.29957 14.7482 5.18414 14.82 4.99708C15.3526 3.62616 15.8835 2.25524 16.3956 0.876744C16.5042 0.583518 16.6521 0.585203 16.9008 0.67789C18.7602 1.36798 20.0383 2.64621 20.7778 4.44096C21.2984 5.70486 21.6361 7.03534 22.1815 8.29166C22.7278 9.54967 23.3211 10.7816 24.1845 11.866C24.5085 12.2721 24.8676 12.6488 25.2933 12.9529C26.4449 13.7762 27.6075 13.8495 28.7403 13.0035C30.0448 12.0295 31.5033 11.8508 33.048 11.93C36.7848 12.1221 40.183 13.3717 43.423 15.137C44.6344 15.7967 45.8099 16.5264 47.0914 17.0564C47.3658 17.1702 47.6573 17.2671 47.9497 17.3134C48.9268 17.4676 49.5355 17.1643 50.0228 16.2998C50.3365 15.7436 50.5101 15.1361 50.6503 14.5193C50.6725 14.4224 50.6734 14.2868 50.7794 14.2573C50.8888 14.227 50.9597 14.3449 51.0256 14.4191C52.0284 15.5305 52.2395 16.834 51.9711 18.2496C51.8959 18.6439 51.7531 19.018 51.5804 19.3812C51.4137 19.7308 51.4829 19.8648 51.8762 19.9305C52.3575 20.0106 52.8115 19.9188 53.2355 19.6778C53.7288 19.3972 54.1451 19.0298 54.517 18.6093C54.6187 18.4939 54.7204 18.3785 54.8435 18.2386C54.9598 18.4147 54.9333 18.5883 54.9521 18.7442C55.041 19.4924 55.0111 20.2398 54.8341 20.9712C54.446 22.5755 53.3227 23.5748 51.6667 23.8394C50.8298 23.9725 49.9989 23.9346 49.1696 23.7939C48.6131 23.6995 48.5832 23.7315 48.6071 24.302C48.6456 25.2238 49.1764 25.8473 49.8672 26.3832C49.9732 26.4658 50.1835 26.5104 50.1425 26.6655C50.1091 26.7927 49.9082 26.8096 49.7749 26.8517C48.437 27.2772 47.0657 27.3665 45.6697 27.2612C43.1486 27.0699 40.713 26.5366 38.3843 25.5558C37.7483 25.2878 37.1319 24.9845 36.5941 24.4646C36.4941 24.8025 36.6395 25.0418 36.7634 25.2625C37.0789 25.8262 37.42 26.3756 37.7534 26.9292C38.622 28.3734 39.0879 29.9104 38.9135 31.609C38.8357 32.3708 38.1817 33.8428 37.579 34.4579C37.5183 33.9734 37.4841 33.5209 37.3943 33.076C36.9019 30.6375 35.2742 29.2278 33.0327 28.3701C32.8805 28.3119 32.6796 28.2319 32.565 28.3979C32.4659 28.542 32.5958 28.6953 32.6881 28.8167C32.8514 29.0332 33.0181 29.2514 33.2062 29.4469C34.2193 30.501 34.4509 31.7337 34.0534 33.0979C33.6602 34.4469 32.9053 35.6316 32.241 36.8559C31.7674 37.7306 31.2716 38.5942 30.7578 39.4461C30.0764 40.5743 29.5062 41.7321 29.5678 43.1569C28.3359 42.4525 27.5066 41.5299 27.1655 40.2213C26.9672 39.4621 26.9629 38.6945 27.0587 37.9201C27.0792 37.7516 27.1972 37.4854 27.0399 37.4255C26.8501 37.3531 26.7372 37.6193 26.6261 37.7659C26.3354 38.1485 26.1166 38.5757 25.8926 38.9978C25.354 40.014 24.8505 41.0487 24.2264 42.0186C23.7759 42.7179 23.2749 43.3768 22.6235 43.9094C22.2166 44.2422 21.7678 44.495 21.236 44.5868C21.0539 44.618 21.0026 44.5759 21.024 44.3939C21.0719 43.9945 21.2129 43.6187 21.313 43.2336C21.4113 42.8553 21.4634 42.4761 21.4395 42.0868C21.4352 42.0135 21.4608 41.9208 21.3779 41.8779C21.283 41.829 21.2369 41.9175 21.1907 41.9739C20.3615 42.9867 19.5365 44.0029 18.7038 45.0132C18.5465 45.2036 18.6893 45.319 18.7833 45.4488C19.4313 46.3394 20.1118 47.2065 20.8564 48.0204C21.8797 49.1403 22.803 50.3494 23.9101 51.3942C25.8482 53.2227 27.982 54.7815 30.3996 55.9502C31.3673 56.4178 32.3838 56.7414 33.4268 56.9874C34.6322 57.2714 35.7948 57.7256 37.0353 57.8629C37.7491 57.9421 38.4638 58.0104 39.2204 58.0879C38.8006 58.253 38.3851 58.2825 37.9748 58.3272C36.2043 58.5193 34.4518 58.355 32.7035 58.071C32.2419 57.996 31.7726 57.8991 31.3007 57.9699C30.391 58.1056 29.855 58.6853 29.5114 59.4773C29.2737 60.0242 29.1574 60.6073 29.0044 61.1785C28.8864 61.6184 28.8044 61.6479 28.4205 61.3926C27.1681 60.5575 26.0106 59.6197 25.1121 58.4038C24.2632 57.2545 23.846 55.9637 23.799 54.5498C23.7887 54.254 23.7887 53.9583 23.7323 53.6642C23.6682 53.3347 23.4861 53.2665 23.1946 53.3937C22.6244 53.644 22.1978 54.0476 21.8934 54.5801C21.4728 55.3165 21.3189 56.1238 21.2599 56.9529C21.1933 57.8932 21.2352 58.8336 21.2924 59.7731C21.3087 60.0385 21.3164 60.3048 21.3283 60.5702C21.1599 60.5929 21.1155 60.48 21.0514 60.4101C19.5921 58.8117 18.7902 56.936 18.6226 54.795C18.5858 54.3307 18.5927 54.3518 18.1422 54.4621C16.611 54.8379 15.2193 54.5363 13.9797 53.574C13.8275 53.4561 13.6959 53.3061 13.577 53.1536C13.4445 52.9834 13.2359 52.771 13.3342 52.5857C13.4043 52.4542 13.6916 52.5857 13.8797 52.6067C14.726 52.7028 15.4048 52.3438 15.7553 51.5872C16.0101 51.0361 16.1973 50.4606 16.3751 49.8817C16.7572 48.6431 17.0693 47.3809 17.6874 46.2215C17.6626 46.2004 17.6378 46.1793 17.613 46.1583L17.6121 46.1566Z" fill="white"/>
<path d="M60.8654 49.0804C59.7147 48.6886 58.6597 48.2689 57.5484 48.0246C57.2688 47.9631 56.9841 47.9024 56.6995 47.8931C56.1805 47.8754 55.9651 48.1392 56.1104 48.6279C56.2421 49.0711 56.4285 49.4983 56.5935 49.9314C56.8739 50.6687 57.1261 51.4093 57.1064 52.214C57.0876 53.0254 56.7901 53.713 56.237 54.3079C56.0429 54.5169 55.9617 54.4629 55.8677 54.2278C55.7531 53.9414 55.6249 53.6566 55.4667 53.3911C54.9521 52.5275 54.1126 52.3143 53.2218 52.8005C52.278 53.3153 51.4701 54.0155 50.6049 54.6373C49.4543 55.4648 48.3429 56.3672 47.0041 56.8854C45.3268 57.5351 43.6307 58.1552 41.779 58.0836C41.532 58.0743 41.2849 58.0423 41.031 57.9926C42.186 57.8898 43.2597 57.5258 44.3164 57.0826C45.1952 56.7135 46.0432 56.3074 46.8554 55.8001C48.0668 55.0443 49.2089 54.2051 50.1912 53.1872C51.412 51.9233 52.4276 50.5145 53.15 48.895C54.0758 46.8205 54.5588 44.65 54.8768 42.4221C55.129 40.6543 55.2521 38.8882 55.0888 37.1103C54.8358 34.3424 54.1168 31.6941 52.9371 29.168C52.4173 28.0549 51.8574 26.9645 51.0657 26.0082C51.0341 25.9703 51.0161 25.9222 50.9785 25.8557C51.1538 25.8194 51.276 25.9012 51.4008 25.9492C52.8969 26.5171 53.9826 27.5813 54.9316 28.8031C55.5274 29.5699 56.0814 30.3687 56.6926 31.1228C57.2013 31.7505 57.7826 32.2999 58.629 32.4903C59.4454 32.674 60.178 32.4524 60.9004 32.1162C61.0449 32.0488 61.1988 31.8677 61.3595 31.9949C61.539 32.1364 61.5031 32.3631 61.4561 32.5712C61.0115 34.5244 59.7104 35.6754 57.8476 36.2846C57.1996 36.4969 57.2039 36.4666 57.6792 36.9587C58.8093 38.1274 59.6788 39.4401 59.9036 41.0824C60.0353 42.0438 59.9079 42.99 59.6283 43.9093C59.4257 44.5775 59.442 45.2271 59.6121 45.8903C59.86 46.8576 60.2866 47.7558 60.7055 48.6574C60.7585 48.772 60.7944 48.8942 60.8628 49.0795L60.8654 49.0804Z" fill="white"/>
<path d="M60.119 7.79111C60.0839 8.61939 59.8514 9.32549 59.7685 10.0543C59.7548 10.1757 59.6642 10.3223 59.8095 10.4074C59.9608 10.4959 60.042 10.3442 60.1335 10.2616C60.4609 9.96671 60.7798 9.66084 61.1115 9.37099C61.4996 9.03142 61.9459 9.02468 62.3135 9.33729C62.7366 9.69708 62.7888 10.051 62.4939 10.5287C62.2494 10.9239 61.8809 11.2003 61.5133 11.4623C60.873 11.9182 60.319 12.4583 59.7933 13.0329C59.6266 13.2149 59.4539 13.3902 59.2359 13.5149C58.5331 13.9168 57.786 13.541 57.6971 12.7363C57.6441 12.2552 57.7424 11.7876 57.8458 11.3216C57.9467 10.8691 58.0535 10.4175 58.0809 9.95323C58.0877 9.83189 58.1502 9.67685 57.9869 9.6145C57.8492 9.56226 57.7834 9.69623 57.7047 9.77628C57.3859 10.0982 57.0815 10.4369 56.7122 10.7065C56.4139 10.9256 56.0873 11.0427 55.7223 10.8978C55.1529 10.6711 54.9896 10.1597 55.3111 9.63388C55.5367 9.26398 55.8513 8.9657 56.1976 8.71544C56.8875 8.21578 57.4508 7.59141 58.0493 6.9999C58.2049 6.8457 58.3681 6.68982 58.5545 6.57607C59.2376 6.15983 59.907 6.45389 60.0566 7.23078C60.0976 7.4448 60.1044 7.66472 60.1173 7.79195L60.119 7.79111Z" fill="white"/>
<path d="M72.0422 32.5898C72.044 33.2159 72.0269 33.7467 71.9166 34.2632C71.5849 35.8187 69.9631 36.7556 68.3312 36.3731C67.2873 36.1279 66.7299 35.4108 66.394 34.4815C66.1076 33.6902 65.97 32.8628 65.8545 32.0337C65.7648 31.3891 66.0229 31.0209 66.6804 30.8347C67.3497 30.6451 68.0448 30.6097 68.7338 30.5591C69.192 30.5254 69.64 30.4504 70.0863 30.346C70.2889 30.2979 70.4949 30.2507 70.7018 30.2347C71.3207 30.1867 71.6926 30.4538 71.8559 31.0462C72.0046 31.5837 72.0619 32.1323 72.0422 32.5907V32.5898ZM69.8281 32.1786C69.2844 32.246 68.7321 32.2764 68.1986 32.391C67.5002 32.5418 67.2489 33.2058 67.6284 33.8032C67.8037 34.0778 68.026 34.3104 68.3158 34.4781C68.8851 34.8067 69.6605 34.7165 70.1649 34.254C70.6488 33.8107 70.7471 33.1704 70.4479 32.5536C70.3179 32.2856 70.1299 32.155 69.8281 32.1786Z" fill="white"/>
<path d="M65.4005 54.7149C63.6745 54.7107 62.2579 53.2875 62.2614 51.5627C62.2648 49.9457 63.7728 48.6338 65.6177 48.6414C67.3309 48.6481 68.6688 50.0401 68.6688 51.8172C68.6688 53.4459 67.2334 54.7199 65.4014 54.7157L65.4005 54.7149ZM64.0182 51.8113C63.9831 52.9294 64.9474 53.6001 65.9741 53.1552C66.5623 52.8999 66.8102 52.3935 66.853 51.7927C66.8949 51.2096 66.7316 50.6914 66.2263 50.3317C66.0143 50.1808 65.763 50.1657 65.5108 50.1893C64.6747 50.2685 64.0447 50.9543 64.0182 51.8113Z" fill="white"/>
<path d="M67.2207 40.0384C67.9004 40.062 68.4107 40.1758 68.9057 40.3443C69.711 40.6182 70.5334 40.817 71.3721 40.9645C72.0543 41.0841 72.2065 41.2863 72.091 41.9453C71.9072 42.9918 71.6234 44.013 70.9378 44.8657C70.0376 45.9847 68.8177 46.0437 67.8089 45.0064C67.4661 44.6542 67.1087 44.5051 66.6214 44.607C66.2889 44.677 65.9461 44.6744 65.6084 44.5986C65.3494 44.5405 65.2553 44.388 65.3502 44.1428C65.4827 43.8032 65.6417 43.483 65.9957 43.3027C66.3325 43.1316 66.665 42.9513 66.9942 42.766C67.2395 42.6278 67.461 42.4626 67.4379 42.1399C67.4139 41.818 67.2045 41.6377 66.9258 41.5147C66.7351 41.4304 66.5419 41.3512 66.3547 41.2594C66.0906 41.1305 66.0495 40.9358 66.1837 40.683C66.4368 40.2053 66.8275 39.9887 67.2216 40.0393L67.2207 40.0384ZM68.9681 43.0162C68.9604 43.5597 69.1177 43.7779 69.5204 43.8167C69.8615 43.8487 70.1197 43.6667 70.2453 43.3895C70.3941 43.0609 70.5745 42.7095 70.3932 42.3278C70.3684 42.2747 70.306 42.2225 70.2487 42.2031C69.558 41.9587 69.0946 41.8728 68.9895 42.7719C68.9775 42.8738 68.9724 42.9766 68.969 43.0171L68.9681 43.0162Z" fill="white"/>
<path d="M44.2223 40.7276C43.8582 39.1756 43.6821 37.6496 44.1275 36.1245C44.5327 34.7384 45.5568 33.975 46.9024 33.6076C48.5139 33.1669 49.9963 33.6135 51.4146 34.3643C51.4812 34.3997 51.5753 34.4241 51.571 34.5143C51.5667 34.6086 51.465 34.6162 51.3966 34.6457C50.5118 35.0274 49.6543 35.4614 48.7969 35.8987C47.2529 36.6857 46.1117 37.8712 45.1824 39.2859C44.8652 39.7688 44.5421 40.2473 44.2215 40.7276H44.2223Z" fill="white"/>
<path d="M40.9703 6.17838C40.3625 6.15142 39.8145 6.16575 39.2699 6.05958C38.7835 5.96436 38.5176 5.6922 38.3954 5.2372C38.1988 4.50582 38.3219 3.77528 38.4116 3.05064C38.4783 2.51053 38.498 1.97379 38.4894 1.43284C38.4732 0.432669 38.9032 -0.0155959 39.9291 0.00041359C40.7763 0.0138953 41.6175 0.147026 42.4698 0.134387C42.9118 0.127646 43.1058 0.396437 43.1229 0.883462C43.1349 1.22135 42.9785 1.35953 42.5066 1.42273C41.8851 1.5053 41.2636 1.58367 40.6429 1.6713C40.507 1.69068 40.3292 1.69152 40.3121 1.87858C40.2967 2.053 40.4625 2.09765 40.5839 2.17012C41.0062 2.42374 41.4627 2.35128 41.9201 2.32431C42.4219 2.29398 42.7134 2.52991 42.734 2.94953C42.7502 3.2891 42.3852 3.65731 41.9372 3.72725C41.4602 3.8014 40.9789 3.85027 40.501 3.91852C40.3668 3.9379 40.1813 3.92442 40.1642 4.11401C40.1479 4.29011 40.3146 4.33392 40.4437 4.39291C40.8173 4.56059 41.214 4.62799 41.6209 4.6617C41.9842 4.69203 42.3535 4.69287 42.704 4.81337C42.9622 4.90184 43.258 4.95577 43.2777 5.30376C43.2931 5.56665 42.9673 5.9492 42.6622 6.02503C42.0868 6.16827 41.4969 6.16153 40.9703 6.17923V6.17838Z" fill="white"/>
<path d="M50.0578 8.55628C49.0354 8.39029 48.0377 7.81226 47.2897 6.83232C47.1161 6.60481 47.0811 6.32928 47.3179 6.09082C47.5667 5.83889 47.8599 5.75968 48.1677 5.95348C48.6182 6.23744 49.0499 6.55004 49.4919 6.84748C49.5996 6.91995 49.7099 6.99325 49.8287 7.04381C50.1818 7.19632 50.4365 7.00842 50.3835 6.63262C50.3408 6.32591 50.1587 6.0883 49.9484 5.87175C49.668 5.58358 49.3756 5.30552 49.1055 5.00892C48.4344 4.27333 48.5481 3.38101 49.4081 2.88303C49.7911 2.58138 50.4024 2.39095 50.9016 2.43814C51.5436 2.49965 52.0147 1.91572 52.6661 1.84073C53.1594 1.78428 53.5868 1.98903 53.9869 2.24771C54.0946 2.31764 54.2058 2.41202 54.169 2.562C54.1365 2.69345 54.0091 2.72799 53.8937 2.74737C53.5338 2.80804 53.1705 2.85522 52.8106 2.91673C52.6781 2.93948 52.4883 2.89567 52.449 3.07683C52.4131 3.24535 52.59 3.30855 52.696 3.39365C52.9388 3.58998 53.1953 3.77029 53.3714 4.03318C53.6005 4.3736 53.5484 4.59773 53.1765 4.88843C52.7294 5.23895 52.6063 5.23811 52.2814 4.93646C51.9574 4.63565 51.5889 4.39045 51.2162 4.15199C51.0367 4.0374 50.8401 3.99443 50.6759 4.15368C50.5032 4.32136 50.5306 4.53032 50.6451 4.72412C50.8195 5.01819 51.0709 5.24401 51.3333 5.45887C51.7052 5.76305 51.9882 6.122 52.0908 6.59892C52.3259 7.69093 51.5009 8.5824 50.0595 8.55713L50.0578 8.55628Z" fill="white"/>
<path d="M49.827 44.4116C49.0533 46.835 47.9326 49.0367 45.7192 50.5205C44.6113 51.2628 43.3341 51.5148 42.0389 51.5771C39.7119 51.6892 37.4918 51.246 35.4486 50.0899C35.3272 50.0208 35.2135 49.9391 35.0066 49.8051C35.5922 49.8953 36.0709 49.9762 36.5522 50.0419C38.9861 50.3747 41.3678 50.1683 43.7 49.3906C45.1225 48.9162 46.2758 48.0449 47.3547 47.0566C48.2463 46.2401 49.0268 45.3225 49.827 44.4125V44.4116Z" fill="white"/>
<path d="M62.2973 58.9895C62.2392 59.9021 61.6151 60.7775 60.8534 61.5789C60.6311 61.8123 60.384 62.028 60.0746 62.156C59.7976 62.2698 59.524 62.3043 59.2393 62.1805C58.6503 61.9252 58.552 61.4988 58.9854 61.0269C59.3958 60.5804 59.9429 60.2602 60.2455 59.7116C60.302 59.6097 60.3669 59.5119 60.4157 59.4075C60.8397 58.489 60.5046 57.7678 59.5172 57.5032C58.9205 57.3431 58.3716 57.4602 57.9083 57.8697C57.5236 58.2093 57.5424 58.6407 57.9339 58.9626C58.5956 59.506 58.5648 60.0403 57.8536 60.5197C57.6544 60.6545 57.4783 60.6655 57.2825 60.5155C56.8875 60.213 56.5276 59.8759 56.2455 59.4681C55.8044 58.8303 55.8471 58.1848 56.2481 57.5453C57.2808 55.9014 59.3513 55.4127 61.0038 56.4533C61.8391 56.9791 62.2947 57.7484 62.2981 58.9887L62.2973 58.9895Z" fill="white"/>
<path d="M28.7521 50.1649C29.1761 48.36 29.6711 46.5762 30.8568 45.1017C31.922 43.7762 33.3181 43.0769 35.086 43.4417C35.9614 43.622 36.6359 44.1529 37.1993 44.8253C37.413 45.0797 37.1907 45.0823 37.0283 45.1278C35.7938 45.469 34.5936 45.8996 33.43 46.4304C32.0126 47.0767 30.9397 48.1561 29.8258 49.1858C29.4753 49.5102 29.1205 49.8295 28.7521 50.1657V50.1649Z" fill="white"/>
<path d="M53.1944 66.0049C53.1944 66.1338 53.203 66.2627 53.1927 66.3908C53.1098 67.5047 52.3344 67.937 51.2974 67.4584C50.6579 67.1635 50.1553 66.6874 49.644 66.2324C49.1465 65.7892 48.613 65.405 48.0437 65.0612C47.7428 64.8792 47.4615 64.6685 47.2444 64.3871C47.0725 64.1646 47.0742 63.9877 47.323 63.8015C47.6539 63.5546 47.983 63.488 48.3839 63.6178C49.6252 64.018 50.3553 63.7079 50.9691 62.5713C51.2196 62.107 51.3906 61.5981 51.7394 61.186C51.8958 61.0015 52.0634 60.8423 52.3378 60.9054C52.6028 60.9661 52.6994 61.1641 52.7764 61.3984C52.8961 61.7615 52.8866 62.1365 52.9055 62.5072C52.9636 63.6776 53.097 64.8404 53.1953 66.0057L53.1944 66.0049ZM51.8941 65.2567C51.883 65.1598 51.8847 65.0013 51.8437 64.8547C51.7667 64.58 51.5675 64.4292 51.2829 64.5168C51.0529 64.5876 50.7853 64.6955 50.7212 64.9466C50.6622 65.1749 50.8426 65.351 51.029 65.4884C51.0914 65.5347 51.1495 65.5878 51.2068 65.64C51.3478 65.769 51.4718 65.9611 51.7026 65.8583C51.9446 65.7496 51.8847 65.5153 51.895 65.2575L51.8941 65.2567Z" fill="white"/>
<path d="M68.4329 17.2375C68.4124 17.9461 67.9876 18.4627 67.5541 18.959C66.8899 19.7181 66.188 20.4462 65.6751 21.3233C65.5391 21.5559 65.3511 21.7581 65.1279 21.9232C64.9031 22.0892 64.7244 22.0951 64.5312 21.8516C64.2645 21.5154 64.1995 21.1826 64.3491 20.7748C64.7561 19.6684 64.4543 18.8932 63.4122 18.3093C63.1625 18.1694 62.9027 18.0473 62.647 17.9183C62.5308 17.8594 62.4051 17.8155 62.2974 17.7456C61.9785 17.5375 61.5306 17.3816 61.6229 16.9038C61.7161 16.421 62.1897 16.4193 62.5675 16.3856C63.36 16.3157 64.1576 16.2972 64.9518 16.239C65.4981 16.1994 66.0418 16.1194 66.5881 16.0756C66.9403 16.0469 67.2934 16.0621 67.6379 16.159C68.2132 16.3208 68.4492 16.6426 68.4338 17.2375H68.4329ZM66.0794 17.3521C65.8965 17.3631 65.7118 17.3521 65.54 17.4271C65.2835 17.5392 65.1698 17.7591 65.2921 17.9891C65.4032 18.1981 65.4442 18.5722 65.8204 18.4896C66.2308 18.3995 66.4291 18.0329 66.6385 17.7203C66.7343 17.5771 66.6069 17.4229 66.4274 17.3816C66.3154 17.3563 66.1957 17.3597 66.0794 17.3504V17.3521Z" fill="white"/>
<path d="M30.108 6.36799C29.4514 6.35114 29.2027 6.17588 28.9513 5.52539C28.6068 4.63644 28.5281 3.69778 28.4367 2.76418C28.382 2.20132 28.358 1.63509 28.323 1.07054C28.3127 0.902022 28.3298 0.740241 28.4161 0.585202C28.7496 -0.013047 29.1992 -0.0425377 29.572 0.530433C30.0456 1.25929 30.3217 2.05555 30.3414 2.92764C30.3499 3.3026 30.3781 3.67419 30.4867 4.03398C30.6705 4.64066 31.0261 4.83867 31.6459 4.67942C31.9109 4.61117 32.1674 4.51005 32.4333 4.44517C32.9779 4.31288 33.2788 4.45191 33.4523 4.89512C33.5729 5.20436 33.4164 5.50348 32.9565 5.74278C32.3598 6.0537 31.7032 6.17588 31.0424 6.26857C30.7329 6.31154 30.42 6.33597 30.1088 6.36884L30.108 6.36799Z" fill="white"/>
<path d="M7.39278 57.434C7.44065 56.8366 7.82706 56.3639 8.45028 56.0833C9.04699 55.8136 9.6155 55.9383 10.0788 56.3698C10.4465 56.7119 10.7525 57.1188 11.0919 57.4913C11.1953 57.6042 11.1791 57.6783 11.068 57.771C10.3413 58.376 9.61721 58.9852 8.89311 59.5936C8.80677 59.666 8.72641 59.7267 8.63408 59.607C8.25708 59.1183 7.7638 58.7156 7.5099 58.1367C7.42697 57.9463 7.38765 57.7449 7.39278 57.434ZM7.92623 57.6311C7.92879 57.9657 8.38531 58.7232 8.6734 58.9018C8.80506 58.9835 8.86746 58.8891 8.94013 58.8302C9.25046 58.5757 9.55395 58.3137 9.86171 58.0567C10.3085 57.6842 10.3273 57.2893 9.91813 56.872C9.57874 56.5248 9.12222 56.4119 8.70675 56.5711C8.25793 56.743 7.92195 57.1989 7.92537 57.632L7.92623 57.6311Z" fill="white"/>
<path d="M3.07207 26.4136C4.02955 26.4119 4.77672 27.1163 4.76988 28.0145C4.76219 28.986 4.02613 29.7553 3.10113 29.7604C2.14622 29.7655 1.40845 29.0636 1.41016 28.1519C1.41101 27.177 2.13938 26.4153 3.07292 26.4136H3.07207ZM4.24242 28.0861C4.25268 27.4508 3.74401 26.9663 3.05668 26.9587C2.44457 26.952 1.95216 27.4357 1.93421 28.0626C1.9154 28.7046 2.41893 29.2009 3.09686 29.2077C3.73461 29.2144 4.23216 28.7282 4.24242 28.0853V28.0861Z" fill="white"/>
<path d="M28.2504 66.5957C28.6436 66.503 28.8881 66.6209 29.0113 66.9723C29.1668 67.4147 29.4096 67.7281 29.9593 67.6826C30.1397 67.6675 30.2226 67.6396 30.2278 67.456C30.2312 67.3287 30.2791 67.2015 30.2773 67.0743C30.2739 66.8383 30.368 66.7684 30.609 66.7869C30.8766 66.808 30.851 66.9639 30.8313 67.1341C30.7279 68.0264 30.6167 68.9187 30.5201 69.8119C30.5005 69.9956 30.409 70.0133 30.2585 69.9939C29.8704 69.9459 29.4814 69.9113 29.0942 69.8599C28.5308 69.7849 28.1341 69.4673 28.0341 69.0257C27.917 68.5109 28.1025 68.0626 28.6086 67.7534C28.789 67.643 28.7625 67.5562 28.6864 67.4164C28.5394 67.1476 28.3983 66.8746 28.2504 66.5948V66.5957ZM29.6157 69.4445C29.9533 69.5473 30.0226 69.351 30.0457 69.0855C30.0653 68.8564 30.0987 68.628 30.1252 68.3988C30.1389 68.2767 30.1397 68.1688 29.9679 68.1545C29.6969 68.1317 29.4284 68.0576 29.154 68.0955C28.7881 68.1452 28.6043 68.3761 28.5787 68.719C28.5547 69.0426 28.7291 69.2574 29.0429 69.3425C29.2292 69.3931 29.425 69.4116 29.6165 69.4437L29.6157 69.4445Z" fill="white"/>
<path d="M3.32086 34.4713C3.42174 34.9069 3.29521 35.1707 2.96523 35.3754C2.66772 35.5599 2.40612 35.7992 2.11631 35.9973C1.93422 36.122 1.96586 36.2037 2.09323 36.357C2.32149 36.6334 2.59334 36.7413 2.94556 36.7084C3.11483 36.6924 3.29607 36.6857 3.267 36.9561C3.24392 37.1744 3.16185 37.2721 2.92162 37.2612C2.03425 37.2207 1.14687 37.1895 0.258634 37.1693C0.045766 37.1643 -0.00552924 37.0825 0.000455004 36.8904C0.00643925 36.6975 0.0722659 36.6132 0.278295 36.6183C0.706596 36.6284 1.1349 36.6216 1.60082 36.6216C1.46916 36.3326 1.22466 36.1759 1.03488 35.9779C0.792943 35.7251 0.547587 35.4732 0.285136 35.2423C0.0380717 35.024 0.051749 34.7898 0.182547 34.4612C0.568959 34.8471 0.930582 35.1976 1.27681 35.5616C1.44266 35.736 1.57175 35.7453 1.76838 35.5945C2.26165 35.217 2.77373 34.8639 3.32 34.4713H3.32086Z" fill="white"/>
<path d="M13.4214 63.2833C13.4923 63.328 13.571 63.3726 13.6454 63.4232C13.9454 63.6288 14.2575 63.8201 14.5387 64.0476C14.7738 64.238 14.8944 64.1209 14.9833 63.9279C15.0662 63.7476 15.4449 63.5942 15.0576 63.344C14.7738 63.1611 14.5071 62.953 14.2233 62.7693C14.0848 62.6792 14.0549 62.6042 14.1591 62.4651C14.2583 62.332 14.3387 62.2612 14.5037 62.3843C14.7738 62.5856 15.0619 62.7651 15.3338 62.964C15.4842 63.0735 15.58 63.0946 15.7125 62.9202C16.1168 62.3885 16.1254 62.3944 15.5766 62.0118C15.3423 61.8484 15.1098 61.6824 14.8704 61.5256C14.7251 61.4296 14.6328 61.3504 14.767 61.1625C14.8909 60.9881 14.9781 60.9999 15.1371 61.1153C15.6108 61.4574 16.0921 61.7894 16.5811 62.1104C16.7734 62.2368 16.8144 62.3388 16.67 62.5368C16.1425 63.2555 15.627 63.9835 15.1175 64.7141C15.0055 64.8742 14.9234 64.9095 14.7524 64.7857C14.2686 64.4352 13.771 64.104 13.282 63.7611C13.2077 63.7088 13.0683 63.6692 13.1769 63.531C13.2453 63.4434 13.2778 63.3204 13.4214 63.285V63.2833Z" fill="white"/>
<path d="M37.3908 69.784C36.6521 69.7883 36.2042 69.4453 36.1127 68.8816C36.0144 68.28 36.3068 67.7913 36.9112 67.5958C37.1446 67.52 37.3942 67.4888 37.6387 67.4568C37.8815 67.4247 38.0354 67.3573 37.9353 67.07C37.8986 66.963 37.9242 66.8358 37.8909 66.7271C37.8105 66.465 38.0054 66.4667 38.1644 66.4246C38.3722 66.3698 38.4269 66.4617 38.4525 66.6563C38.5662 67.509 38.6919 68.3609 38.8253 69.2111C38.8646 69.4605 38.8142 69.5961 38.5312 69.6248C38.1166 69.6669 37.7054 69.7394 37.3899 69.7849L37.3908 69.784ZM37.3831 69.2759C38.1875 69.2684 38.2345 69.2279 38.1559 68.6103C38.0875 68.0671 37.7743 67.8677 37.2164 68.012C36.8171 68.1148 36.6094 68.387 36.6624 68.7342C36.7214 69.1159 36.9394 69.2802 37.3822 69.2759H37.3831Z" fill="white"/>
<path d="M1.09983 43.5892C1.20241 44.0746 1.2973 44.5388 1.40075 45.0014C1.43922 45.1733 1.43409 45.2921 1.2178 45.3393C0.993822 45.3882 0.95877 45.2761 0.922865 45.1017C0.792921 44.4723 0.646735 43.8462 0.511662 43.2185C0.486015 43.1005 0.403944 42.9581 0.55868 42.8722C0.702302 42.7921 0.851051 42.809 1.00579 42.8848C1.62387 43.1898 2.24624 43.4856 2.86774 43.783C3.05326 43.8715 3.24047 43.9558 3.51148 44.0813C3.3935 43.5193 3.29775 43.034 3.18747 42.552C3.14302 42.3599 3.10455 42.22 3.37811 42.1593C3.67476 42.0928 3.63373 42.3076 3.66536 42.4467C3.81069 43.0862 3.94576 43.7274 4.07741 44.3695C4.1005 44.4832 4.22531 44.6265 4.06715 44.7149C3.9184 44.7975 3.75427 44.7883 3.58414 44.704C2.87373 44.3518 2.15647 44.0114 1.43922 43.6718C1.3486 43.6288 1.26482 43.5513 1.09983 43.5901V43.5892Z" fill="white"/>
<path d="M20.8975 67.3802C21.4403 67.5875 21.8985 67.7695 22.3627 67.9355C22.5303 67.9953 22.5944 68.056 22.5192 68.2397C22.4457 68.4217 22.3645 68.4672 22.1721 68.3913C21.5549 68.147 20.9291 67.9237 20.3102 67.6827C20.2127 67.6448 20.0366 67.6524 20.0486 67.5024C20.0597 67.3515 20.1392 67.2159 20.2922 67.1291C20.7444 66.8713 21.1907 66.6042 21.6378 66.3387C21.9798 66.1357 22.32 65.9309 22.7389 65.6798C22.1969 65.4759 21.7387 65.3091 21.2856 65.1288C21.1377 65.0698 20.9086 65.0723 21.0248 64.7766C21.1343 64.4993 21.2787 64.6097 21.4472 64.6738C22.0439 64.8987 22.6449 65.1144 23.2399 65.3436C23.3638 65.3917 23.5724 65.3832 23.5767 65.5501C23.5818 65.7304 23.4553 65.8694 23.2801 65.9688C22.6363 66.3362 22.0003 66.7171 21.3617 67.0937C21.2292 67.1721 21.0992 67.2555 20.8958 67.381L20.8975 67.3802Z" fill="white"/>
<path d="M13.2077 15.1327C13.1239 15.2296 13.0863 15.281 13.041 15.3249C12.5887 15.7723 12.1305 16.213 11.686 16.6671C11.5441 16.8121 11.4714 16.7682 11.3483 16.6435C10.7217 16.0048 10.089 15.3712 9.44616 14.7477C9.28373 14.5901 9.29655 14.5025 9.4547 14.3559C9.8736 13.9683 10.278 13.5647 10.6832 13.1627C10.7994 13.0473 10.8781 12.9453 11.0568 13.1122C11.2543 13.2967 11.1303 13.3843 11.0055 13.5048C10.7345 13.766 10.4763 14.0407 10.1976 14.2935C10.0343 14.4418 10.0198 14.5547 10.1959 14.6946C10.2865 14.7671 10.3694 14.853 10.4412 14.944C10.5618 15.099 10.6627 15.0754 10.7883 14.9457C11.0132 14.7123 11.2491 14.489 11.4808 14.2615C11.5971 14.1477 11.6817 13.9986 11.8775 14.2025C12.075 14.4081 11.9082 14.4881 11.7963 14.6002C11.5765 14.821 11.3594 15.0443 11.1294 15.2541C10.9841 15.3864 10.9533 15.4951 11.1226 15.6257C11.1944 15.6804 11.2619 15.7453 11.3158 15.8169C11.4988 16.0613 11.6569 16.0596 11.8638 15.8245C12.1203 15.5338 12.4126 15.2726 12.6922 15.0021C12.7537 14.9423 12.8127 14.8471 12.9213 14.9179C13.0179 14.9811 13.1077 15.0552 13.2085 15.1311L13.2077 15.1327Z" fill="white"/>
<path d="M4.90409 50.4605C4.95539 50.7251 5.01095 50.9897 5.05712 51.2551C5.15714 51.8314 4.98445 52.2005 4.54077 52.3741C4.10221 52.5451 3.65766 52.3707 3.34477 51.9005C3.13276 51.582 3.01905 51.2306 2.98828 50.8515C2.9746 50.6838 3.03103 50.5852 3.21654 50.5641C3.40547 50.5422 3.46531 50.6172 3.47642 50.7967C3.49523 51.0941 3.5679 51.3815 3.74572 51.6317C3.88421 51.8272 4.05946 51.9528 4.30994 51.8643C4.56043 51.7758 4.5647 51.5567 4.53564 51.3469C4.48691 51.004 4.38432 50.6703 4.38432 50.3181C4.38432 49.9718 4.52623 49.7215 4.83655 49.5699C5.15714 49.4131 5.47345 49.435 5.75642 49.6558C6.27961 50.0636 6.44461 50.6374 6.47795 51.2593C6.4865 51.4177 6.4352 51.5517 6.20951 51.5534C5.97442 51.555 5.95903 51.4329 5.96929 51.261C5.99151 50.8734 5.88465 50.5203 5.64528 50.2136C5.52902 50.0653 5.37856 49.9617 5.16996 50.0291C4.95881 50.0973 4.90666 50.2608 4.90409 50.4613V50.4605Z" fill="white"/>
<path d="M8.44507 20.6594C8.41344 20.7133 8.38266 20.7698 8.34847 20.8246C8.04925 21.3065 7.74064 21.7834 7.45254 22.2722C7.34483 22.455 7.25592 22.4499 7.08921 22.3463C6.33862 21.8812 5.58204 21.427 4.82375 20.9745C4.66388 20.8793 4.54847 20.8145 4.69466 20.5987C4.82118 20.4117 4.90496 20.3502 5.11954 20.4867C5.71027 20.8633 6.32408 21.2054 6.9131 21.5854C7.15247 21.7396 7.26617 21.6916 7.39184 21.4624C7.56539 21.1464 7.76629 20.8456 7.95949 20.5406C8.0125 20.4572 8.06721 20.3426 8.19972 20.4336C8.29033 20.4959 8.42626 20.5145 8.44593 20.6594H8.44507Z" fill="white"/>
</g>
<defs>
<clipPath id="clip0_1_14">
<rect width="1440" height="7792" fill="white" transform="translate(-147 -54)"/>
</clipPath>
<clipPath id="clip1_1_14">
<rect width="1440" height="786" fill="white" transform="translate(-147 -20)"/>
</clipPath>
<clipPath id="clip2_1_14">
<rect width="1563" height="327" fill="white" transform="matrix(-1 0 0 1 1379 -234)"/>
</clipPath>
</defs>
</svg>
