<svg width="14" height="16" viewBox="0 0 14 16" fill="none" xmlns="http://www.w3.org/2000/svg">
<path d="M2.38424 11.9567C2.29056 12.0127 2.19936 12.0733 2.10274 12.1238C1.86196 12.2499 1.61938 12.3727 1.37634 12.495C1.07288 12.6477 0.823056 12.8369 0.854964 13.2409C0.556484 12.9586 0.365267 12.6455 0.263436 12.2782C0.135581 11.816 0.332455 11.4773 0.685245 11.1954C0.708779 11.1766 0.751095 11.1642 0.746795 11.133C0.741817 11.0969 0.696558 11.0965 0.666009 11.0841C0.502852 11.0181 0.338338 10.9546 0.208899 10.8299C0.117929 10.7422 0.0597727 10.6371 0.0154195 10.5214C-0.0169403 10.4371 -0.00245682 10.3984 0.0982431 10.3946C0.229719 10.3895 0.356669 10.3553 0.482939 10.3185C0.946385 10.184 1.19282 9.87291 1.26093 9.4149C1.32135 9.00889 1.32135 8.59934 1.32226 8.19068C1.32452 7.27201 1.57797 6.43211 2.11609 5.67474C2.4166 5.25169 2.72572 4.8344 3.09141 4.46401C3.32969 4.22284 3.37518 3.94671 3.32177 3.64027C3.23736 3.15593 2.98958 2.74085 2.71825 2.3386C2.43606 1.91998 2.1007 1.54849 1.67708 1.25952C1.63092 1.2281 1.62617 1.19779 1.64517 1.14867C1.78615 0.788682 1.92668 0.428694 2.06223 0.0667144C2.09097 -0.0102837 2.13012 -0.0098412 2.19597 0.0144973C2.68815 0.195708 3.02646 0.531358 3.2222 1.00264C3.36002 1.33453 3.4494 1.6839 3.59377 2.01379C3.73838 2.34413 3.89542 2.66761 4.12398 2.95237C4.20974 3.05902 4.30478 3.15792 4.41748 3.2378C4.72229 3.45397 5.03005 3.47322 5.32989 3.25107C5.67521 2.9953 6.06126 2.94839 6.47017 2.96919C7.45929 3.01963 8.35881 3.34776 9.21645 3.8113C9.53711 3.98454 9.84826 4.17616 10.1875 4.31533C10.2601 4.3452 10.3373 4.37064 10.4147 4.38281C10.6733 4.4233 10.8344 4.34365 10.9634 4.11664C11.0465 3.97061 11.0924 3.81108 11.1295 3.64912C11.1354 3.62367 11.1356 3.58805 11.1637 3.5803C11.1927 3.57234 11.2114 3.60332 11.2289 3.62279C11.4943 3.91463 11.5502 4.25691 11.4791 4.62863C11.4592 4.73218 11.4214 4.83042 11.3757 4.92578C11.3316 5.0176 11.3499 5.05278 11.454 5.07004C11.5814 5.09106 11.7016 5.06694 11.8138 5.00366C11.9444 4.92998 12.0546 4.83352 12.153 4.72311C12.18 4.69279 12.2069 4.66248 12.2395 4.62575C12.2703 4.672 12.2632 4.71758 12.2682 4.75851C12.2918 4.95499 12.2838 5.15124 12.237 5.3433C12.1343 5.76457 11.8369 6.02699 11.3986 6.09646C11.177 6.13142 10.9571 6.12146 10.7376 6.08451C10.5903 6.05973 10.5824 6.06814 10.5887 6.21793C10.5989 6.45999 10.7394 6.62372 10.9222 6.76444C10.9503 6.78612 11.006 6.79785 10.9951 6.83856C10.9863 6.87197 10.9331 6.8764 10.8978 6.88746C10.5437 6.9992 10.1807 7.02265 9.81115 6.99499C9.14381 6.94477 8.49911 6.80471 7.88269 6.54716C7.71433 6.4768 7.55117 6.39715 7.40883 6.26064C7.38236 6.34936 7.42083 6.4122 7.45364 6.47017C7.53714 6.61819 7.62743 6.76245 7.71568 6.90782C7.9456 7.28706 8.06893 7.69063 8.02276 8.13669C8.00217 8.33671 7.82906 8.72325 7.66952 8.88477C7.65345 8.75754 7.6444 8.63872 7.62064 8.5219C7.4903 7.88158 7.05944 7.51141 6.4661 7.28617C6.42582 7.2709 6.37264 7.24988 6.34232 7.29347C6.31607 7.33131 6.35046 7.37158 6.3749 7.40344C6.41813 7.4603 6.46225 7.51761 6.51204 7.56894C6.78019 7.84573 6.84152 8.16944 6.73629 8.52765C6.6322 8.88189 6.43238 9.19298 6.25655 9.51447C6.13119 9.74413 5.99994 9.97093 5.86394 10.1946C5.68358 10.4909 5.53264 10.7949 5.54894 11.169C5.22285 10.9841 5.00335 10.7418 4.91306 10.3982C4.86056 10.1988 4.85943 9.99725 4.88477 9.79392C4.8902 9.74966 4.92143 9.67975 4.87979 9.66404C4.82956 9.64501 4.79968 9.71493 4.77027 9.75343C4.69333 9.85388 4.6354 9.96606 4.57611 10.0769C4.43355 10.3437 4.30026 10.6155 4.13506 10.8701C4.01581 11.0538 3.8832 11.2268 3.71077 11.3666C3.60305 11.454 3.48425 11.5204 3.3435 11.5445C3.2953 11.5527 3.28172 11.5416 3.28738 11.4938C3.30005 11.389 3.33739 11.2903 3.36386 11.1892C3.38989 11.0898 3.40369 10.9903 3.39735 10.888C3.39622 10.8688 3.40301 10.8445 3.38106 10.8332C3.35594 10.8203 3.34372 10.8436 3.3315 10.8584C3.112 11.1243 2.89363 11.3912 2.67322 11.6565C2.63158 11.7065 2.66937 11.7368 2.69426 11.7709C2.86579 12.0047 3.04592 12.2324 3.24302 12.4461C3.51389 12.7402 3.75829 13.0577 4.05134 13.3321C4.56434 13.8122 5.12917 14.2215 5.76912 14.5284C6.02528 14.6512 6.29434 14.7362 6.57042 14.8008C6.88949 14.8754 7.19725 14.9946 7.5256 15.0307C7.71455 15.0515 7.90373 15.0694 8.104 15.0897C7.99289 15.1331 7.88291 15.1409 7.77429 15.1526C7.30564 15.203 6.84174 15.1599 6.37898 15.0853C6.25678 15.0656 6.13254 15.0402 6.00763 15.0588C5.76686 15.0944 5.62497 15.2466 5.534 15.4546C5.47109 15.5982 5.44032 15.7513 5.39981 15.9013C5.36858 16.0168 5.34686 16.0246 5.24525 15.9575C4.91374 15.7383 4.60734 15.492 4.3695 15.1727C4.1448 14.8709 4.03436 14.532 4.02192 14.1607C4.0192 14.083 4.0192 14.0054 4.00427 13.9281C3.9873 13.8416 3.9391 13.8237 3.86193 13.8571C3.71099 13.9228 3.59807 14.0288 3.51751 14.1686C3.40618 14.362 3.36545 14.574 3.34983 14.7917C3.33218 15.0386 3.34327 15.2856 3.35843 15.5323C3.36273 15.602 3.36477 15.6719 3.36794 15.7416C3.32336 15.7476 3.31159 15.7179 3.29462 15.6995C2.90834 15.2798 2.69607 14.7873 2.65172 14.2251C2.64199 14.1032 2.6438 14.1087 2.52455 14.1377C2.11926 14.2364 1.75085 14.1571 1.42273 13.9045C1.38245 13.8735 1.3476 13.8341 1.31615 13.7941C1.28107 13.7494 1.22586 13.6936 1.25188 13.6449C1.27044 13.6104 1.34647 13.6449 1.39625 13.6505C1.62028 13.6757 1.79996 13.5814 1.89274 13.3827C1.96017 13.238 2.00973 13.0869 2.0568 12.9349C2.15795 12.6097 2.24055 12.2782 2.40416 11.9738C2.3976 11.9682 2.39081 11.9623 2.38424 11.9567Z" fill="#547E32"/>
<path d="M13.8337 12.7245C13.5291 12.6216 13.2499 12.5114 12.9557 12.4473C12.8817 12.4311 12.8063 12.4152 12.731 12.4128C12.5936 12.4081 12.5366 12.4774 12.5751 12.6057C12.6099 12.7221 12.6592 12.8343 12.7029 12.948C12.7771 13.1416 12.8439 13.3361 12.8387 13.5474C12.8337 13.7605 12.755 13.941 12.6086 14.0972C12.5572 14.1521 12.5357 14.1379 12.5108 14.0762C12.4805 14.001 12.4465 13.9262 12.4047 13.8565C12.2684 13.6297 12.0462 13.5737 11.8104 13.7014C11.5606 13.8366 11.3467 14.0204 11.1177 14.1837C10.8132 14.401 10.519 14.638 10.1646 14.774C9.72061 14.9446 9.27165 15.1075 8.7815 15.0887C8.7161 15.0862 8.6507 15.0778 8.5835 15.0648C8.88922 15.0378 9.17344 14.9422 9.45313 14.8258C9.68576 14.7289 9.91025 14.6223 10.1252 14.4891C10.4459 14.2906 10.7482 14.0702 11.0082 13.8029C11.3314 13.471 11.6002 13.1011 11.7914 12.6758C12.0365 12.1311 12.1643 11.5611 12.2485 10.9761C12.3153 10.5119 12.3479 10.0482 12.3046 9.58131C12.2377 8.85448 12.0473 8.15906 11.7351 7.49573C11.5975 7.20344 11.4493 6.91714 11.2397 6.66601C11.2313 6.65605 11.2266 6.64344 11.2166 6.62596C11.263 6.61644 11.2954 6.63791 11.3284 6.65052C11.7244 6.79965 12.0118 7.0791 12.263 7.39992C12.4207 7.60127 12.5674 7.81102 12.7292 8.00905C12.8638 8.17389 13.0177 8.31815 13.2417 8.36815C13.4578 8.41638 13.6518 8.35819 13.843 8.26991C13.8812 8.25221 13.9219 8.20464 13.9645 8.23805C14.012 8.27522 14.0025 8.33474 13.9901 8.38939C13.8724 8.90227 13.528 9.20451 13.0349 9.36448C12.8634 9.42024 12.8645 9.41227 12.9903 9.54149C13.2895 9.84837 13.5196 10.1931 13.5791 10.6243C13.614 10.8768 13.5802 11.1253 13.5062 11.3667C13.4526 11.5421 13.4569 11.7127 13.502 11.8868C13.5676 12.1408 13.6805 12.3767 13.7914 12.6134C13.8054 12.6435 13.8149 12.6756 13.833 12.7243L13.8337 12.7245Z" fill="#547E32"/>
<path d="M9.42812 10.5311C9.33172 10.1235 9.2851 9.72284 9.403 9.32236C9.51026 8.95839 9.78136 8.75793 10.1375 8.66146C10.5641 8.54574 10.9565 8.66301 11.3319 8.86015C11.3496 8.86944 11.3745 8.87586 11.3733 8.89953C11.3722 8.92431 11.3453 8.9263 11.3272 8.93405C11.0929 9.03428 10.866 9.14823 10.639 9.26306C10.2303 9.46972 9.92822 9.78103 9.68224 10.1525C9.59829 10.2793 9.51275 10.405 9.42789 10.5311H9.42812Z" fill="#547E32"/>
<path d="M10.9118 11.4985C10.707 12.1349 10.4103 12.713 9.82443 13.1027C9.53116 13.2976 9.19308 13.3637 8.85025 13.3801C8.23428 13.4095 7.6466 13.2932 7.10576 12.9896C7.07363 12.9715 7.04353 12.95 6.98877 12.9148C7.14378 12.9385 7.2705 12.9597 7.39791 12.977C8.04216 13.0644 8.67261 13.0102 9.28993 12.806C9.66648 12.6814 9.97175 12.4526 10.2573 12.1931C10.4934 11.9787 10.7 11.7377 10.9118 11.4988V11.4985Z" fill="#547E32"/>
<path d="M5.33301 13.0093C5.44525 12.5354 5.57627 12.067 5.89014 11.6798C6.1721 11.3317 6.54163 11.1481 7.00961 11.2439C7.24133 11.2912 7.41987 11.4306 7.569 11.6072C7.62557 11.674 7.56674 11.6747 7.52374 11.6866C7.19697 11.7762 6.87926 11.8893 6.57128 12.0287C6.19609 12.1984 5.91209 12.4818 5.61723 12.7522C5.52445 12.8374 5.43054 12.9212 5.33301 13.0095V13.0093Z" fill="#547E32"/>
</svg>
