<svg width="283" height="258" viewBox="0 0 283 258" fill="none" xmlns="http://www.w3.org/2000/svg">
<path d="M331.496 112.736C334.266 111.168 337.247 110.894 339.902 109.698C340.772 109.306 341.535 108.766 342.169 108.063C342.485 107.714 342.775 107.298 342.475 106.794C342.216 106.36 341.738 106.364 341.35 106.459C340.187 106.75 338.95 106.686 337.844 107.218C337.104 107.573 336.387 107.434 336.132 106.704C335.845 105.878 336.744 105.909 337.216 105.75C339.078 105.115 340.968 104.554 342.833 103.922C344.18 103.466 346.068 102.78 345.768 101.396C345.469 100.016 343.494 100.57 342.185 100.632C341.822 100.65 341.46 100.738 341.097 100.75C340.582 100.768 340.097 100.587 340.054 100.03C340.008 99.4537 340.558 99.4955 340.956 99.4028C342.675 99.0059 344.503 99.1171 346.132 98.3092C346.412 98.1688 346.75 98.1144 346.985 97.9279C347.694 97.3584 348.913 96.9221 348.624 95.8807C348.35 94.8961 347.178 95.4757 346.401 95.3718C345.918 95.3051 345.338 95.5697 344.951 94.8326C346.228 94.385 347.485 93.9781 348.71 93.4946C349.335 93.2493 349.93 92.9039 350.494 92.5389C351.032 92.1914 351.486 91.6979 351.465 91.0201C351.439 90.1274 350.499 90.4502 349.917 90.0062C350.74 89.7633 351.498 89.6258 352.168 89.3123C352.762 89.0341 353.407 88.6707 353.484 87.8833C353.57 87.0184 352.845 86.8395 352.127 86.6403C354.771 84.833 355.61 81.947 357.189 79.5988C360.31 74.9537 361.94 69.5588 364.486 64.614C366.101 61.476 367.692 58.3116 369.286 55.1572C369.38 54.9704 369.484 54.7835 369.533 54.5809C369.653 54.0847 369.977 53.4598 369.481 53.1247C368.924 52.7474 368.513 53.3742 368.221 53.7365C364.198 58.7035 359.884 63.4419 357.225 69.3965C355.659 72.9062 353.698 76.25 351.409 79.3691C350.588 80.4918 349.428 81.3432 348.926 82.731C348.644 83.5162 347.883 83.2138 347.278 83.0961C345.36 82.7182 344.773 83.2918 345.132 85.2081C345.208 85.6161 345.341 86.0161 345.428 86.4239C345.529 86.8851 345.664 87.3993 345.118 87.6698C344.585 87.9299 344.264 87.5575 343.942 87.1817C343.541 86.7069 343.153 86.1916 342.654 85.8364C341.552 85.0512 340.73 85.358 340.26 86.6376C339.993 87.362 340.089 88.0785 340.347 88.778C340.526 89.2678 340.826 89.7213 340.934 90.2226C341.073 90.8576 341.445 91.7292 340.8 92.1026C340.178 92.4654 339.796 91.6074 339.356 91.2107C338.759 90.6697 338.28 89.7433 337.308 90.1037C336.3 90.4783 336.355 91.461 336.358 92.3743C336.362 93.489 336.537 94.5463 337.044 95.5527C337.382 96.227 337.39 96.9219 336.655 97.3275C335.919 97.7297 335.502 97.1512 335.127 96.6322C334.732 96.0834 334.408 95.4726 333.96 94.9753C333.118 94.0468 332.066 94.288 331.732 95.4941C331.239 97.2779 331.475 98.992 332.436 100.593C332.625 100.904 332.847 101.202 332.992 101.534C333.3 102.25 333.382 103.04 332.74 103.558C331.962 104.183 331.54 103.353 331.082 102.916C330.367 102.233 329.728 101.475 328.848 100.974C327.624 100.275 326.694 100.749 326.59 102.154C326.516 103.194 326.896 104.116 327.483 104.932C328.167 105.881 328.588 106.946 328.881 108.045C329.042 108.649 329.206 109.502 328.347 109.792C327.545 110.065 327.089 109.414 326.743 108.83C326.32 108.117 326.007 107.335 325.61 106.605C325.287 106.011 324.958 105.414 324.545 104.882C324.012 104.199 323.466 103.264 322.449 103.568C321.442 103.869 321.175 104.882 321.078 105.848C320.826 108.352 321.642 110.574 322.99 112.626C323.426 113.291 323.768 113.986 323.963 114.747C324.084 115.221 324.048 115.726 323.576 116.001C323.081 116.291 322.827 115.779 322.529 115.537C321.723 114.88 321.599 113.815 321.072 112.987C320.598 112.242 320.237 111.427 319.762 110.678C319.351 110.033 318.769 109.602 317.93 109.724C317.131 109.843 316.818 110.471 316.573 111.101C315.638 113.482 316.465 115.583 317.668 117.615C318.168 118.46 318.895 119.2 319.061 120.204C319.155 120.782 319.41 121.536 318.657 121.871C317.97 122.178 317.454 121.703 317.052 121.198C316.263 120.201 315.813 119.039 315.463 117.827C315.263 117.13 315.059 116.426 314.792 115.753C314.564 115.188 314.389 114.446 313.628 114.432C312.944 114.42 312.586 114.992 312.255 115.557C310.765 118.091 311.114 120.669 312.103 123.227C312.492 124.232 313.151 125.131 313.634 126.108C313.937 126.722 313.925 127.408 313.239 127.738C312.522 128.086 312.123 127.551 311.737 126.995C310.767 125.586 310.632 123.867 309.939 122.357C309.525 121.459 309.228 120.502 308.745 119.646C308.149 118.595 307.273 118.537 306.481 119.468C305.674 120.419 305.501 121.598 305.379 122.809C305.073 125.902 306.056 128.658 307.464 131.32C307.612 131.595 307.769 131.871 307.873 132.164C308.052 132.657 308.263 133.223 307.682 133.562C307.219 133.834 306.752 133.558 306.412 133.227C305.964 132.793 305.56 132.332 305.295 131.737C304.363 129.641 303.486 127.538 302.891 125.315C302.613 124.267 302.467 122.843 301.004 122.747C299.483 122.646 299.234 124.075 298.917 125.103C297.913 128.348 298.285 131.473 300.109 134.382C300.413 134.865 300.74 135.339 301.037 135.829C302.344 138 302.312 138.269 300.719 140.232C300.292 140.758 300.298 139.764 299.812 139.093C297.891 136.428 297.679 133.179 296.631 130.217C296.344 129.407 296.34 128.326 295.216 128.189C294.011 128.041 293.52 129.032 293.024 129.889C292.764 130.338 292.573 130.829 292.392 131.32C292.045 132.268 293.232 134.623 293.05 134.466C292.844 134.285 292.644 134.085 292.375 134.235C292.115 134.378 292.101 134.678 292.184 134.931C292.434 135.718 292.703 136.478 292.839 137.314C292.999 138.312 293.887 140.74 294.553 141.609C295.104 142.329 295.268 143.225 295.452 144.087C295.576 144.669 295.461 145.276 294.838 145.555C294.281 145.805 293.802 145.49 293.44 145.102C292.499 144.098 291.85 142.89 291.498 141.581C290.879 139.285 289.925 137.096 289.453 134.752C289.215 133.575 288.57 134.889 288.079 134.618C287.686 134.327 288.665 133.688 287.93 133.496C287.46 133.372 287.212 133.908 287.017 134.231C286.114 135.732 285.77 137.405 285.602 139.128C285.271 142.47 286.358 145.361 288.295 148.035C289.055 149.086 290.163 150.126 289.284 151.68C288.486 153.088 287.495 153.19 286.564 151.864C284.798 149.34 283.471 146.565 282.065 143.839C281.85 143.424 281.652 142.995 281.408 142.598C281.031 141.988 280.536 141.556 279.744 141.657C279.009 141.75 278.691 142.301 278.458 142.89C277.364 145.678 277.76 148.413 278.929 151.047C279.86 153.145 281.311 154.95 282.657 156.795C283.213 157.555 283.27 158.326 283.143 159.158C283.043 159.815 282.681 160.33 281.984 160.493C281.331 160.645 280.895 160.302 280.541 159.796C279.046 157.663 277.605 155.511 276.692 153.033C276.12 151.481 275.34 149.997 274.59 148.516C274.305 147.954 273.824 147.498 273.073 147.642C272.375 147.775 271.854 148.273 271.824 148.888C271.733 150.754 271.153 152.553 271.35 154.476C271.679 157.706 273.334 160.225 275.253 162.662C276.087 163.721 277.062 164.731 277.164 166.166C277.228 167.064 277.107 168.001 276.167 168.454C275.158 168.943 274.789 167.961 274.317 167.444C272.143 165.073 270.834 162.154 269.291 159.384C268.913 158.703 268.544 158.003 268.079 157.385C267.726 156.913 267.161 156.656 266.545 156.824C265.899 157 265.46 157.415 265.344 158.12C264.716 161.868 265.176 165.37 267.631 168.443C268.7 169.783 269.747 171.143 270.82 172.48C271.36 173.15 271.763 173.863 271.715 174.754C271.681 175.366 271.795 176.105 271.074 176.383C270.262 176.696 269.773 176.035 269.421 175.499C268.453 174.022 267.547 172.501 266.669 170.965C265.559 169.029 264.692 166.939 263.017 165.37C261.663 164.1 260.755 164.321 260.212 166.116C259.376 168.865 260.343 171.355 261.427 173.807C262.362 175.925 263.908 177.641 265.259 179.488C266.029 180.543 266.694 181.68 266.27 183.103C266.079 183.745 265.767 184.262 265.063 184.399C264.409 184.524 263.999 184.12 263.599 183.679C261.722 181.604 260.606 179.08 259.304 176.657C258.3 174.781 257.589 172.745 256.255 171.045C255.777 170.434 255.326 169.675 254.398 169.873C253.573 170.049 253.327 170.81 253.161 171.532C252.316 175.225 253.144 178.635 254.876 181.911C256.197 184.418 257.912 186.64 259.697 188.814C260.355 189.612 260.767 190.436 260.541 191.529C260.404 192.2 260.223 192.674 259.483 192.879C258.737 193.083 258.43 192.616 258.084 192.164C255.595 188.927 253.642 185.377 251.885 181.711C251.479 180.867 251.07 180.017 250.548 179.246C250.214 178.753 249.826 178.096 249.11 178.169C248.347 178.246 248.035 178.904 247.787 179.561C246.918 181.864 247.087 184.207 247.809 186.455C249.081 190.419 251.468 193.772 254.014 197.021C254.686 197.879 255.563 198.71 255.162 200.065C254.647 201.809 253.391 202.25 251.904 201.107C250.891 200.326 250.244 199.232 249.525 198.217C247.958 196.008 246.364 193.823 244.605 191.76C244.436 191.562 244.28 191.35 244.087 191.177C243.256 190.436 242.487 189.157 241.221 189.768C239.882 190.416 240.117 191.935 240.278 193.134C240.696 196.264 242.55 198.796 244.039 201.467C245.014 203.215 246.395 204.656 247.796 206.045C249.018 207.261 248.968 208.659 248.687 210.109C248.508 211.033 247.461 211.18 246.596 210.282C245.042 208.674 243.554 206.998 242.139 205.266C240.45 203.2 238.663 201.245 236.557 199.602C235.745 198.968 234.733 198.114 233.771 198.793C232.749 199.51 233.189 200.844 233.498 201.848C234.679 205.694 236.706 209.068 239.52 211.958C240.84 213.313 241.921 214.851 242.795 216.504C243.217 217.301 243.573 218.649 242.801 219.069C242.079 219.464 241.687 218.17 241.251 217.508C238.932 214.003 237.296 210.022 234.134 207.099C233.423 206.44 232.748 205.152 231.564 205.829C230.493 206.44 230.922 207.727 231.075 208.721C231.722 212.904 233.394 216.686 235.8 220.146C236.732 221.485 237.526 222.865 237.777 224.505C237.899 225.291 238.207 225.996 238.779 226.585C239.031 226.845 239.277 227.155 239.385 227.488C239.576 228.069 239.874 228.918 239.305 229.213C238.632 229.56 238.433 228.624 238.218 228.196C236.236 224.233 234.587 220.125 232.888 216.039C229.992 209.07 227.305 202.007 223.815 195.3C222.686 193.132 221.475 191.009 220.29 188.872C219.817 188.016 219.504 187.415 220.877 186.929C223.296 186.07 225.735 185.483 228.268 185.038C233.736 184.076 238.572 181.807 242.038 177.235C242.398 176.761 242.638 176.155 242.293 175.635C241.9 175.042 241.246 175.322 240.714 175.508C238.405 176.307 236.099 177.113 233.807 177.959C229.632 179.498 225.313 180.019 220.89 179.803C220.529 179.784 220.161 179.728 219.785 179.327C221.021 178.88 222.24 179.004 223.431 178.975C230.701 178.803 236.217 175.425 239.522 169.164C240.883 166.586 243.027 166.213 245.059 165.205C246.521 164.481 247.947 163.772 248.979 162.456C249.628 161.626 249.28 161.124 248.4 161.092C245.367 160.981 242.347 161.124 239.368 161.8C236.282 162.502 233.208 163.308 230.006 163.307C229.527 163.308 229.098 163.237 228.671 162.964C227.285 162.071 227.284 161.594 228.652 160.701C229.406 160.208 230.161 159.808 231.086 159.724C235.875 159.287 240.306 157.723 244.502 155.419C246.828 154.142 249.185 152.912 251.117 151.046C251.417 150.758 251.711 150.456 251.969 150.128C252.281 149.732 252.747 149.322 252.34 148.756C251.941 148.204 251.392 148.22 250.795 148.451C247.496 149.729 244.196 150.999 240.89 152.26C238.526 153.162 235.977 153.039 233.533 153.512C232.906 153.634 232.21 153.226 231.776 152.637C231.453 152.201 231.363 151.78 232.004 151.514C232.725 151.216 233.419 150.768 234.17 150.634C236.522 150.21 238.829 149.458 241.137 149.065C245.777 148.275 249.339 145.487 253.344 143.516C253.39 143.492 253.44 143.47 253.477 143.433C254.05 142.859 255.2 142.327 254.884 141.575C254.525 140.73 253.424 141.328 252.642 141.45C249.034 142.005 245.61 143.279 242.072 144.098C240.287 144.513 238.436 144.45 236.609 144.352C235.935 144.316 235.412 143.797 235.227 143.224C235.025 142.6 235.796 142.425 236.164 142.142C237.505 141.105 239.122 140.536 240.72 140.145C245.67 138.932 250.067 136.711 254.008 133.518C254.812 132.866 255.737 132.362 256.579 131.75C256.811 131.58 257.094 131.309 256.959 130.966C256.816 130.61 256.457 130.658 256.142 130.705C254.906 130.883 253.719 131.094 252.55 131.67C249.228 133.3 245.825 134.765 242.041 134.962C241.469 134.991 240.886 134.977 240.322 134.905C239.647 134.819 239.115 134.351 238.931 133.771C238.699 133.044 239.569 133.085 239.937 132.822C242.294 131.128 245.189 130.618 247.761 129.37C251.777 127.422 255.441 124.985 258.889 122.196C259.527 121.679 260.728 120.991 260.181 120.163C259.628 119.329 258.344 119.75 257.436 120.146C254.761 121.309 252.153 122.605 249.633 124.077C248.372 124.813 247.032 125.407 245.579 125.657C244.807 125.788 243.975 125.917 243.304 125.394C242.67 124.901 241.87 124.499 243.28 123.702C245.346 122.532 247.584 121.862 249.765 121.066C254.105 119.483 257.543 116.708 260.716 113.509C260.967 113.256 261.131 112.909 261.319 112.6C261.485 112.324 261.623 112.012 261.381 111.732C261.129 111.435 260.836 111.603 260.536 111.727C257.359 113.032 254.163 114.291 251 115.629C249.712 116.174 248.404 116.374 247.028 116.303C246.441 116.273 246.051 115.972 245.844 115.436C245.601 114.81 246.134 114.668 246.477 114.365C248.912 112.209 252.021 111.614 254.969 110.62C258.606 109.392 262.358 108.376 265.251 105.613C265.476 105.397 265.703 105.174 265.883 104.921C266.21 104.467 266.732 104.013 266.365 103.399C265.991 102.77 265.283 102.738 264.673 102.896C261.904 103.608 259.135 104.326 256.395 105.138C254.852 105.595 253.226 105.732 251.746 106.442C251.379 106.618 250.801 106.503 250.377 106.358C250.01 106.232 249.567 105.959 249.513 105.52C249.46 105.062 249.981 105.037 250.263 104.843C251.427 104.035 252.763 103.807 254.137 103.811C257.595 103.813 260.759 102.971 263.52 100.802C264.268 100.215 264.951 99.5888 265.459 98.7886C265.736 98.3561 266.076 97.8752 265.69 97.3531C265.333 96.874 264.808 96.8687 264.265 97.0048C262.102 97.5524 259.931 98.0766 257.768 98.641C256.529 98.9635 255.285 99.0478 254.062 98.6884C253.496 98.5227 252.734 98.3446 252.787 97.5275C252.833 96.8415 253.493 96.6793 254.038 96.523C255.537 96.0906 257.111 95.838 258.536 95.2394C261.349 94.0597 264.229 93.0129 266.914 91.5406C267.33 91.3132 267.694 91.0232 267.937 90.5981C268.193 90.1526 268.588 89.7343 268.303 89.1664C268.014 88.5884 267.448 88.6847 266.931 88.6389C263.898 88.3794 261.04 89.3149 258.126 89.8823C257.871 89.9315 257.618 90.0579 257.365 90.0534C256.671 90.035 255.847 89.9253 255.696 89.1966C255.572 88.5915 256.365 88.3358 256.858 88.1336C259.218 87.1586 261.556 86.1472 263.82 84.9661C265.565 84.0549 266.996 82.798 268.04 81.1297C268.313 80.6906 268.612 80.1737 268.231 79.6749C267.794 79.1036 267.311 79.5204 266.83 79.7022C265.037 80.3928 263.24 81.0768 261.426 81.7108C260.945 81.8791 260.399 81.891 259.882 81.9292C259.236 81.9769 258.468 81.95 258.324 81.2144C258.142 80.2748 259.118 80.4113 259.623 80.2491C262.943 79.1793 266.296 78.1927 268.939 75.7373C269.243 75.4554 269.57 75.1829 269.826 74.8583C270.268 74.2946 270.54 73.6204 270.035 73.0035C269.575 72.4427 268.877 72.5956 268.283 72.8034C266.859 73.3046 265.457 73.8759 264.034 74.3737C263.125 74.6924 261.874 74.9481 261.576 73.9405C261.384 73.3 262.732 73.0455 263.513 72.8774C266.465 72.2454 269.194 71.1885 271.368 68.9851C271.747 68.6008 272.031 68.1883 272.253 67.7133C272.465 67.2553 272.506 66.8078 272.137 66.4029C271.764 65.9913 271.296 66.025 270.832 66.1829C269.699 66.5703 268.555 66.9344 267.447 67.3851C266.746 67.6724 266.042 67.7919 265.307 67.7509C264.848 67.7273 264.219 67.7444 264.179 67.1576C264.143 66.611 264.76 66.4666 265.196 66.3698C267.253 65.9185 269.186 65.1577 270.995 64.0974C271.53 63.7835 272.061 63.4226 272.493 62.9867C272.911 62.5612 273.51 62.0814 273.199 61.383C272.887 60.688 272.152 60.7813 271.54 60.8282C270.76 60.8889 269.985 61.0334 269.213 61.1544C268.955 61.1936 268.708 61.3098 268.453 61.3255C267.726 61.3749 266.7 61.5518 266.508 60.787C266.298 59.9454 267.366 59.8281 267.996 59.5524C269.955 58.7003 271.976 57.9577 273.639 56.5513C274.257 56.0274 275.24 55.556 274.862 54.5971C274.452 53.555 273.436 53.8895 272.532 53.9764C271.289 54.0976 270.049 54.7224 268.562 54.1505C269.768 53.0731 271.102 52.6376 272.335 52.0365C273.327 51.5514 274.244 50.9773 274.973 50.1353C275.345 49.7075 275.468 49.2078 275.295 48.6776C275.082 48.0342 274.496 48.1545 273.986 48.0783C272.709 47.8879 271.451 48.728 269.905 48.1137C271.739 47.1468 273.381 46.2883 275.015 45.4131C275.381 45.217 275.781 45.0236 276.047 44.7257C276.488 44.2291 277.038 43.6765 276.692 42.9285C276.342 42.1672 275.607 42.2739 274.917 42.3158C274.012 42.3692 272.705 42.9652 272.328 42.0466C271.916 41.0416 273.288 40.4944 273.977 39.8414C274.542 39.3086 275.285 38.9498 275.804 38.3844C276.818 37.2844 276.491 36.1934 275.003 36.0916C273.283 35.9714 273.656 35.4595 273.804 34.0661C274.042 31.8715 274.739 29.8247 275.16 27.7067C276.302 21.9967 276.629 16.1635 277.865 10.485C278.499 7.57322 278.853 4.49966 280.737 1.96689C281.048 1.55042 281.118 0.914234 280.702 0.510296C280.241 0.067037 279.834 0.556114 279.472 0.809143C278.096 1.77608 277.354 3.23959 276.641 4.66887C274.731 8.50174 273.451 12.5089 272.814 16.7908C272.353 19.8969 271.027 22.8675 270.384 25.9608C269.952 28.0387 268.858 29.933 268.784 32.0837C268.755 32.9306 268.378 33.0765 267.568 33.0102C266.047 32.8823 265.611 33.6003 266.198 35.0314C266.614 36.0499 267.642 36.83 267.459 38.1671C266.284 38.0551 265.542 37.0538 264.401 36.9511C262.988 36.8242 262.574 37.1522 262.706 38.5563C262.807 39.6321 263.572 40.2936 264.191 41.0558C264.866 41.8839 265.826 42.5211 266.083 43.7882C265.238 43.941 264.785 43.4102 264.281 43.0082C263.753 42.5865 263.271 42.0699 262.678 41.7806C261.644 41.276 260.991 41.7436 260.908 42.9039C260.794 44.4813 261.579 45.6932 262.49 46.862C263.002 47.5157 263.625 48.0964 263.905 48.9096C264.034 49.2829 264.387 49.7017 263.923 50.0409C263.558 50.3074 263.092 50.2404 262.74 49.9862C262.196 49.5884 261.688 49.1428 261.193 48.6835C259.746 47.3383 258.218 46.7941 257.663 47.5987C256.776 48.8874 257.263 50.2233 258.129 51.3394C259.113 52.6074 260.263 53.7475 261.267 55.0049C261.609 55.434 262.406 55.9807 261.809 56.568C261.216 57.1518 260.553 56.5383 260.009 56.1439C258.424 54.9965 257.289 53.2516 255.184 52.7872C254.375 52.6101 253.736 52.6207 253.176 53.1837C252.523 53.8393 253.081 54.4248 253.36 55.0231C254.456 57.3834 256.09 59.2919 258.087 60.9542C258.735 61.4941 260.089 62.2671 259.356 63.089C258.593 63.9485 257.607 62.7377 256.901 62.1655C255.896 61.3513 255.02 60.3765 254.107 59.4494C253.566 58.8971 252.916 58.7132 252.26 59.0533C251.62 59.3829 251.643 60.0909 251.663 60.7184C251.736 62.9935 252.863 64.7755 254.389 66.3439C255.154 67.1331 255.905 67.9193 256.418 68.9054C256.587 69.2274 256.837 69.5645 256.453 69.8851C256.139 70.1472 255.741 70.1257 255.417 69.9414C254.548 69.4466 253.773 68.8188 253.206 67.9917C252.465 66.9064 251.497 66.0411 250.561 65.1381C250.007 64.6028 249.351 64.1571 248.608 64.5326C247.835 64.9223 247.597 65.7334 247.753 66.556C248.142 68.6261 248.824 70.5756 250.3 72.1619C251.259 73.192 252.227 74.2152 253.143 75.2832C253.416 75.603 253.97 76.0039 253.567 76.4828C253.179 76.9379 252.579 76.7428 252.112 76.4911C250.671 75.7133 249.528 74.5831 248.517 73.3124C247.998 72.6622 247.491 71.9916 246.909 71.3999C246.407 70.8904 245.738 70.6733 245.035 70.9808C244.281 71.3129 244.269 71.9948 244.281 72.7064C244.347 76.2074 246.266 78.6268 248.883 80.6516C249.581 81.1904 250.359 81.6604 250.808 82.4531C251.042 82.8644 251.674 83.2804 251.133 83.7993C250.738 84.1806 250.107 84.1138 249.647 83.8653C248.638 83.3199 247.681 82.6859 246.895 81.8267C245.977 80.8259 245.053 79.8387 244.102 78.8689C243.665 78.4251 243.194 77.9955 242.678 77.6508C242.183 77.3225 241.656 76.7732 240.986 77.2479C240.386 77.674 240.131 78.3411 240.271 79.0466C240.892 82.1794 242.075 85.0314 244.596 87.1489C245.355 87.7838 246.198 88.3127 246.999 88.8997C247.334 89.1442 247.689 89.3715 247.972 89.6675C248.478 90.2005 249.123 90.9016 248.576 91.5684C247.995 92.2795 247.061 91.9037 246.435 91.4405C244.887 90.289 243.458 88.9972 242.273 87.4582C241.861 86.9233 241.405 86.4161 240.953 85.9122C240.425 85.3193 239.768 85.0113 238.99 85.3036C238.178 85.6068 238.272 86.3603 238.267 87.0387C238.232 90.3706 239.96 92.8647 242.184 95.0828C243.33 96.2263 244.536 97.3081 245.212 98.8112C245.764 100.042 245.479 100.441 244.166 100.439C243.449 100.438 242.917 100.141 242.361 99.6726C240.224 97.8758 238.877 95.3901 236.819 93.5344C236.706 93.4294 236.638 93.2697 236.515 93.1784C235.861 92.689 235.244 91.8663 234.328 92.3262C233.355 92.8142 233.555 93.787 233.692 94.6806C234.286 98.5864 236.359 101.62 239.29 104.145C240.275 104.997 241.369 105.742 242.021 106.91C242.266 107.344 242.711 107.832 242.288 108.334C241.858 108.848 241.232 109.009 240.579 108.741C239.271 108.202 238.041 107.537 237.032 106.518C236.04 105.519 234.996 104.585 233.798 103.829C233.204 103.456 232.573 103.231 231.888 103.196C231.217 103.163 230.464 103.049 230 103.683C229.476 104.4 230.121 104.933 230.417 105.514C230.864 106.391 231.29 107.278 231.727 108.162C232.901 110.551 234.905 112.099 237.1 113.461C237.946 113.987 238.691 114.629 239.152 115.545C239.434 116.1 239.543 116.635 239.011 117.11C238.502 117.564 237.922 117.513 237.42 117.171C236.955 116.856 236.552 116.432 236.162 116.02C234.052 113.79 231.969 111.535 229.498 109.685C228.796 109.16 228.048 108.699 227.212 109.241C226.255 109.857 226.78 110.742 227.015 111.506C228.11 115.058 229.878 118.176 232.724 120.666C233.926 121.717 235.244 122.726 235.845 124.318C236.063 124.894 236.135 125.423 235.61 125.888C235.091 126.346 234.625 126.457 233.934 126.096C231.819 124.994 230.402 123.023 228.385 121.805C227.317 121.16 226.359 120.328 225.275 119.724C224.726 119.417 223.962 119.124 223.373 119.725C222.872 120.233 222.994 120.908 223.213 121.495C224.035 123.696 224.971 125.835 226.801 127.444C228.325 128.784 229.81 130.169 231.305 131.543C231.728 131.93 232.217 132.289 232.507 132.762C232.895 133.399 233.047 134.195 232.481 134.801C231.974 135.346 231.368 135.03 230.762 134.755C228.572 133.755 226.985 131.993 225.201 130.487C224.041 129.509 222.862 128.574 221.536 127.831C221.09 127.582 220.673 127.158 220.108 127.503C219.5 127.872 219.361 128.469 219.399 129.133C219.525 131.323 220.657 133.048 221.972 134.692C223.419 136.504 225.28 137.84 227.132 139.196C228.018 139.845 228.898 140.521 229.296 141.604C229.546 142.283 229.883 143.031 229.117 143.595C228.398 144.122 227.625 144.038 226.936 143.499C225.295 142.218 223.638 140.951 222.053 139.603C220.817 138.552 219.484 137.647 218.122 136.787C217.313 136.278 216.365 135.902 215.491 136.606C214.538 137.376 215.014 138.333 215.406 139.177C216.838 142.279 219.089 144.701 221.811 146.727C222.934 147.562 224.083 148.383 225.104 149.335C226.458 150.601 226.348 152.017 225.072 152.797C224.204 153.33 223.63 152.799 223.1 152.394C220.788 150.621 218.532 148.77 216.243 146.963C215.551 146.417 214.852 145.861 214.091 145.418C213.46 145.049 212.724 144.786 212.05 145.379C211.428 145.923 211.369 146.612 211.588 147.38C212.416 150.293 214.31 152.522 216.422 154.541C217.808 155.864 219.421 156.957 220.975 158.098C221.598 158.555 222.034 159.086 222.248 159.813C222.437 160.457 222.434 161.069 221.889 161.541C221.307 162.047 220.624 162.079 219.992 161.683C217.391 160.054 214.806 158.398 212.217 156.745C211.865 156.521 211.546 156.249 211.204 156.008C210.742 155.683 210.261 155.529 209.775 155.945C209.316 156.338 209.339 156.798 209.506 157.362C210.579 160.975 212.893 163.628 215.886 165.792C216.974 166.577 218.152 167.3 218.647 168.67C218.815 169.136 218.903 169.608 218.442 169.947C218.034 170.248 217.639 170.042 217.297 169.774C216.19 168.905 214.955 168.153 214.023 167.125C212.663 165.62 211.041 164.551 209.302 163.588C208.597 163.201 207.856 162.75 207.12 163.263C206.287 163.842 206.753 164.658 207.001 165.395C207.098 165.682 207.115 165.997 206.95 166.42C206.416 165.586 205.866 164.758 205.353 163.913C204.703 162.849 204.126 161.737 203.434 160.701C202.348 159.076 202.097 157.631 202.963 155.638C203.623 154.119 203.822 152.278 204.328 150.594C205.533 146.562 208.21 143.501 210.943 140.507C212.712 138.568 213.897 136.366 214.79 133.959C215.026 133.319 215.274 132.524 214.648 132.075C214.046 131.645 213.483 132.244 213.007 132.638C211.588 133.797 210.331 135.131 209.224 136.569C206.319 140.339 202.717 143.447 199.472 146.896C198.626 147.797 196.994 147.383 196.715 146.2C196.233 144.153 195.794 142.245 197.087 140.081C200.309 134.681 203.249 129.103 205.858 123.371C206.401 122.177 206.73 120.904 206.765 119.601C206.801 118.29 206.229 117.994 205.136 118.716C203.493 119.803 202.369 121.359 201.354 123.016C198.851 127.101 196.364 131.201 193.173 134.807C191.777 136.386 189.376 136.418 188.879 134.78C188.353 133.039 187.773 131.151 188.824 129.314C189.499 128.141 190.122 126.939 190.78 125.756C192.167 123.251 193.648 120.794 194.926 118.237C196.075 115.936 196.545 113.424 196.576 110.847C196.594 109.336 196.561 107.822 196.541 106.312C196.531 105.687 196.602 104.954 195.843 104.732C195.169 104.535 194.658 105.02 194.237 105.482C193.02 106.822 192.305 108.446 191.766 110.14C190.965 112.652 190.613 115.33 189.147 117.598C187.857 119.594 187.097 121.934 185.209 123.547C183.434 125.063 181.849 124.497 180.699 122.551C178.853 119.435 180.835 117.215 181.99 114.746C184.084 110.264 186.134 105.77 186.8 100.796C187.041 99.0106 187.039 97.2611 186.289 95.5817C186.041 95.0264 185.958 94.323 185.152 94.2533C184.403 94.1891 184.028 94.7413 183.658 95.2363C182.284 97.0762 181.765 99.24 181.187 101.415C180.175 105.222 179.355 109.132 176.901 112.385C176.383 113.072 175.941 113.958 174.806 113.626C173.661 113.296 172.909 112.791 172.542 111.423C172.058 109.607 172.827 108.25 173.606 106.913C175.371 103.876 177.055 100.807 178.545 97.628C179.758 95.036 178.81 92.4845 178.19 90.0031C177.913 88.901 176.697 89.213 175.974 89.8332C174.813 90.8257 173.921 92.054 173.502 93.5508C173.221 94.5643 172.798 95.5171 172.238 96.3924C171.583 97.4174 171.112 98.4922 170.821 99.6738C170.422 101.308 169.29 102.518 168.132 103.624C167.308 104.411 166.493 103.946 166.337 102.821C166.145 101.431 166.913 100.364 167.609 99.3914C170.498 95.3558 172.018 90.8095 172.981 86.0201C173.221 84.8262 173.134 83.6293 173.03 82.4361C172.968 81.7189 172.618 81.1254 171.863 80.927C171.189 80.7503 170.622 81.0313 170.185 81.5311C169.496 82.3219 169.024 83.2389 168.573 84.1923C166.974 87.5718 166.19 91.3062 164.053 94.4456C163.788 94.8341 163.51 95.2129 163.226 95.5852C162.679 96.2989 161.97 96.8517 161.084 96.3606C160.157 95.847 160.445 94.8702 160.708 94.1157C161.143 92.8772 162.112 91.9359 162.792 90.833C165.088 87.1261 167.072 83.2916 166.727 78.7289C166.622 77.3276 166.615 75.4674 165.05 75.1994C163.62 74.9553 163.178 76.7547 162.698 77.9136C161.371 81.1327 160.231 84.4316 158.319 87.3814C158.064 87.7731 157.79 88.1518 157.502 88.5174C156.758 89.4638 155.688 89.3663 154.763 89.0978C153.59 88.7573 153.647 87.5069 153.563 86.592C153.471 85.6202 154.236 84.8614 155.153 84.7407C156.335 84.5872 156.831 83.8544 157.337 82.9737C158.501 80.9435 159.782 78.9847 160.436 76.6971C160.767 75.5313 161.021 74.3774 160.961 73.1597C160.925 72.4419 160.762 71.7672 160.059 71.4635C159.297 71.1343 158.881 71.8049 158.524 72.2593C157.724 73.2842 156.861 74.3104 156.321 75.4706C155.304 77.652 153.749 79.375 152.071 81.0202C151.244 81.8341 149.371 82.1168 148.786 81.5486C148.057 80.8392 148.046 78.0288 148.908 77.4425C150.72 76.2075 151.388 74.2386 152.166 72.4183C153.271 69.8354 153.874 67.0687 154.292 64.2792C154.38 63.6963 154.518 63.0821 153.865 62.7707C153.276 62.4914 152.71 62.7926 152.274 63.1614C151.11 64.1405 150.087 65.2642 149.475 66.6745C148.493 68.929 146.98 70.8795 145.893 73.0691C145.571 73.7209 145.126 74.3283 144.331 74.02C143.503 73.6989 142.349 73.6166 142.186 72.455C142.006 71.1762 141.854 69.9001 142.635 68.6708C143.325 67.5812 143.889 66.3936 144.008 65.0512C144.064 64.4119 144.366 63.8815 144.906 63.4701C146.39 62.3363 146.702 60.7378 146.519 59.009C146.391 57.7962 145.671 57.5064 144.69 58.2229C144.398 58.4341 144.145 58.715 143.929 59.0052C142.847 60.466 141.757 61.9237 140.712 63.4139C139.533 65.0952 137.878 65.766 136.488 65.0609C135.501 64.5587 134.937 61.8678 135.617 60.4561C136.271 59.1019 136.91 57.7078 137.797 56.5065C138.794 55.1549 138.882 53.6117 139.209 52.1035C139.365 51.3748 139.155 50.6977 138.53 50.3218C137.807 49.8843 137.238 50.3769 136.765 50.8977C135.716 52.0522 134.598 53.1478 133.94 54.6162C133.69 55.169 133.239 55.649 132.814 56.1082C132.298 56.6669 131.601 56.6955 130.92 56.4955C130.246 56.2987 130.142 55.7032 130.119 55.1127C130.052 53.2841 130.174 51.4547 130.881 49.7569C131.354 48.6183 131.232 47.5128 131.12 46.3803C131.055 45.7202 130.665 45.1377 130.055 44.9395C129.363 44.7195 129.049 45.4282 128.769 45.8675C128.127 46.8755 127.622 47.9678 127.015 48.9985C126.817 49.3319 126.629 49.833 126.126 49.7533C125.717 49.685 125.69 49.239 125.568 48.8924C125.432 48.5025 125.271 48.0963 125.015 47.7829C123.393 45.7935 123.606 43.8513 124.938 41.7873C125.759 40.5168 126.249 39.0689 126.273 37.5136C126.282 36.8419 126.151 36.247 125.458 35.9733C124.745 35.6934 124.232 36.121 123.828 36.6033C123.362 37.1608 122.877 37.7456 122.591 38.4033C122.017 39.7188 121.127 40.4199 119.674 40.1897C118.356 39.9801 117.575 39.0468 117.135 37.8979C116.632 36.5859 116.231 35.2111 116.516 33.7744C116.753 32.5805 116.498 31.844 115.083 31.8212C113.83 31.8015 113.813 31.0027 114.149 30.0719C114.536 28.9956 114.93 27.9192 115.297 26.8332C115.465 26.3393 115.589 25.8296 115.389 25.3034C115.17 24.7239 115.046 23.9677 114.354 23.8686C113.749 23.7811 113.382 24.4036 113.056 24.8708C112.638 25.4676 112.233 26.0775 111.86 26.7069C111.574 27.1866 111.233 27.6071 110.642 27.5159C109.905 27.401 110.113 26.7383 110.042 26.253C109.777 24.4756 111.159 23.0049 110.99 21.2389C110.981 21.1384 111.036 21.0365 111.043 20.9322C111.124 19.9868 111.262 18.8992 110.166 18.5168C109.093 18.1474 108.649 19.2283 108.118 19.8812C107.731 20.3565 107.542 20.9852 107.221 21.5194C106.906 22.04 106.624 22.7312 105.829 22.5337C105.07 22.3454 105.23 21.6267 105.215 21.0897C105.189 20.2072 105.213 19.3168 105.308 18.4416C105.392 17.6506 105.402 16.8781 105.146 16.1214C104.797 15.078 103.883 14.8528 103.126 15.6484C102.806 15.9845 102.577 16.4092 102.329 16.8075C101.985 17.3624 101.65 17.9339 100.86 17.5112C100.151 17.1338 99.7054 16.6164 100.053 15.7357C100.474 14.6721 100.434 13.5951 100.101 12.5177C99.8399 11.6738 99.3637 10.8414 98.4677 10.8274C97.5212 10.8145 97.2945 11.6891 97.2862 12.5423C97.2811 12.9285 97.1505 13.2705 96.7357 13.3971C96.2841 13.5346 95.914 13.3949 95.6364 13.0182C95.6052 12.9752 95.5639 12.9358 95.5494 12.8891C94.4248 9.50199 91.4643 9.63045 88.7074 9.21384C87.6162 9.04963 86.9557 7.94921 86.2278 7.15584C85.1894 6.02002 84.2857 4.7268 82.4429 5.61661C82.3596 5.65873 82.2115 5.66196 82.1365 5.61659C80.4673 4.58857 78.2709 4.70371 76.8087 3.28164C75.7525 2.25367 74.4915 1.87155 73.1201 1.83434C69.8314 1.73828 66.538 1.73298 63.2469 1.67727C62.6472 1.66686 61.9665 1.64479 61.7784 2.28356C61.5591 3.03382 62.278 3.41771 62.8084 3.65126C63.8998 4.13112 65.0374 4.71742 66.1912 4.81646C69.0117 5.06043 71.6942 6.07974 74.5119 6.19953C77.2691 6.32063 79.662 7.33955 81.9912 8.67888C82.9802 9.24828 84.1645 9.50784 85.0977 10.1456C87.2958 11.649 89.4025 13.2887 91.5321 14.8909C91.6724 14.9953 91.7119 15.2597 91.76 15.4568C92.1586 17.0566 93.1214 17.9724 94.8243 18.0796C95.3268 18.1123 95.9639 18.142 96.1054 18.7635C96.2243 19.2747 95.777 19.6102 95.4028 19.8971C94.7636 20.3879 93.6709 20.7744 93.9942 21.7008C94.3715 22.7873 95.5746 22.6737 96.5781 22.6753C97.5648 22.6772 98.5674 22.4807 99.5376 22.8088C99.9142 22.9382 100.437 22.9805 100.429 23.5348C100.419 24.1461 99.886 24.2686 99.4293 24.3256C98.6535 24.4231 97.8619 24.4102 97.0861 24.501C96.73 24.5424 96.3423 24.6751 96.3119 25.1358C96.2894 25.4922 96.5335 25.7186 96.8293 25.8498C97.2543 26.0353 97.7018 26.3277 98.1359 26.3149C99.9399 26.2721 101.457 27.4445 103.308 27.3671C104.478 27.3181 104.701 28.4045 103.9 29.369C103.352 30.0324 102.008 30.458 102.693 31.5915C103.315 32.6189 104.448 32.1072 105.429 31.9716C106.956 31.7603 108.452 31.9626 109.791 32.8031C110.484 33.2413 110.837 33.838 110.367 34.6509C109.617 35.9433 109.998 36.5897 111.647 36.5168C110.713 37.4136 109.652 37.2219 108.717 37.4472C107.99 37.6242 107.202 37.7925 107.152 38.7104C107.101 39.6081 107.849 39.9376 108.535 40.1946C109.74 40.6518 111.024 40.6876 112.251 40.4526C114.015 40.1152 114.912 41.2541 115.668 42.3927C116.35 43.4255 115.503 43.9343 114.555 44.0121C113.254 44.1211 111.944 44.1128 110.634 44.1414C109.864 44.1582 109.088 44.249 108.902 45.1396C108.704 46.0841 109.4 46.5021 110.139 46.8822C112.07 47.8676 114.07 48.2033 116.209 47.7335C117.961 47.346 119.366 48.1447 120.658 49.1844C121.142 49.5734 121.51 50.1026 121.977 50.5122C122.495 50.9676 123.197 51.4694 122.982 52.139C122.714 52.9709 121.762 53.0118 120.979 53.0558C119.569 53.1336 118.155 53.1175 116.75 53.2355C115.903 53.3077 114.949 53.5771 114.846 54.5531C114.743 55.546 115.713 55.8941 116.461 56.217C118.307 57.0128 120.237 57.4978 122.257 57.1851C124.09 56.8999 125.19 58.068 126.314 59.1213C126.946 59.7119 126.469 60.5182 126.241 61.1813C126.003 61.8682 125.423 61.9682 124.708 61.9334C123.039 61.8456 121.366 61.862 119.696 61.8582C118.851 61.8565 118.04 62.0455 117.256 62.3749C116.765 62.5804 116.23 62.7331 116.19 63.372C116.153 64.0075 116.473 64.484 117.048 64.7401C119.245 65.7096 121.441 66.6824 123.928 66.5979C125.338 66.5503 126.756 66.5865 128.161 66.4551C129.572 66.3269 130.619 67.2274 131.853 67.5867C132.412 67.7491 132.469 68.3757 132.424 68.9241C132.373 69.5296 131.982 69.7934 131.444 69.9965C129.814 70.6131 128.096 70.8588 126.391 70.9833C124.589 71.1134 122.929 71.744 121.192 72.0841C120.314 72.2545 119.523 72.7452 119.516 73.6621C119.512 74.5554 120.366 74.8154 121.153 75.077C125.481 76.5103 129.817 76.1302 134.128 75.1058C135.753 74.7211 136.907 75.4447 137.944 76.3791C138.556 76.9299 138.566 77.8665 137.777 78.4177C136.818 79.0834 135.884 79.6477 134.509 79.436C131.556 78.9767 128.711 79.9152 125.862 80.5483C125.363 80.66 125.084 81.1261 125.064 81.6135C125.035 82.3025 125.431 82.8311 126.049 83.0795C127.398 83.6276 128.752 84.2529 130.24 84.2372C133.529 84.2022 136.837 84.4355 140.077 83.6462C140.921 83.4397 141.726 83.4523 142.546 83.6963C143.332 83.931 144.239 83.9616 144.148 85.1959C144.062 86.3395 143.547 87.1164 142.429 87.2953C139.805 87.7119 137.169 88.0583 134.537 88.3978C133.247 88.567 131.92 88.5624 130.778 89.3094C129.749 89.9833 129.736 90.907 130.852 91.4401C134.067 92.9749 137.327 93.6022 140.976 92.7737C143.456 92.2124 146.064 91.5107 148.692 92.0611C149.409 92.21 150.434 92.2279 150.493 93.2508C150.554 94.3274 150.181 95.2892 149.067 95.8105C146.784 96.8778 144.38 97.659 141.893 97.8745C139.849 98.0502 137.895 98.6335 135.866 98.8356C135.11 98.9126 134.029 98.9261 134.049 100.131C134.069 101.222 134.958 101.542 135.83 101.822C141.168 103.555 146.313 103.245 151.186 100.314C153.057 99.1888 154.905 99.6286 156.726 100.351C157.565 100.682 157.297 102.293 156.27 102.913C155.562 103.342 154.797 103.758 154.003 103.95C151.836 104.477 149.661 105.096 147.452 105.288C144.743 105.522 142.255 106.295 139.817 107.383C139.22 107.648 138.594 107.984 138.64 108.674C138.685 109.372 139.456 109.345 139.979 109.542C140.773 109.837 141.585 109.997 142.436 109.961C146.133 109.803 149.847 110.105 153.504 109.149C154.913 108.779 156.24 108.176 157.7 107.932C159.287 107.669 160.818 107.763 162.369 108.015C162.859 108.095 163.307 108.233 163.436 108.774C163.566 109.329 163.389 109.83 162.955 110.181C162.207 110.785 161.319 111.117 160.382 111.259C157.17 111.742 153.927 112.004 150.692 111.749C148.475 111.572 146.316 111.828 144.134 112.013C143.217 112.09 142.398 112.524 142.258 113.384C142.131 114.166 142.938 114.574 143.628 114.882C148.739 117.161 153.972 117.792 159.485 116.443C162.168 115.786 164.987 115.953 167.751 116.067C168.314 116.092 169.095 116.082 169.271 116.894C169.462 117.766 169.037 118.373 168.334 118.872C167.256 119.638 166.041 120.131 164.815 120.541C159.954 122.168 154.988 122.837 149.875 122.022C148.943 121.874 147.995 121.942 147.066 122.117C146.325 122.257 145.541 122.476 145.463 123.351C145.384 124.192 146.063 124.624 146.744 124.948C147.778 125.439 148.78 126.122 149.872 126.344C152.538 126.887 155.135 127.391 157.995 127.15C162.882 126.738 167.294 124.298 172.221 124.314C173.242 124.319 174.164 124.47 175.071 124.977C176.404 125.724 176.563 127 175.275 127.844C174.455 128.379 173.537 128.752 172.581 129.065C167.85 130.615 162.953 130.423 158.164 129.95C156.041 129.742 153.643 130.318 151.649 128.891C151.248 128.604 150.833 128.999 150.721 129.448C150.597 129.948 150.518 130.47 150.516 130.984C150.513 132.079 150.614 133.174 150.594 134.266C150.581 135.039 150.244 135.822 149.462 135.953C148.647 136.089 148.59 135.15 148.407 134.633C147.568 132.294 147.192 129.764 145.512 127.779C145.212 127.426 144.931 127.046 144.577 126.748C144.238 126.46 143.881 126.018 143.346 126.322C142.85 126.601 142.625 127.093 142.657 127.64C142.685 128.156 142.811 128.667 142.903 129.179C143.014 129.791 143.159 130.402 143.243 131.018C143.363 131.906 143.235 132.835 142.298 133.108C141.291 133.402 141.266 132.254 140.955 131.72C139.849 129.823 139.816 127.51 138.659 125.605C138.247 124.925 137.942 124.056 137.032 124.153C135.963 124.267 135.935 125.308 135.835 126.103C135.712 127.08 135.74 128.076 135.701 129.064C135.681 129.542 135.667 130.123 135.117 130.219C134.563 130.315 134.553 129.687 134.441 129.334C133.909 127.649 133.367 125.966 132.952 124.249C132.708 123.24 132.192 122.418 131.582 121.653C131.146 121.101 130.616 120.425 129.749 120.809C129.022 121.131 128.947 121.855 128.962 122.549C128.987 123.697 129.083 124.84 129.077 125.989C129.074 126.462 129.211 127.178 128.465 127.221C127.846 127.258 127.861 126.589 127.725 126.176C127.17 124.509 127.137 122.697 126.23 121.121C125.764 120.309 125.429 119.42 124.691 118.798C124.266 118.441 123.83 117.923 123.181 118.27C122.582 118.589 122.267 119.153 122.333 119.83C122.429 120.865 122.624 121.889 122.717 122.924C122.761 123.424 122.849 124.194 122.265 124.264C121.646 124.334 121.697 123.548 121.558 123.07C121.001 121.125 120.633 119.108 119.541 117.349C119.237 116.865 118.917 116.389 118.574 115.933C118.227 115.47 117.732 115.33 117.176 115.449C116.546 115.584 116.416 116.121 116.313 116.63C116.109 117.632 116.51 118.587 116.586 119.569C116.619 120.015 116.717 120.648 116.089 120.708C115.537 120.761 115.585 120.142 115.499 119.764C115.268 118.748 115.05 117.726 114.863 116.702C114.756 116.124 114.519 115.615 114.182 115.139C113.748 114.524 113.236 113.897 112.434 114.055C111.673 114.206 111.553 115.005 111.375 115.66C111.363 115.711 111.36 115.765 111.348 115.815C111.175 116.538 111.515 117.766 110.604 117.806C109.719 117.845 109.45 116.656 109.153 115.833C108.995 115.393 108.837 114.943 108.613 114.535C108.241 113.858 107.922 112.975 107.033 112.958C106.12 112.937 106.084 113.929 105.72 114.524C105.538 114.817 105.498 115.318 105.05 115.285C104.628 115.253 104.571 114.788 104.442 114.455C104.085 113.533 103.732 112.61 103.392 111.684C103.127 110.968 102.722 110.325 101.945 110.191C101.198 110.063 100.887 110.772 100.534 111.26C99.5399 112.638 99.5704 112.644 98.7554 111.1C98.4394 110.506 98.0766 109.93 97.6807 109.381C97.1911 108.703 96.5689 108.431 95.8175 109.025C95.3176 109.419 94.8361 109.574 94.2609 109.14C91.7273 107.231 88.8877 105.802 86.2952 103.971C80.4707 99.8609 74.5386 95.9072 68.6619 91.8717C67.8927 91.3445 67.2083 90.6912 66.4783 90.1095C66.2281 89.9101 66.0424 89.4239 65.6001 89.8298C65.2237 90.1738 65.2654 90.5423 65.5268 90.9462C66.405 92.3038 67.4057 93.5613 68.5057 94.7462C72.9957 99.581 78.4873 103.249 83.4993 107.471C86.1545 109.707 89.0069 111.72 91.7965 113.791C92.5016 114.313 93.2669 114.817 94.156 114.975C95.2715 115.172 95.2321 115.677 94.6904 116.471C93.8551 117.695 94.1121 118.21 95.582 118.594C96.7538 118.901 97.86 118.36 99.0066 118.439C99.3068 118.459 99.7271 118.433 99.8791 118.608C100.187 118.97 99.7721 119.258 99.5661 119.538C99.1342 120.118 98.5127 120.649 98.9416 121.476C99.4021 122.362 100.272 122.095 101.031 122.155C102.12 122.246 102.966 121.344 104.053 121.468C104.357 121.502 104.722 121.4 104.881 121.752C105.04 122.108 104.749 122.343 104.531 122.546C104.036 123.006 103.496 123.418 102.994 123.872C102.569 124.261 102.448 124.76 102.659 125.296C102.869 125.839 103.375 125.862 103.849 125.845C105.192 125.792 106.549 125.967 107.819 125.227C108.521 124.819 109.376 124.646 110.338 124.769C110.101 125.926 109.19 126.312 108.316 126.718C107.59 127.056 106.713 127.461 106.826 128.305C106.95 129.212 107.897 129.383 108.759 129.569C111.006 130.05 112.794 128.813 114.728 128.119C115.196 127.951 115.71 127.416 116.109 127.961C116.439 128.411 116.051 128.99 115.719 129.377C114.606 130.667 113.006 131.286 111.636 132.226C110.783 132.812 109.515 133.344 109.782 134.463C110.082 135.725 111.475 135.366 112.489 135.374C115.173 135.389 117.446 134.305 119.499 132.686C120.28 132.067 121.089 131.502 122.046 131.193C122.326 131.103 122.68 130.947 122.87 131.316C123.007 131.581 122.773 131.795 122.612 132.003C121.921 132.898 120.931 133.376 119.977 133.908C119.122 134.383 117.916 134.839 118.166 135.952C118.423 137.105 119.695 136.748 120.605 136.755C123.067 136.775 125.025 135.315 127.192 134.475C127.482 134.361 127.748 134.178 128.042 134.097C128.37 134.01 128.778 133.712 129.046 134.112C129.29 134.476 129.222 134.924 128.988 135.299C128.386 136.259 127.425 136.807 126.508 137.405C125.463 138.089 124.41 138.767 123.371 139.458C122.813 139.829 122.393 140.329 122.634 141.022C122.864 141.682 123.52 141.651 124.099 141.662C126.842 141.719 129.124 140.471 131.368 139.112C132.481 138.436 133.584 137.747 134.701 137.075C135.026 136.876 135.41 136.381 135.741 136.918C135.985 137.309 135.886 137.835 135.527 138.225C134.389 139.466 133.081 140.485 131.579 141.246C131.3 141.387 130.974 141.448 130.722 141.621C129.969 142.138 128.811 142.606 129.34 143.73C129.778 144.657 130.902 144.931 131.929 144.768C135.097 144.259 137.858 142.886 140.26 140.758C140.802 140.279 141.416 139.866 142.044 139.51C142.404 139.304 142.881 139.284 143.193 139.673C143.508 140.066 143.345 140.466 143.083 140.821C141.994 142.302 140.36 143.039 138.813 143.889C138.267 144.186 137.683 144.417 137.155 144.741C136.633 145.062 135.95 145.402 136.189 146.166C136.41 146.87 137.151 146.894 137.765 146.958C140.917 147.272 143.56 145.988 146.079 144.301C147.2 143.548 148.357 142.841 149.534 142.177C149.897 141.975 150.393 141.574 150.817 142.025C151.166 142.397 151.059 142.92 150.887 143.363C150.351 144.728 149.277 145.665 148.144 146.499C146.888 147.427 145.562 148.258 144.247 149.099C143.816 149.377 143.375 149.538 142.779 149.417C141.18 149.096 140.91 149.417 140.829 151.075C140.71 153.492 141.898 155.615 142.281 157.917C142.417 158.736 142.734 159.535 142.527 160.379C142.357 161.065 142.046 161.646 141.248 161.794C140.5 161.931 140.229 161.383 139.949 160.892C138.717 158.75 138.316 156.291 137.348 154.042C136.695 152.525 135.854 151.193 134.618 150.099C134.12 149.66 133.577 149.319 132.92 149.609C132.167 149.941 132.146 150.683 132.208 151.36C132.38 153.23 132.71 155.07 133.274 156.871C133.546 157.735 133.683 158.618 132.614 159.162C131.348 159.804 130.495 159.272 129.867 157.493C129.264 155.783 128.928 153.974 127.924 152.414C127.662 152.007 127.349 151.688 127.005 151.367C126.586 150.973 126.124 150.801 125.576 150.988C124.968 151.193 124.881 151.719 124.883 152.259C124.884 153.25 124.879 154.244 124.931 155.23C124.991 156.417 124.668 157.351 123.34 157.484C121.926 157.629 121.953 156.396 121.817 155.553C121.552 153.913 121.461 152.243 121.29 150.585C121.257 150.277 121.22 149.955 121.116 149.665C120.897 149.055 120.517 148.479 119.869 148.383C119.169 148.277 118.956 148.99 118.693 149.47C118.088 150.571 118.195 151.925 117.484 152.995C117.347 153.203 117.239 153.477 116.748 153.343C116.889 152.417 116.986 151.458 117.194 150.526C117.483 149.231 117.417 147.933 117.365 146.631C117.326 145.607 117.16 144.463 115.961 144.321C114.867 144.194 114.717 145.349 114.351 146.133C113.955 146.977 113.836 148.488 112.668 148.194C111.507 147.904 112.309 146.557 112.392 145.742C112.542 144.281 112.676 142.831 112.506 141.378C112.395 140.443 112.109 139.264 111.061 139.227C110.114 139.193 109.793 140.335 109.609 141.189C109.459 141.877 109.243 142.48 108.756 142.991C108.526 143.231 108.301 143.444 107.951 143.307C107.568 143.158 107.658 142.817 107.668 142.507C107.698 141.57 107.745 140.632 107.721 139.696C107.698 138.638 107.447 137.623 106.845 136.733C106.184 135.753 105.373 135.775 104.802 136.791C104.471 137.379 104.209 138.009 103.93 138.627C103.766 138.986 103.534 139.314 103.121 139.232C102.665 139.141 102.712 138.68 102.694 138.328C102.624 136.805 102.369 135.32 101.662 133.955C101.406 133.46 101.068 132.806 100.434 132.897C99.7523 132.996 99.2727 133.547 99.0929 134.26C99.0311 134.513 99.0406 134.791 98.9345 135.022C98.7642 135.395 98.5658 135.873 98.0973 135.853C97.5783 135.831 97.5427 135.284 97.4535 134.9C97.3044 134.242 97.3126 133.536 97.0935 132.91C96.5584 131.38 95.6377 131.165 94.6171 132.386C93.9313 133.207 93.4693 133.331 92.8992 132.36C92.7697 132.138 92.6031 131.91 92.398 131.766C85.6969 127.145 80.2117 120.995 73.2847 116.667C71.6597 115.651 69.9572 114.792 68.4586 113.555C66.7544 112.152 65.1928 110.651 63.9245 108.856C63.6777 108.505 63.4561 108.07 62.9544 108.38C62.5324 108.641 62.2922 109.049 62.5395 109.581C62.7798 110.1 62.9536 110.66 63.257 111.137C65.38 114.442 68.0249 117.285 71.1348 119.679C75.4023 122.96 78.903 127.061 82.94 130.583C84.4573 131.906 85.5174 133.727 87.4061 134.636C88.3284 135.079 87.7161 135.566 87.3988 135.993C86.6528 136.989 86.9437 137.517 88.0612 137.953C89.3313 138.445 90.6241 138.122 91.9059 138.224C91.9228 139.151 90.423 139.556 91.1731 140.598C91.9546 141.686 93.1422 141.327 94.2132 141.334C94.2637 141.333 94.3173 141.322 94.3712 141.324C95.1361 141.344 96.2686 140.621 96.565 141.242C97.0063 142.173 95.5846 142.143 95.1049 142.695C94.6089 143.263 94.5659 143.606 95.1358 144.108C95.8259 144.714 96.6191 144.797 97.4771 144.765C98.5234 144.722 99.5671 144.713 100.614 144.703C100.974 144.699 101.421 144.642 101.571 145.055C101.758 145.568 101.264 145.76 100.956 146.022C100.388 146.508 99.6564 146.336 99.0103 146.508C98.4143 146.665 97.6822 146.759 97.6016 147.536C97.5325 148.229 98.187 148.44 98.6684 148.742C100.314 149.777 102.13 149.203 103.874 149.323C104.548 149.369 105.618 148.872 105.806 149.744C105.989 150.6 104.927 150.848 104.209 151.126C103.568 151.375 102.843 151.619 102.813 152.419C102.784 153.225 103.606 153.261 104.134 153.545C105.528 154.304 107.009 153.791 108.448 153.854C108.65 153.863 108.85 153.899 109.066 153.921C108.186 156.183 108.452 156.53 111.254 156.694C111.07 157.181 110.676 157.344 110.283 157.538C109.547 157.903 108.844 158.399 109.154 159.332C109.431 160.162 110.204 160.424 111.056 160.405C112.2 160.38 113.348 160.355 114.513 160.33C114.837 160.857 112.906 161.853 114.916 162C115.544 162.047 115.035 162.649 114.819 162.946C113.361 164.939 112.232 167.089 111.53 169.462C111.292 170.273 111.141 171.079 111.173 171.924C111.24 173.743 112.582 174.465 114.153 173.454C114.717 173.092 116.947 168.017 117.311 168.039C117.682 168.061 120.171 160.236 122.475 161.956C123.132 162.445 118.932 169.481 119.434 169.024C119.955 168.545 117.093 172.392 117.596 173.063C118.567 174.358 120.573 172.464 121.305 171.609C121.511 172.994 124.146 169.525 125.091 169.011C127.011 167.965 128.385 166.293 130.102 165.04C130.503 164.749 131.05 163.719 131.568 164.477C132.055 165.188 132.678 166.407 131.484 167.105C130.281 167.81 129.404 168.826 128.386 169.708C127.07 170.848 125.677 171.795 125.177 173.72C124.835 175.034 123.768 175.964 121.992 175.163C120.904 174.673 120.199 175.713 119.929 176.582C119.611 177.589 123.305 178.969 124.594 178.018C124.7 179.171 124.176 177.54 124.594 178.018C124.95 178.426 126.897 176.47 127.203 176.299C128.773 175.415 130.398 174.577 131.826 173.491C134.227 171.666 136.514 169.681 139.04 168.014C139.601 167.643 140.298 166.862 140.958 167.617C141.628 168.384 141.517 169.32 140.815 170.175C138.811 172.61 135.977 173.928 133.442 175.632C132.765 176.086 131.548 177.883 130.703 177.884C130.164 177.886 129.542 178.242 129.339 178.972C129.08 179.904 128.843 179.842 128.836 179.836C128.339 179.417 132.673 182.361 135.571 179.84C136.037 180.367 136.386 179.392 136.937 179.155C139.842 177.886 142.267 175.916 144.703 173.962C146.056 172.875 147.522 171.99 149.093 171.28C149.596 171.055 150.241 170.52 150.76 171.298C151.223 171.986 151.179 172.739 150.636 173.329C149.366 174.703 148.131 176.134 146.596 177.228C144.56 178.68 142.517 180.128 140.405 181.464C139.697 181.912 138.716 185.718 137.649 185.862C136.856 185.97 136.926 186.388 136.904 186.93C136.811 189.302 137.984 191.355 138.568 193.555C139.037 195.322 139.409 197.08 139.16 198.935C139.036 199.868 138.582 200.701 137.783 200.775C137.151 200.833 136.693 199.936 136.412 199.244C135.437 196.821 135.067 194.236 134.403 191.729C133.313 187.606 131.037 184.412 127.405 182.171C126.873 181.843 126.299 181.765 125.789 182.162C125.147 182.667 124.96 183.359 125.253 184.128C126.185 186.559 127.103 188.994 128.095 191.403C128.739 192.964 129.04 194.59 129.289 196.236C129.367 196.758 129.224 197.279 128.937 197.735C128.599 198.276 128.331 198.49 127.797 197.81C126.866 196.622 126.784 195.206 126.542 193.845C125.867 190.062 124.899 186.419 122.105 183.552C121.495 182.928 120.938 182.09 119.892 182.466C118.81 182.852 119.03 183.848 118.955 184.729C118.744 187.252 119.898 189.511 120.287 191.916C120.47 193.054 120.664 194.185 120.409 195.329C120.317 195.741 120.084 196.179 119.644 196.242C119.201 196.306 119.123 195.787 118.981 195.491C118.201 193.839 117.678 192.104 117.407 190.297C116.914 187.03 115.678 184.099 113.472 181.612C113.096 181.187 112.653 180.8 112.178 180.492C111.403 179.988 110.484 179.689 109.667 180.231C108.841 180.78 109.082 181.668 109.279 182.516C109.986 185.553 111.311 188.436 111.619 191.565C111.709 192.473 112.199 193.916 111.025 194.147C109.905 194.37 109.345 192.908 109.139 191.982C108.612 189.576 107.453 187.392 106.902 185.003C106.571 183.569 102.851 181.76 101.518 182.363C100.547 182.801 100.65 183.658 101.376 184.072C104.946 186.103 103.049 189.425 103.399 192.205C103.436 192.503 103.282 192.99 102.81 192.993C102.443 192.995 102.331 192.608 102.227 192.328C101.601 190.672 101.056 188.985 100.384 187.348C99.253 184.599 98.0123 181.909 95.3422 180.225C94.6797 179.806 94.0593 179.151 93.2486 179.807C92.4446 180.459 92.4944 181.352 92.7901 182.248C93.6017 184.719 94.4134 187.189 95.2251 189.663C95.3225 189.96 95.4601 190.249 95.5105 190.554C95.5927 191.076 95.6429 191.679 95.0417 191.907C94.4873 192.117 94.2462 191.562 93.9392 191.226C92.8557 190.031 92.4786 188.488 91.8916 187.053C90.9026 184.633 89.5734 182.517 87.1419 181.274C86.6004 180.997 86.0895 180.729 85.5607 181.187C84.9427 181.721 85.1946 182.31 85.5537 182.87C86.7739 184.777 86.9403 186.997 87.3775 189.13C87.5017 189.728 87.564 190.576 86.9122 190.799C86.2169 191.035 85.8747 190.17 85.5951 189.702C84.8261 188.413 84.2001 187.036 83.5241 185.688C82.7812 184.206 81.589 183.121 80.344 182.087C79.6513 181.515 78.7875 181.278 78.0166 181.755C77.1893 182.267 77.4646 183.154 77.7364 183.88C78.1011 184.853 78.5461 185.8 79.0176 186.727C79.2815 187.245 79.4881 187.764 79.5982 188.332C79.7085 188.911 79.8522 189.633 79.2752 189.887C78.5182 190.223 78.1703 189.408 77.907 188.913C76.8784 186.995 76.353 184.83 74.9543 183.081C74.2516 182.203 73.4775 181.451 72.4477 181.02C71.7579 180.733 70.9445 180.65 70.3527 181.15C69.7046 181.698 69.9376 182.496 70.1985 183.185C70.6058 184.257 71.0598 185.309 71.4905 186.374C71.6259 186.713 71.7981 187.045 71.8664 187.4C71.9915 188.035 72.0178 188.777 71.3435 189.047C70.7192 189.295 70.5644 188.53 70.2367 188.171C69.2947 187.134 69.1324 185.717 68.4801 184.529C67.891 183.457 67.1504 182.543 66.2935 181.699C65.7876 181.2 65.1905 180.843 64.4665 181.154C63.776 181.452 63.7975 182.126 63.7372 182.759C63.5948 184.256 64.506 185.579 64.4204 187.059C64.3965 187.506 64.6426 188.135 64.1044 188.315C63.5996 188.484 63.3367 187.858 63.0501 187.532C61.9937 186.343 61.7491 184.703 60.8422 183.42C60.2723 182.613 59.7849 181.73 58.8948 181.212C57.7931 180.575 56.9401 180.986 56.8232 182.265C56.7336 183.248 56.7587 184.244 57.0022 185.22C57.1646 185.867 57.5225 186.682 56.7901 187.071C55.9979 187.491 55.4983 186.821 55.0499 186.179C54.3964 185.243 53.7062 184.321 52.9204 183.499C52.4862 183.045 51.9274 182.436 51.1513 182.825C50.4851 183.159 50.2466 183.802 50.2626 184.534C50.2694 184.846 50.2763 185.162 50.2528 185.471C50.195 186.218 49.8727 186.265 49.3804 185.772C48.5336 184.928 47.7261 184.035 46.83 183.246C45.6591 182.21 45.1298 182.339 44.808 183.793C44.523 185.082 44.2734 185.524 42.796 184.794C41.1007 183.955 39.0461 184.242 37.1964 183.58C34.7154 182.691 32.1408 181.985 29.5536 181.477C26.2393 180.824 23.0619 179.658 19.7069 179.144C16.5477 178.659 13.3661 178.684 10.2108 178.37C7.83159 178.134 5.46825 177.698 3.06266 177.64C2.64483 177.629 2.22347 177.608 1.81021 177.651C1.42381 177.689 0.87579 177.577 0.828131 178.169C0.78579 178.697 1.25012 178.835 1.65665 178.947C3.5165 179.457 5.35777 180.041 7.23882 180.443C11.9721 181.462 16.7862 182.172 21.4409 183.451C24.1647 184.201 26.842 185.291 29.5331 186.243C32.3159 187.226 35.0869 188.291 38.033 188.737C38.577 188.819 39.0493 188.859 39.1022 189.586C39.1943 190.87 40.0238 191.232 41.1827 191.102C42.1132 190.998 43.0726 191.138 43.9628 190.729C44.2495 190.599 44.5729 190.447 44.7797 190.819C44.9549 191.134 44.7801 191.454 44.5796 191.68C44.1128 192.2 43.5427 192.773 44.0223 193.455C44.5332 194.182 45.3879 193.999 46.1865 193.867C47.6629 193.627 48.8876 192.808 50.2151 192.225C50.5252 192.087 50.8703 191.697 51.1856 192.103C51.4592 192.449 51.1702 192.785 50.9375 193.075C50.7735 193.277 50.5959 193.472 50.4491 193.687C50.1426 194.147 49.5251 194.553 49.8217 195.182C50.1641 195.906 50.9334 195.819 51.6143 195.851C53.657 195.947 54.8899 194.423 56.4219 193.489C56.8074 193.253 57.093 192.457 57.689 193.072C58.1265 193.523 58.0491 194.142 57.7578 194.679C57.5118 195.135 57.208 195.561 56.928 196C56.5567 196.579 56.4309 197.139 56.9752 197.702C57.4816 198.221 58.1032 198.312 58.7067 198.04C59.8905 197.507 61.0879 196.981 61.954 195.934C62.6561 195.086 63.5415 194.459 64.6442 193.914C65.0134 195.397 64.1076 196.169 63.2219 196.937C62.7096 197.378 62.1455 197.76 61.64 198.208C61.2503 198.555 60.8314 198.961 61.1036 199.549C61.3652 200.118 61.9646 200.118 62.4695 200.107C64.8691 200.044 66.9275 199.163 68.6244 197.454C69.3559 196.716 70.094 195.978 70.8667 195.279C71.1243 195.049 71.5033 194.822 71.8542 195.16C72.1982 195.492 71.9798 195.826 71.7745 196.139C70.9857 197.335 69.9313 198.238 68.7917 199.099C68.0032 199.694 66.7114 200.37 67.2514 201.507C67.7455 202.54 69.0097 201.989 69.9653 201.8C72.8589 201.23 75.0547 199.547 77.0607 197.498C77.6667 196.877 78.4523 195.533 79.2141 196.188C80.0275 196.886 78.8819 197.935 78.353 198.695C77.4551 199.984 76.2928 201.037 75.0374 201.992C74.6002 202.323 74.0427 202.702 74.2937 203.401C74.5194 204.021 75.1328 204.199 75.6832 204.271C77.2772 204.478 78.645 203.736 79.9419 202.986C81.7242 201.953 83.1022 200.442 84.3393 198.806C84.7484 198.267 85.1678 197.731 85.649 197.257C86.0249 196.889 86.466 196.117 87.0233 196.656C87.5083 197.125 87.3572 197.911 86.8751 198.506C85.911 199.689 84.6292 200.516 83.4786 201.488C82.404 202.395 81.357 203.334 80.2996 204.257C79.9263 204.585 79.6518 204.97 79.8415 205.483C80.0347 206.003 80.5047 206.093 80.9938 206.129C82.7442 206.252 84.2382 205.431 85.7735 204.806C88.4269 203.721 90.6322 202.007 92.5181 199.86C92.9979 199.316 93.5839 198.856 94.1706 198.427C94.4622 198.213 94.7845 197.705 95.2382 198.125C95.5784 198.44 95.5312 198.898 95.3919 199.304C94.8346 200.921 93.7236 202.168 92.5988 203.398C91.7174 204.361 90.7776 205.271 89.8994 206.23C89.5935 206.563 89.1711 206.958 89.3875 207.46C89.6606 208.093 90.3297 207.893 90.7789 207.799C93.5613 207.225 95.8482 205.704 97.9464 203.869C99.4366 202.563 100.603 200.916 102.29 199.825C102.754 199.526 103.254 198.947 103.8 199.436C104.353 199.931 104.246 200.605 103.908 201.3C102.406 204.392 100.209 206.942 97.7965 209.339C97.3417 209.792 96.5325 210.206 96.9267 210.986C97.2999 211.734 98.1439 211.369 98.7872 211.372C99.1879 211.373 99.6299 211.256 99.9827 211.067C101.261 210.381 102.29 210.03 103.817 211.014C105.101 211.842 107.019 211.441 108.569 211.021C112.606 209.922 116.158 207.887 119.196 204.993C119.572 204.635 119.993 204.324 120.41 204.016C120.901 203.653 121.442 203.02 122.042 203.483C122.556 203.882 122.415 204.691 122.219 205.263C121.674 206.836 121.092 208.41 119.54 209.341C117.326 210.665 115.828 212.843 113.677 214.25C113.322 214.483 112.835 214.853 113.086 215.402C113.333 215.947 113.926 215.813 114.345 215.727C116.812 215.206 118.851 213.879 120.704 212.237C123.684 209.593 127.008 207.471 130.573 205.715C131.096 205.458 131.653 204.882 132.221 205.632C132.717 206.289 132.719 206.987 132.246 207.666C131.06 209.361 129.536 210.67 127.726 211.67C125.394 212.96 122.973 214.024 120.442 214.878C119.623 215.155 118.323 215.452 118.526 216.576C118.729 217.703 119.993 217.443 120.914 217.517C125.994 217.92 130.118 215.718 133.987 212.796C136.147 211.164 138.21 209.396 140.631 208.138C141.833 207.514 142.174 207.741 142.211 209.121C142.244 210.456 141.479 211.386 140.591 212.205C137.208 215.328 133.463 217.942 129.347 220.03C128.288 220.57 127.174 221.064 126.314 221.929C125.559 222.688 125.709 223.232 126.777 223.393C129.159 223.748 131.461 223.372 133.68 222.484C138.915 220.388 143.054 216.725 147.173 213.049C148.405 211.95 149.876 211.314 151.319 210.597C152.008 210.257 152.262 210.624 152.44 211.204C152.861 212.602 152.122 213.625 151.315 214.603C150.305 215.828 148.991 216.74 147.654 217.514C144.678 219.235 141.932 221.336 138.775 222.755C138.074 223.069 137.442 223.58 136.857 224.087C136.464 224.428 135.747 224.732 136.089 225.447C136.357 226.001 136.984 225.874 137.496 225.903C141.064 226.107 144.311 225.089 147.305 223.237C151.345 220.741 155.163 217.928 158.814 214.896C159.595 214.248 160.516 213.902 161.378 213.427C162.104 213.028 162.315 213.473 162.369 214.09C162.472 215.24 162.136 216.214 161.327 217.081C157.888 220.763 153.737 223.399 149.146 225.386C148.382 225.719 147.58 225.958 146.801 226.257C146.214 226.481 145.522 226.708 145.473 227.428C145.415 228.288 146.207 228.5 146.825 228.724C148.607 229.374 150.517 229.379 152.221 228.781C157.377 226.969 162.095 224.351 165.976 220.405C167.218 219.142 168.38 217.773 169.943 216.886C170.492 216.575 171.176 215.966 171.796 216.476C172.407 216.977 172.05 217.764 171.807 218.38C170.854 220.805 168.983 222.438 166.924 223.917C163.009 226.732 158.421 228.055 154 229.746C153.409 229.974 152.659 230.051 152.656 230.823C152.653 231.586 153.367 231.778 153.983 231.923C157.128 232.657 160.239 233.267 163.119 230.998C163.781 230.476 164.73 230.278 165.576 230.034C169.248 228.983 172.134 226.711 174.874 224.19C175.755 223.378 176.719 222.648 177.563 221.8C178.792 220.565 180.344 219.95 181.956 219.569C183.199 219.273 182.964 220.406 182.815 220.997C182.391 222.702 181.341 224.102 180.163 225.357C176.832 228.895 172.648 231.26 168.47 233.604C166.537 234.687 164.947 236.193 163.218 237.527C162.893 237.776 162.567 238.119 162.709 238.592C162.891 239.193 163.45 239.05 163.895 239.1C165.921 239.342 167.614 238.2 169.444 237.69C176.65 235.675 182.158 230.978 187.447 226.004C188.873 224.663 190.387 223.555 192.363 223.029C192.941 225.158 192.092 226.842 190.829 228.358C186.694 233.317 182.024 237.643 176.199 240.611C175.044 241.201 173.98 241.983 172.912 242.728C172.544 242.985 172.155 243.373 172.331 243.906C172.508 244.443 173.012 244.526 173.493 244.509C175.461 244.442 177.482 244.771 179.332 243.753C179.931 243.424 180.455 243.52 181.07 243.913C183.956 245.754 187.012 245.718 190.236 244.831C197.198 242.92 202.251 238.37 206.886 233.188C208.191 231.729 209.836 230.74 211.575 229.892C212.428 229.477 212.534 229.821 212.487 230.621C212.361 232.693 211.15 234.311 209.931 235.707C206.344 239.822 202.318 243.443 196.839 244.956C195.527 245.32 194.283 245.865 193.176 246.681C192.321 247.311 192.437 247.849 193.326 248.31C193.602 248.455 193.892 248.66 194.182 248.674C199.744 248.932 205.135 248.781 209.447 244.361C212.289 241.452 214.85 238.27 217.933 235.59C219.119 234.556 220.341 233.623 221.802 232.98C222.616 232.623 222.774 232.902 222.654 233.586C222.55 234.199 222.415 234.834 222.141 235.384C220.312 239.04 218.826 242.854 215.704 245.796C213.543 247.831 210.963 249.184 208.682 250.993C207.746 251.736 206.729 252.382 205.772 253.102C205.215 253.52 204.685 254.059 204.944 254.802C205.181 255.489 205.933 255.53 206.546 255.57C210.357 255.809 213.769 254.63 216.771 252.371C220.12 249.854 222.64 246.676 224.211 242.726C225.507 239.464 228.222 237.501 231.224 235.907C231.764 235.62 232.317 235.359 233.096 234.97C232.576 237.493 231.247 239.399 229.975 241.317C227.671 244.803 225.15 248.108 222.019 250.924C220.933 251.901 220.011 253.046 219.135 254.22C218.706 254.794 218.311 255.36 218.65 256.068C219.024 256.849 219.825 256.71 220.46 256.616C223.823 256.119 226.577 254.397 229.103 252.233C231.502 250.179 233.106 247.585 234.204 244.673C235.197 242.039 237.578 240.95 239.703 239.567C240.327 239.16 240.562 239.588 240.853 240.126C243.657 245.303 246.107 250.649 248.727 255.914C249.006 256.473 249.242 257.109 250.032 257.068C251.028 257.019 251.477 256.133 250.964 255.167C248.585 250.652 246.41 246.042 244.349 241.376C243.654 239.806 243.02 238.212 242.333 236.638C242.028 235.943 242.206 235.644 242.945 235.399C244.232 234.972 245.484 235.226 246.628 235.648C250.892 237.227 254.969 236.262 259.028 234.927C260.86 234.326 262.684 233.645 264.171 232.353C264.64 231.947 265.091 231.49 265.434 230.979C266.079 230.008 265.768 229.316 264.587 229.346C262.453 229.392 260.328 229.57 258.224 230.039C253.036 231.193 248.26 230.068 243.487 227.194C245.181 226.902 246.609 226.763 247.93 227.134C252.206 228.337 256.421 227.67 260.659 226.993C265.28 226.255 269.547 224.744 273.084 221.554C273.239 221.413 273.395 221.275 273.553 221.141C274.083 220.703 274.686 220.263 274.358 219.461C274.074 218.766 273.384 218.797 272.753 218.727C270.215 218.447 267.946 219.403 265.608 220.149C262.093 221.267 258.444 221.444 254.794 221.148C253.259 221.023 251.647 221.24 250.204 220.405C249.516 220.007 248.666 219.663 248.698 218.789C248.731 217.865 249.718 217.877 250.377 217.655C251.249 217.357 252.118 217.523 252.989 217.792C257.01 219.031 260.974 218.753 264.99 217.581C269.594 216.237 273.203 213.442 276.623 210.278C277.636 209.339 278.126 208.042 278.972 206.983C279.454 206.378 279.184 205.897 278.381 205.827C277.737 205.774 277.19 206.048 276.596 206.286C271.823 208.193 267.167 210.444 262.121 211.595C260.158 212.041 258.17 211.544 256.199 211.47C255.531 211.444 254.944 210.94 254.604 210.312C254.253 209.665 254.333 209.314 255.142 208.9C257.097 207.894 259.154 208.504 261.146 208.255C265.391 207.73 269.234 206.084 273.1 204.381C275.224 203.445 277.523 202.914 279.625 201.861C281.43 200.955 282.949 199.73 284.321 198.29C284.94 197.638 285.538 196.96 285.119 195.939C284.941 195.506 285.229 195.281 285.544 195.05C286.048 194.679 286.578 194.318 286.986 193.856C287.337 193.456 288.184 193.209 287.894 192.55C287.585 191.848 286.786 192.124 286.206 192.228C284.358 192.55 282.518 192.94 280.847 193.856C280.461 194.069 280.04 194.226 279.647 194.094C277.323 193.325 275.113 194.183 272.86 194.501C270.52 194.83 268.178 195.029 266.007 193.72C265.581 193.464 265.182 193.241 265.194 192.69C265.203 192.18 265.631 192.043 266 191.843C267.211 191.189 268.408 190.756 269.868 191.003C272.693 191.482 275.339 190.524 277.907 189.538C280.008 188.73 282.127 188.922 284.25 189.007C287.118 189.119 289.602 188.305 291.625 186.253C292.09 185.783 292.688 185.276 292.436 184.506C292.172 183.713 291.404 183.978 290.813 183.91C286.009 183.364 281.361 184.086 276.783 185.53C275.304 185.995 273.803 186.038 272.406 185.128C271.853 184.768 271.667 184.285 271.678 183.673C271.686 182.998 272.201 182.829 272.703 182.667C273.151 182.523 273.611 182.311 274.066 182.315C277.073 182.343 279.963 181.572 282.896 181.108C287.345 180.4 291.658 179.261 295.627 177.066C295.943 176.891 296.234 176.663 296.509 176.428C296.985 176.018 297.557 175.566 297.273 174.867C296.999 174.198 296.284 174.462 295.734 174.421C291.633 174.107 287.818 175.507 283.917 176.398C282.269 176.773 280.591 176.749 278.921 176.584C278.172 176.51 277.423 176.164 277.258 175.365C277.07 174.469 278.044 174.501 278.516 174.249C280.4 173.244 282.593 173.576 284.603 172.965C289.638 171.434 294.752 170.14 299.115 167.003C299.864 166.463 301.013 165.9 300.639 164.935C300.346 164.185 299.116 164.588 298.33 164.689C295.459 165.058 292.831 166.207 290.163 167.259C288.42 167.945 286.52 168.037 284.644 167.906C283.909 167.855 283.329 167.485 283.204 166.702C283.052 165.749 283.978 165.762 284.453 165.61C286.038 165.102 287.658 164.674 289.292 164.363C294.57 163.368 299.522 161.588 303.939 158.479C304.52 158.07 305.428 157.59 305.017 156.81C304.599 156.013 303.576 156.341 302.874 156.571C299.714 157.618 296.588 158.76 293.439 159.83C292.336 160.203 291.18 160.312 290.081 159.823C289.636 159.624 289.025 159.406 289.055 158.767C289.083 158.186 289.73 158.091 290.105 157.975C291.694 157.477 293.311 157.069 294.933 156.691C298.437 155.876 301.822 154.684 305.229 153.562C306.533 153.133 307.708 152.477 308.717 151.538C308.939 151.335 309.33 151.225 309.187 150.836C309.065 150.506 308.7 150.413 308.394 150.447C307.097 150.583 305.775 150.635 304.522 150.944C302.154 151.53 299.701 151.762 297.403 152.638C296.882 152.837 296.372 152.731 295.917 152.405C295.581 152.167 295.497 151.823 295.512 151.443C295.529 150.996 295.836 150.879 296.214 150.743C301.305 148.902 306.542 147.536 311.71 145.942C313.209 145.479 314.622 144.81 315.968 144.005C316.314 143.8 316.818 143.614 316.679 143.103C316.54 142.592 316.007 142.701 315.606 142.683C312.316 142.54 309.212 143.364 306.155 144.461C305.377 144.74 304.556 144.923 303.741 145.082C303.315 145.165 302.845 145.061 302.819 144.504C302.793 143.944 303.298 144.097 303.623 144.013C307.688 142.934 311.952 142.673 315.894 141.072C317.446 140.44 318.945 139.723 320.193 138.584C320.527 138.281 320.916 137.886 320.699 137.364C320.471 136.808 319.916 136.961 319.464 136.931C317.541 136.802 315.919 137.774 314.258 138.472C313.013 138.996 311.724 139.031 310.46 139.3C309.854 139.431 309.275 139.279 309.191 138.509C309.115 137.815 309.606 137.636 310.159 137.53C312.409 137.098 314.642 136.502 316.91 136.271C319.333 136.024 321.583 135.303 323.824 134.462C324.372 134.255 324.868 133.982 325.187 133.461C325.528 132.9 325.437 132.277 324.81 132.244C323.525 132.178 322.298 131.506 320.955 131.989C319.709 132.436 318.369 132.277 317.071 132.356C316.516 132.388 315.922 132.213 315.885 131.589C315.837 130.768 316.63 130.999 317.06 130.946C321.164 130.44 325.165 129.56 328.932 127.795C329.215 127.661 329.537 127.574 329.772 127.384C330.212 127.032 330.776 126.657 330.559 125.99C330.354 125.363 329.716 125.438 329.211 125.482C327.652 125.617 326.1 125.805 324.58 126.194C324.081 126.323 323.548 126.449 323.046 126.403C322.502 126.354 322.005 125.952 322.007 125.394C322.007 124.793 322.648 124.994 323.007 124.943C326.78 124.397 330.513 123.721 333.961 121.997C334.9 121.526 336.155 120.841 335.721 119.779C335.205 118.514 333.838 119.132 332.811 119.467C331.28 119.967 329.711 119.84 328.148 119.79C327.602 119.772 327.058 119.394 327.049 118.85C327.04 118.28 327.703 118.534 328.056 118.395C330.784 117.308 333.763 117.256 336.531 116.323C337.674 115.939 338.569 115.305 339.297 114.385C339.936 113.582 339.66 113.112 338.706 113.069C337.61 113.022 336.514 113.069 335.427 113.291C334.134 113.565 332.854 113.569 331.496 112.736ZM229.875 214.083C228.957 213.985 228.766 213.405 228.376 213.095C227.697 212.556 227.041 211.979 226.138 212.385C225.261 212.78 225.098 213.643 225.11 214.506C225.131 216.117 225.109 217.73 225.511 219.323C226.157 221.891 226.732 224.474 227.29 227.061C227.391 227.535 227.523 228.194 226.841 228.387C226.262 228.551 225.918 228.081 225.569 227.669C224.49 226.393 224.28 224.937 224.332 223.304C224.491 218.106 224.869 212.876 223.249 207.797C222.989 206.983 222.647 206.115 221.751 205.966C220.937 205.829 220.544 206.661 220.129 207.244C219.737 207.793 219.457 208.384 219.252 209.05C218.08 212.856 218.543 216.809 218.136 220.683C218.033 221.669 217.994 222.66 217.712 223.613C217.505 224.31 216.969 224.758 216.262 224.908C215.565 225.057 215.302 224.458 214.906 224.047C214.052 223.163 214.055 222.071 214.038 220.977C213.992 217.952 213.942 214.928 213.927 211.903C213.911 209.17 213.241 206.538 212.731 203.88C212.591 203.141 212.162 202.472 211.354 202.338C210.472 202.19 210.049 202.864 209.737 203.549C209.435 204.21 209.15 204.885 208.936 205.578C208.072 208.407 208.051 211.312 208.082 214.24C208.1 216.157 207.805 218.081 207.595 219.996C207.485 220.992 206.744 221.583 205.874 221.837C205.007 222.091 204.865 221.127 204.401 220.697C203.562 219.916 203.678 218.896 203.65 217.923C203.55 214.446 203.874 210.944 202.592 207.563C202.024 206.065 201.796 204.441 201.382 202.882C201.25 202.384 201.187 201.976 201.746 201.695C203.895 200.624 205.897 199.325 207.871 197.962C208.624 197.442 209.562 197.082 210.526 197.094C213.446 197.135 215.679 195.625 217.797 193.897C219.666 192.372 219.741 192.414 220.954 194.462C223.444 198.663 225.703 202.972 227.449 207.534C228.253 209.652 229.024 211.781 229.875 214.083ZM142.082 184.57C145.777 183.502 148.99 181.531 151.872 179.034C154.248 176.974 156.691 175.057 159.625 173.848C160.89 173.326 161.204 173.561 161.154 174.936C161.101 176.361 160.093 177.229 159.108 177.929C156.332 179.897 153.808 182.131 151.433 184.554C150.952 185.044 150.444 185.663 149.593 185.568C147.818 185.371 147.425 185.749 147.372 187.483C147.307 189.721 148.23 191.759 148.57 193.911C148.937 196.217 149.526 198.518 149.251 200.874C149.111 202.049 148.481 203.409 147.288 203.348C146.438 203.306 146.007 201.909 145.835 200.835C145.473 198.573 144.996 196.336 144.674 194.06C144.279 191.265 142.028 189.168 141.422 186.398C141.336 186.01 141.564 183.812 142.082 184.57ZM169.333 203.444C169.305 204.798 169.49 206.174 168.665 207.388C168.27 207.967 168.051 208.899 167.148 208.72C166.404 208.572 166.071 207.81 165.816 207.107C165.197 205.395 165.386 203.608 165.334 201.846C165.22 197.99 164.637 194.282 162.054 191.185C161.653 190.704 161.763 190.487 162.335 190.33C166.573 189.183 169.946 186.638 173.167 183.79C174.914 182.244 176.779 180.807 178.964 179.886C180.372 179.294 181.022 179.747 181.085 181.263C181.114 181.961 180.784 182.428 180.33 182.898C178.334 184.957 176.304 186.955 173.727 188.328C172.033 189.231 170.419 190.284 168.778 191.287C168.156 191.667 167.588 192.001 167.788 192.981C168.493 196.441 169.027 199.928 169.333 203.444ZM178.25 207C178.236 207.001 178.223 207.001 178.21 207.001C178.222 207.575 178.282 208.151 178.237 208.72C178.103 210.445 177.169 211.95 176.441 211.6C175.145 210.977 175.036 209.693 175.061 208.386C175.104 206.041 175.241 203.681 175.029 201.355C174.798 198.822 174.305 196.284 172.44 194.31C171.603 193.425 172.094 193.243 172.981 193.153C175.114 192.935 176.981 192.075 178.635 190.729C180.167 189.484 181.619 188.112 183.266 187.038C185.301 185.711 186.97 183.798 189.41 183.116C190.009 182.949 190.609 182.066 191.221 182.785C191.739 183.395 191.567 184.305 191.382 185.048C191.236 185.632 190.83 186.158 190.495 186.682C188.244 190.18 184.79 192.398 181.644 194.945C180.985 195.48 180.657 195.121 180.201 194.735C179.563 194.195 178.859 193.575 177.964 194.085C177.09 194.584 176.838 195.523 177.069 196.412C177.507 198.111 176.905 199.834 177.617 201.604C178.272 203.222 178.076 205.184 178.25 207ZM188.061 208.166C187.912 209.835 187.829 211.398 187.617 212.944C187.48 213.944 186.816 214.815 185.83 214.85C184.935 214.88 184.502 213.895 184.239 213.112C183.886 212.062 183.97 210.942 184.081 209.851C184.388 206.829 184.491 203.822 183.682 200.851C183.525 200.273 183.414 199.665 184.101 199.357C188.096 197.581 190.605 194.057 193.712 191.236C195.525 189.588 197.241 187.831 199.112 186.256C199.767 185.704 201.006 184.925 201.578 185.497C202.37 186.289 202.106 187.634 201.564 188.721C201.448 188.952 201.304 189.176 201.147 189.381C198.596 192.674 196.017 195.941 192.738 198.571C192.106 199.078 191.601 199.254 190.842 198.599C189.703 197.623 188.789 197.865 188.075 199.24C187.261 200.813 187.075 202.506 187.4 204.255C187.645 205.593 187.852 206.932 188.061 208.166ZM159.565 201.193C159.646 202.407 159.52 203.601 159.006 204.707C158.256 206.326 157.284 206.357 156.193 204.997C155.013 203.525 155.417 201.824 155.244 200.203C154.821 196.296 154.935 192.264 152.41 188.871C151.629 187.827 152.458 187.372 153.29 187.062C155.678 186.17 157.686 184.689 159.545 183.006C162.418 180.402 165.539 178.195 169.139 176.702C169.56 176.528 170.011 176.062 170.423 176.416C170.855 176.786 170.977 177.414 170.868 178.001C170.763 178.567 170.562 179.109 170.141 179.531C168.068 181.601 165.656 183.259 163.184 184.777C160.891 186.187 158.371 187.233 155.971 188.471C155.395 188.769 154.719 189.301 155.65 189.824C156.99 190.577 157.112 191.868 157.493 193.092C158.305 195.76 159.553 198.319 159.565 201.193ZM205.621 170.633C205.845 173.053 206.357 175.966 206.888 178.876C207.022 179.612 207.134 180.557 206.265 180.7C205.574 180.816 205.124 179.949 204.786 179.308C204.695 179.136 204.717 178.9 204.692 178.696C204.557 177.611 204.439 176.525 204.284 175.444C203.712 171.42 202.555 167.634 199.676 164.584C199.259 164.14 198.805 163.546 198.116 163.769C197.491 163.974 197.256 164.617 197.098 165.249C196.612 167.193 197.074 169.067 197.472 170.956C197.859 172.787 198.242 174.619 198.548 176.463C198.673 177.212 198.439 177.943 197.656 178.292C196.882 178.635 196.402 178.081 195.877 177.643C195.18 177.057 194.998 176.268 194.839 175.439C194.238 172.279 194.284 168.997 193.069 165.954C192.713 165.066 193.066 164.598 193.888 164.281C194.673 163.979 195.279 163.388 195.938 162.876C197.246 161.864 198.373 160.587 200.06 160.117C200.505 159.993 200.924 159.869 201.182 160.287C203.091 163.365 206.041 165.977 205.621 170.633ZM157.576 144.967C157.871 146.142 157.601 146.86 156.979 147.518C156.123 148.427 155.243 149.286 154.256 150.063C152.624 151.348 150.634 152.113 149.165 153.629C148.457 154.36 148.18 154.917 149.45 155.245C149.941 155.372 150.356 155.595 150.442 156.12C150.85 158.626 151.614 161.088 151.469 163.67C151.427 164.396 150.951 164.796 150.315 164.981C149.596 165.191 149.237 164.645 149.004 164.133C148.728 163.525 148.535 162.867 148.406 162.209C147.758 158.895 147.113 155.578 145.542 152.543C145.095 151.683 145.521 151.597 146.192 151.481C148.195 151.142 149.839 150.122 151.46 148.928C153.372 147.523 155.444 146.333 157.576 144.967ZM160.926 165.129C160.938 165.696 160.933 165.904 160.951 166.112C161.018 167.007 160.684 167.612 159.767 167.864C158.786 168.134 158.451 167.453 158.14 166.785C157.854 166.173 157.531 165.542 157.435 164.886C156.964 161.629 156.124 158.474 154.949 155.404C154.666 154.668 154.836 154.241 155.577 153.943C157.332 153.236 158.892 152.184 160.3 150.941C161.552 149.836 162.853 148.814 164.285 147.95C165.003 147.514 165.321 147.598 165.327 148.471C165.33 149.052 165.274 149.594 164.894 150.092C163.84 151.485 162.623 152.801 161.041 153.444C159.586 154.033 158.846 155.315 157.641 156.107C157.273 156.35 156.938 156.774 157.081 157.315C157.239 157.916 157.778 157.924 158.229 157.891C159.127 157.827 159.459 158.404 159.619 159.086C160.103 161.208 160.936 163.261 160.926 165.129ZM196.442 200.434C196.177 201.713 195.941 202.92 196.116 204.179C196.516 207.061 196.879 209.948 197.174 212.843C197.295 214.026 197.254 215.235 197.206 216.429C197.17 217.282 196.717 217.96 195.831 218.101C195.019 218.229 194.64 217.542 194.338 216.948C193.859 216.008 193.666 215.008 193.753 213.928C193.977 211.079 194.215 208.233 193.627 205.382C192.938 202.022 192.981 202.014 196.04 200.383C196.077 200.358 196.141 200.391 196.442 200.434ZM212.316 187.465C212.47 188.674 212.242 189.639 211.543 190.491C210.585 191.65 209.603 192.79 208.68 193.978C206.59 196.67 203.263 197.589 200.68 199.576C200.286 199.88 199.902 199.734 199.607 199.331C199.013 198.521 198.635 197.828 199.793 197.07C203.319 194.77 206.703 192.292 209.461 189.055C210.167 188.224 211.272 187.958 212.316 187.465ZM187.239 239.306C187.347 238.675 187.872 238.53 188.218 238.311C191.818 236.009 194.78 233.026 197.61 229.868C198.537 228.834 199.281 227.572 200.632 226.968C201.078 226.767 201.49 226.18 202.034 226.602C202.613 227.049 202.504 227.73 202.322 228.338C201.816 230.035 200.803 231.421 199.505 232.58C195.957 235.751 191.713 237.663 187.239 239.306ZM172.719 134.303C177.484 133.226 178.998 133.327 182.142 134.648C182.865 134.952 183.062 135.33 182.997 136.06C182.87 137.483 182.115 138.383 180.543 138.219C179.29 138.089 178.265 138.474 177.189 138.853C176.38 139.136 175.858 138.963 175.588 138.163C175.077 136.65 174.177 135.407 172.719 134.303ZM179.614 170.187C179.566 170.749 179.508 171.318 179.47 171.886C179.404 172.885 178.712 173.414 177.884 173.586C177.039 173.759 176.834 172.837 176.522 172.313C176.012 171.455 175.929 170.446 175.901 169.442C175.859 167.989 175.935 166.53 175.55 165.095C175.033 163.165 175.767 162.236 177.772 162.138C178.434 162.107 178.704 162.4 178.771 163.036C179.035 165.418 179.33 167.793 179.614 170.187ZM184.774 165.917C184.444 164.205 185.786 164.461 186.409 163.998C186.747 163.745 187.131 163.912 187.226 164.383C187.78 167.232 188.653 170.03 188.753 172.946C188.795 174.097 188.92 175.656 187.251 175.722C185.754 175.778 185.591 174.311 185.476 173.199C185.218 170.666 185.539 168.08 184.774 165.917ZM172.368 150.315C173.03 150.395 173.104 150.86 173.116 151.239C173.14 151.887 172.771 152.405 172.374 152.904C170.716 154.992 168.792 156.797 166.516 158.197C166.001 158.513 165.355 159.454 164.783 158.261C164.388 157.441 163.292 156.598 164.893 155.744C166.681 154.788 168.204 153.438 169.737 152.115C170.557 151.413 171.529 150.881 172.368 150.315ZM170.391 167.084C170.302 167.664 170.24 168.34 170.086 168.995C169.9 169.771 169.615 170.584 168.628 170.565C167.749 170.547 167.677 169.709 167.465 169.096C166.66 166.803 166.789 164.369 166.481 162.005C166.312 160.713 167.856 161.257 168.494 160.739C168.855 160.446 169.228 160.73 169.261 161.172C169.392 163.154 170.117 165.025 170.391 167.084ZM276.696 197.278C276.607 197.85 276.235 197.922 275.898 198.061C274.459 198.646 273 199.199 271.59 199.851C268.676 201.194 265.573 201.725 262.421 202.056C261.911 202.11 261.356 202.146 260.901 201.824C260.456 201.508 259.705 201.336 259.871 200.614C260.065 199.77 260.764 200.181 261.297 200.21C265.015 200.407 268.741 200.615 271.979 198.247C273.388 197.219 274.961 197.114 276.696 197.278ZM105.887 207.285C107.729 204.793 109.556 202.732 111.875 201.143C112.27 200.873 112.726 200.654 113.131 201.126C113.507 201.568 113.834 202.027 113.474 202.663C113.104 203.312 112.597 203.821 111.979 204.224C110.163 205.412 108.245 206.4 105.887 207.285ZM173.819 159.068C173.638 158.978 173.392 158.94 173.311 158.804C173.091 158.429 173.285 158.052 173.573 157.841C175.575 156.373 177.241 154.497 179.35 153.165C179.6 153.008 179.811 152.671 180.162 152.868C180.541 153.082 180.475 153.489 180.473 153.845C180.474 154.339 180.254 154.75 179.897 155.077C178.603 156.267 177.275 157.414 175.682 158.201C175.086 158.493 174.472 158.762 173.819 159.068ZM187.399 155.494C187.684 155.434 187.894 155.507 187.963 155.717C188.132 156.234 188.076 156.725 187.746 157.186C186.775 158.54 185.584 159.687 184.342 160.782C183.89 161.182 183.458 161.755 182.824 160.957C182.308 160.306 182.077 159.737 182.831 159.099C183.856 158.234 184.836 157.31 185.874 156.457C186.351 156.071 186.917 155.793 187.399 155.494ZM169.631 139.559C168.319 139.749 168.22 138.619 167.772 137.853C166.737 136.093 166.73 136.096 168.539 135.338C170.204 134.64 170.685 134.936 170.777 136.686C170.801 137.149 170.898 137.607 170.972 138.066C171.144 139.113 170.765 139.672 169.631 139.559ZM231.11 169.029C230.523 170.042 229.813 170.363 229.207 170.696C227.793 171.475 226.306 172.132 224.608 171.958C223.977 171.895 223.439 171.631 223.321 171.009C223.184 170.303 223.928 170.445 224.291 170.256C226.356 169.193 228.656 169.499 231.11 169.029ZM233.19 222.14C234.334 224.57 235.501 226.989 236.609 229.436C237.076 230.47 237.426 231.557 237.787 232.634C237.891 232.944 238.137 233.402 237.707 233.61C237.274 233.817 237.161 233.303 236.904 233.08C235.881 232.182 236.355 230.748 235.745 229.804C234.236 227.48 233.737 224.848 233.19 222.14ZM216.353 181.134C214.311 178.63 212.496 175.997 211.403 172.955C214.381 174.898 215.133 178.162 216.353 181.134ZM192.554 148.236C192.497 148.714 192.855 149.673 191.944 149.921C190.974 150.188 190.765 149.118 190.288 148.56C189.932 148.142 189.85 147.603 189.909 147.088C189.977 146.482 189.429 145.44 190.245 145.365C191.176 145.28 192.159 145.87 192.509 146.947C192.617 147.277 192.542 147.668 192.554 148.236ZM154.871 133.834C155.407 133.698 155.725 134.053 156.085 134.207C157.417 134.772 158.013 136.438 157.377 137.701C157.183 138.081 156.863 138.367 156.455 138.5C156.177 138.59 155.908 138.452 155.865 138.154C155.648 136.688 154.596 135.404 154.871 133.834Z" fill="#D3A292"/>
</svg>
