<svg width="372" height="706" viewBox="0 0 372 706" fill="none" xmlns="http://www.w3.org/2000/svg">
<path d="M-261.298 393.725C-258.911 388.166 -252.794 388.138 -248.755 385.102C-246.397 383.329 -238.585 385.551 -242.799 377.917C-243.464 376.718 -241.28 376.648 -240.482 377.117C-236.122 379.676 -232.02 377.819 -227.715 376.851C-219.722 375.056 -211.75 372.442 -203.344 374.51C-202.063 374.825 -200.446 374.797 -199.697 373.346C-198.976 371.937 -199.977 370.668 -200.642 369.518C-205.01 361.989 -211.694 359.493 -220.331 362.073C-222.179 362.627 -224.02 363.398 -225.91 363.58C-228.891 363.861 -231.936 364.19 -234.855 363.033C-232.72 360.327 -229.612 361.786 -226.981 361.274C-221.185 360.152 -216.083 355.939 -209.412 358.245C-206.431 359.276 -207.942 356.233 -208.579 355.224C-213.01 348.213 -219.4 344.371 -227.722 343.965C-230.48 343.832 -233.245 343.93 -236.003 343.839C-237.066 343.804 -238.725 343.958 -238.83 342.787C-238.935 341.616 -237.339 341.665 -236.311 341.546C-218.609 339.394 -210.392 343.488 -202.063 359.374C-193.3 376.08 -178.524 381.836 -161.019 381.99C-149.659 382.088 -138.734 378.527 -127.759 375.828C-126.226 375.449 -124.455 374.916 -123.832 373.115C-122.516 369.322 -122.516 369.21 -119.611 370.226C-113.802 372.245 -108.147 372.904 -101.833 371.783C-95.128 370.598 -88.3107 368.985 -81.3254 369.651C-80.0795 369.771 -78.2737 370.205 -77.7208 368.6C-77.2098 367.128 -78.7007 366.174 -79.6386 365.242C-83.7542 361.155 -87.9397 357.138 -92.0483 353.043C-92.7902 352.307 -93.7351 351.2 -92.8252 350.232C-91.8453 349.188 -90.8654 350.232 -90.0815 350.968C-86.0639 354.74 -82.6413 359.185 -77.7767 361.989C-76.8248 362.543 -75.6 364.253 -74.5361 362.129C-73.9692 360.993 -75.663 358.785 -74.0741 358.568C-72.1563 358.315 -71.9604 360.678 -71.7224 362.234C-71.0015 366.959 -67.4318 369.848 -64.7651 373.311C-55.659 385.116 -45.3421 395.751 -33.9262 405.328C-33.5063 405.685 -33.1423 406.127 -32.6804 406.421C-29.7477 408.321 -26.276 412.31 -23.3853 409.983C-20.3266 407.522 -22.7554 402.79 -24.1133 399.313C-24.8832 397.343 -26.465 395.555 -28.0398 394.069C-33.0723 389.288 -37.5659 384.114 -41.2405 378.197C-42.3814 376.36 -43.8862 374.482 -45.685 373.36C-53.1673 368.691 -58.0738 361.596 -63.3582 354.901C-71.7784 344.238 -82.6343 337.929 -95.8839 335.538C-96.6958 335.391 -97.5987 335.44 -98.3197 335.104C-109.498 329.853 -120.829 328.598 -132.511 333.47C-133.708 333.968 -135.367 334.031 -136.599 333.631C-147.938 330 -159.241 332.706 -168.508 337.943C-176.859 342.661 -183.914 341.623 -192.264 341.006C-198.262 340.565 -203.064 339.008 -207.194 335.286C-211.729 331.199 -216.692 328.948 -222.816 328.738C-226.029 328.626 -229.542 328.36 -231.453 324.917C-221.122 325.969 -210.602 326.151 -202.77 334.872C-200.915 336.94 -197.807 339.969 -194.525 335.601C-193.363 334.052 -191.508 335.09 -189.982 335.742C-187.708 336.709 -185.384 337.571 -183.116 338.56C-180.498 339.702 -178.286 339.415 -176.642 336.905C-174.913 334.269 -176.999 332.846 -178.517 331.339C-185.832 324.062 -193.965 318.482 -204.303 315.881C-216.447 312.824 -228.345 314.731 -240.328 315.916C-244.934 316.372 -241.175 318.965 -241.119 320.599C-252.955 315.755 -264.868 317.528 -276.808 320.136C-278.404 320.487 -280.098 320.41 -281.75 320.41C-282.233 320.41 -283.038 320.087 -283.129 319.751C-283.416 318.699 -282.464 318.538 -281.757 318.447C-272.742 317.304 -263.923 314.71 -254.796 314.451C-247.348 314.24 -239.992 313.406 -232.769 311.703C-222.312 309.235 -211.988 309.501 -201.699 312.453C-200.677 312.747 -199.326 313.483 -198.717 312.334C-198.129 311.226 -199.515 310.455 -200.187 309.62C-200.88 308.765 -201.664 307.973 -202.287 307.069C-202.784 306.354 -202.973 305.449 -201.993 304.987C-201.636 304.818 -200.901 305.092 -200.537 305.4C-199.27 306.466 -197.912 307.496 -196.912 308.793C-190.36 317.269 -180.995 322.26 -172.652 328.507C-169.971 330.512 -166.864 331.907 -163.392 330.077C-155.168 325.752 -146.244 326.558 -137.432 326.516C-134.135 326.502 -130.768 326.852 -127.612 325.513C-126.366 324.987 -124.833 324.56 -124.602 322.982C-124.357 321.342 -125.701 320.529 -126.926 319.94C-131.867 317.549 -136.137 312.137 -142.618 316.393C-143.22 316.792 -144.305 316.764 -144.55 315.734C-144.634 315.383 -144.06 314.801 -143.689 314.423C-139.489 310.111 -136.095 310.216 -130.558 313.511C-118.177 320.872 -104.969 326.235 -90.5855 328.24C-89.0736 328.451 -87.0088 329.075 -86.0989 327.364C-85.35 325.962 -87.2328 325.086 -87.8557 323.922C-90.7814 318.503 -95.7789 314.731 -99.1456 309.655C-100.09 308.232 -101.686 307.496 -103.317 307.111C-113.746 304.629 -123.839 300.437 -134.828 300.738C-139.293 300.857 -143.612 300.395 -147.812 298.677C-157.016 294.912 -166.871 297.261 -176.362 295.915C-180.463 295.333 -184.502 294.716 -188.547 293.784C-201.993 290.664 -215.481 287.923 -229.227 292.326C-231.047 292.907 -233.091 293.503 -234.911 293.251C-237.948 292.83 -241.399 293.601 -243.884 290.93C-241.357 289.297 -238.522 290.3 -235.842 290.005C-234.533 289.858 -232.475 290.475 -232.153 289.15C-231.649 287.082 -234.015 286.773 -235.38 286.142C-239.901 284.053 -244.493 282.16 -249.672 282.441C-251.87 282.56 -254.138 282.525 -256.175 281.508C-257.21 280.99 -259.331 281.193 -258.799 279.328C-258.484 278.22 -256.909 278.865 -255.832 278.992C-246.257 280.078 -236.626 280.835 -228.023 285.911C-226.057 287.075 -223.684 286.92 -221.535 286.367C-219.778 285.918 -217.237 285.988 -216.825 283.787C-216.517 282.125 -218.651 281.249 -219.75 280.071C-221.262 278.452 -223.285 277.141 -224.286 275.262C-228.107 268.125 -234.449 265.447 -241.931 264.648C-246.25 264.185 -249.742 262.622 -252.577 259.096C-258.568 251.63 -266.282 248.272 -275.941 250.326C-276.731 250.494 -277.585 250.501 -278.397 250.424C-279.531 250.319 -280.714 249.863 -280.833 248.65C-281.001 246.982 -279.433 247.283 -278.481 247.171C-272.077 246.4 -265.834 246.919 -259.737 249.239C-256.126 250.613 -255.013 249.078 -256.343 245.643C-260.71 234.405 -261.606 221.912 -269.2 211.803C-271.769 208.382 -273.701 206.272 -278.488 207.001C-284.172 207.863 -290.051 207.471 -295.846 207.541C-296.588 207.548 -297.953 207.134 -297.988 206.819C-298.142 205.248 -296.749 205.459 -295.818 205.487C-291.101 205.634 -286.502 205.157 -281.841 204.218C-277.27 203.299 -277.837 201.974 -280.392 199.191C-281.722 197.74 -284.914 195.763 -283.15 194.116C-281.456 192.531 -279.44 195.728 -278.299 197.27C-274.436 202.507 -269.445 204.155 -263.146 203.713C-255.146 203.152 -247.145 203.594 -239.299 205.585C-238.298 205.837 -236.989 206.398 -236.402 205.143C-235.87 204.007 -237.003 203.187 -237.64 202.304C-240.125 198.862 -243.464 197.396 -247.677 197.705C-248.727 197.782 -250.568 197.845 -250.582 196.808C-250.61 195.013 -248.622 195.623 -247.453 195.23C-242.841 193.681 -239.243 195.356 -236.618 199.044C-230.172 208.108 -219.813 208.894 -210.427 211.691C-208.656 212.217 -206.326 212.364 -205.059 210.562C-203.701 208.62 -205.381 206.917 -206.284 205.269C-209.076 200.18 -212.17 195.244 -214.676 190.021C-218.623 181.77 -223.971 175.061 -232.573 171.338C-235.436 170.098 -237.479 167.784 -239.453 165.464C-240.188 164.594 -240.622 163.164 -239.089 162.94C-231.376 161.797 -235.198 157.766 -236.822 154.289C-237.22 153.434 -239.005 152.817 -237.633 151.758C-237.08 151.33 -235.569 151.87 -234.638 152.291C-231.306 153.784 -230.795 156.834 -230.963 159.974C-231.222 164.692 -228.926 168.065 -225.28 170.357C-220.212 173.54 -216.391 177.711 -213.465 182.85C-212.821 183.978 -212.205 185.822 -210.623 185.289C-208.782 184.665 -208.698 182.646 -209.097 181.006C-211.029 173.063 -209.846 165.022 -209.986 157.03C-210 156.322 -209.356 155.6 -209.02 154.885C-208.621 155.53 -207.837 156.196 -207.872 156.813C-208.369 164.952 -203.162 172.572 -204.807 180.487C-206.697 189.566 -203.001 196.758 -199.207 204.021C-196.793 208.634 -193.692 213.051 -190.171 216.886C-181.688 226.132 -174.451 236.094 -169.299 247.599C-167.438 251.749 -167.634 250.129 -167.438 246.933C-167.27 244.177 -165.541 246.204 -165.191 247.192C-164.085 250.312 -163.273 253.529 -162.321 256.705C-158.395 269.766 -149.925 279.293 -138.992 286.956C-134.821 289.879 -130.32 291.141 -125.225 291.912C-115.72 293.349 -106.397 296.02 -96.9828 298.109C-93.7351 298.824 -92.0693 301.236 -89.9975 303.535C-74.8581 320.354 -61.6504 338.847 -45.888 355.112C-38.4338 362.802 -29.6847 369.238 -23.6093 378.274C-22.6994 379.627 -21.2435 381.05 -19.4867 379.985C-18.0169 379.087 -19.0178 377.412 -19.4027 376.178C-20.7116 371.951 -22.1464 367.765 -23.5603 363.573C-27.4729 351.985 -30.2306 340.298 -29.5097 327.848C-28.8868 317.087 -29.5097 306.255 -29.0268 295.48C-28.8308 291.134 -29.8527 289.781 -34.1992 288.259C-48.0438 283.415 -62.0774 286.24 -76.02 285.792C-79.0367 285.694 -82.1303 286.219 -85.021 284.958C-85.735 284.642 -86.8268 283.934 -86.8128 283.436C-86.7708 281.88 -85.469 282.23 -84.4401 282.378C-83.0892 282.574 -81.7454 282.96 -80.3945 282.96C-79.6596 282.96 -78.3857 282.42 -78.2947 281.95C-77.9518 280.134 -79.6666 281.018 -80.4365 280.667C-81.1714 280.331 -82.2213 280.183 -82.1863 279.279C-82.1303 277.94 -80.8984 277.526 -79.7925 277.442C-77.2308 277.246 -74.893 278.234 -72.6743 279.314C-70.4345 280.401 -68.3487 281.733 -65.717 281.684C-61.8674 281.621 -56.4219 282.749 -54.9661 279.419C-53.5172 276.089 -59.0397 274.589 -61.4684 272.226C-69.9725 263.954 -79.7996 258.367 -91.4674 255.654C-97.1648 254.329 -102.281 250.985 -104.892 245.383C-111.135 231.972 -123.44 227.205 -136.102 222.901C-138.433 222.108 -140.994 222.017 -143.353 221.295C-145.817 220.538 -150.415 221.989 -147.518 215.778C-146.517 213.64 -151.22 208.915 -154.545 206.279C-161.754 200.551 -167.032 193.064 -172.708 185.948C-173.317 185.184 -174.542 184.175 -173.037 183.277C-172.582 183.004 -171.441 183.544 -170.804 183.978C-167.291 186.376 -165.59 190.351 -162.755 193.386C-155.784 200.853 -147.322 206.79 -141.064 214.965C-139.895 216.493 -138.363 218.133 -136.403 218.211C-129.249 218.498 -123.167 221.807 -116.924 224.695C-116.21 225.025 -115.293 225.733 -114.81 224.814C-114.544 224.303 -115.055 223.251 -115.426 222.557C-118.436 216.956 -121.473 211.361 -123.286 205.22C-123.671 203.909 -124.336 201.974 -123.041 201.434C-121.193 200.663 -121.487 202.977 -120.899 203.972C-119.793 205.837 -119.863 209.609 -117.981 209.447C-115.615 209.244 -115.601 205.571 -114.754 203.383C-113.977 201.371 -114.04 199.051 -113.627 196.885C-113.452 195.987 -114.054 194.235 -112.248 194.627C-111.17 194.859 -110.876 196.317 -110.904 197.396C-111.03 201.596 -112.178 205.648 -113.669 209.476C-115.293 213.633 -114.446 217.04 -111.912 220.3C-106.985 226.651 -102.813 233.416 -99.4186 240.749C-97.2068 245.523 -92.9792 248.23 -87.4988 248.426C-84.0971 248.545 -81.7803 247.157 -82.9422 243.518C-87.6177 228.888 -86.2179 213.794 -85.476 199.009C-84.734 184.224 -92.2793 175.664 -104.01 170.679C-115.657 165.73 -125.106 158.986 -132.287 148.681C-134.856 144.993 -138.713 142.715 -142.814 140.857C-150.408 137.422 -155.098 130.797 -160.067 124.55C-160.816 123.611 -162.202 121.942 -160.732 120.996C-159.318 120.085 -158.695 122.139 -157.821 123.043C-154.377 126.625 -151.01 130.299 -147.413 133.727C-145.663 135.396 -142.842 137.898 -141.071 136.419C-138.944 134.638 -141.484 131.855 -142.877 130.012C-149.26 121.543 -152.662 111.476 -157.919 102.418C-160.319 98.2821 -158.744 94.8609 -156.96 91.2646C-156.603 90.5495 -156.4 89.6522 -155.406 90.0588C-155.063 90.199 -154.874 91.0052 -154.818 91.5239C-152.956 109.036 -143.171 122.587 -132.84 135.907C-131.167 138.067 -129.977 140.618 -128.683 143.058C-124.98 150.027 -120.122 155.936 -113.333 160.101C-112.507 160.605 -111.485 161.93 -110.589 160.823C-109.889 159.96 -110.771 158.67 -111.541 157.941C-115.916 153.826 -115.895 146.661 -121.886 143.514C-124.189 142.301 -123.797 139.139 -123.923 136.643C-124.161 132.01 -123.055 127.193 -125.771 122.868C-126.191 122.195 -126.394 121.052 -125.414 120.793C-124.882 120.653 -123.811 121.333 -123.44 121.928C-120.654 126.359 -121.137 131.484 -120.759 136.377C-120.612 138.284 -121.487 140.906 -119.646 141.719C-114.117 144.159 -113.347 149.725 -110.841 154.093C-106.215 162.183 -98.4807 166.501 -91.0194 171.226C-87.4778 173.47 -86.4419 172.194 -85.763 168.422C-83.1382 153.819 -87.0368 140.731 -95.9679 129.563C-101.448 122.707 -105.207 115.325 -108.238 107.326C-109.665 103.554 -113.011 100.574 -112.871 96.1509C-108.077 97.574 -108.028 102.811 -105.165 105.818C-102.925 108.167 -101.868 114.364 -100.566 113.649C-97.3818 111.896 -99.5305 107.27 -99.0406 103.855C-98.8516 102.537 -99.2646 100.35 -97.8437 100.329C-96.4579 100.315 -96.7448 102.488 -96.6538 103.813C-96.5978 104.641 -96.4719 105.51 -96.6538 106.295C-99.4256 118.304 -92.4612 126.724 -86.0079 135.326C-85.371 136.174 -84.6851 137.401 -83.4602 137.001C-82.2563 136.608 -82.5853 135.192 -82.3683 134.176C-81.9064 132.017 -81.4514 129.857 -80.8984 127.719C-80.5345 126.324 -81.4444 123.681 -79.3376 123.919C-77.8748 124.088 -78.1337 126.913 -78.4767 128.392C-81.2274 140.226 -78.7427 152.095 -78.0637 163.788C-76.8249 185.065 -77.5248 206.349 -76.4539 227.584C-75.866 239.228 -72.1983 250.431 -62.6793 258.535C-61.4404 259.594 -59.9916 261.01 -58.3747 259.846C-57.1499 258.97 -57.8218 257.259 -58.2348 255.962C-59.5296 251.882 -59.7256 247.823 -58.2558 243.764C-57.8918 242.761 -57.5978 241.107 -56.506 241.226C-55.1901 241.366 -55.575 242.895 -55.701 243.96C-57.2829 257.518 -51.0605 267.214 -40.4706 274.729C-37.5868 276.776 -34.3322 277.064 -30.9586 276.685C-28.0329 276.363 -26.486 274.954 -26.8569 271.736C-28.0678 261.367 -26.913 250.774 -31.0916 240.679C-33.9753 233.711 -36.775 227.093 -42.4094 221.695C-47.8338 216.493 -50.8505 209.44 -54.1472 202.738C-56.149 198.665 -58.2278 194.929 -63.2742 193.968C-66.018 193.45 -67.4458 191.402 -67.4458 188.542C-67.4458 187.196 -67.9218 185.051 -66.6199 184.799C-64.8981 184.462 -65.241 186.635 -64.9681 187.813C-64.5481 189.601 -63.4982 191.017 -61.8394 191.36C-56.275 192.51 -53.5732 196.436 -51.5645 201.224C-51.2705 201.925 -50.4655 202.977 -50.0036 202.928C-48.6737 202.781 -48.8137 201.329 -48.6738 200.397C-47.3579 191.395 -45.4891 182.443 -45.944 173.259C-45.993 172.208 -46.105 170.406 -45.0341 170.371C-43.1443 170.308 -43.6413 172.271 -43.6413 173.428C-43.5993 182.836 -43.6273 192.244 -43.6973 201.652C-43.7323 206.461 -42.5984 210.962 -40.4846 215.245C-39.9876 216.255 -39.2457 217.25 -38.0278 217.11C-36.761 216.963 -36.418 215.757 -36.173 214.656C-35.9911 213.85 -35.767 213.037 -35.704 212.21C-34.7171 198.56 -30.7136 185.016 -34.5632 171.212C-36.565 164.033 -35.9001 156.329 -38.7418 149.29C-39.1407 148.309 -39.4977 146.64 -38.3288 146.346C-36.607 145.918 -36.313 147.846 -36.012 149.01C-34.6332 154.359 -33.3243 159.736 -32.1764 165.141C-30.9795 170.778 -32.7574 177.627 -25.0862 180.431C-23.6163 180.971 -25.0302 182.906 -25.8631 183.845C-29.6147 188.08 -30.3916 193.155 -30.3216 198.546C-30.2516 203.797 -30.4896 208.971 -31.5675 214.201C-33.1983 222.122 -28.3758 228.502 -25.3521 235.246C-25.0651 235.891 -24.2392 236.697 -23.6303 236.718C-22.3634 236.767 -21.7965 235.527 -21.6215 234.503C-17.2609 209.56 -9.9047 184.967 -12.7184 159.161C-13.0544 156.084 -13.3764 152.901 -15.0842 150.433C-23.7073 137.975 -25.982 123.366 -29.0897 109.106C-30.0626 104.648 -31.6095 102.72 -36.012 103.133C-44.6001 103.94 -52.2714 101.374 -59.7186 97.2655C-65.801 93.9145 -72.6253 92.5475 -79.4706 91.4959C-80.6885 91.3066 -82.8372 91.7343 -82.6413 90.0868C-82.4803 88.7408 -80.2755 89.0773 -78.9666 89.1474C-72.3103 89.533 -65.934 91.3066 -59.6066 93.2906C-58.5987 93.6061 -57.4648 94.5735 -56.5829 93.6692C-55.47 92.5264 -55.918 90.893 -56.8629 89.9256C-62.5183 84.1559 -65.248 75.2456 -74.5221 73.3247C-75.432 73.1354 -76.9088 73.2055 -76.5309 71.6632C-76.4329 71.2566 -74.9841 70.7519 -74.3891 70.9622C-67.9708 73.2406 -67.4388 69.6091 -68.4677 64.9051C-69.0626 62.171 -66.9069 60.9792 -66.095 59.0513C-63.7012 53.3238 -58.2697 48.7109 -59.6766 41.5742C-59.8306 40.789 -59.9286 39.6883 -58.9277 39.6323C-58.4237 39.6042 -57.5908 40.5997 -57.3669 41.2797C-56.5829 43.7054 -56.6459 46.2221 -57.4858 48.6197C-58.0318 50.176 -58.6897 51.7744 -59.6626 53.0784C-66.9909 62.8791 -64.9751 71.9927 -58.1018 81.0503C-55.1131 84.9902 -52.0544 88.888 -49.8076 93.4168C-47.3019 98.4784 -36.432 101.163 -31.5185 98.4714C-29.7757 97.5179 -29.6427 95.9125 -29.3907 94.2721C-27.7249 83.3287 -25.2681 72.6026 -21.3975 62.185C-18.7658 55.1114 -20.2006 47.3298 -18.1148 40.109C-17.5829 38.2582 -17.205 36.3584 -16.547 34.5567C-16.33 33.9608 -15.2872 33.1265 -14.9022 33.2527C-13.9503 33.5612 -14.2163 34.6198 -14.4052 35.4119C-17.044 46.145 -15.9311 57.502 -19.7877 68.0107C-22.7624 76.1359 -23.4343 84.7168 -25.0651 93.1013C-25.961 97.7072 -24.6242 101.29 -20.1236 103.309C-19.6197 103.533 -19.1788 103.89 -18.6678 104.094C-14.9652 105.545 -12.4104 108.461 -9.65973 111.125C-9.53374 107.178 -12.6344 104.178 -12.7394 100.259C-12.9214 93.6061 -12.6904 87.1073 -10.7726 80.5735C-7.51095 69.49 -3.38836 58.7218 -2.12149 46.9582C-0.994606 36.4635 -1.69452 26.6628 -5.04718 16.7921C-6.64302 12.102 -7.53893 7.17367 -8.75681 2.35746C-8.95978 1.54424 -9.23975 0.450604 -8.44183 0.128121C-7.06297 -0.432719 -6.59406 0.976391 -6.33508 1.86672C-1.89754 17.1566 4.10789 32.131 3.10699 48.5286C3.065 49.2647 3.47793 50.0218 3.68091 50.7719C4.40183 50.4424 5.17873 50.2111 5.82266 49.7764C7.99944 48.3042 10.3652 43.9928 12.1151 45.8155C14.2008 47.9888 9.77727 49.8536 8.23743 51.8445C-0.826647 63.5661 -4.9632 77.1665 -7.00699 91.552C-7.60193 95.7443 -6.59406 99.8174 -4.84424 103.666C-2.66046 108.461 -1.63154 113.586 -0.196686 118.613C2.03609 126.408 7.06157 132.718 14.6348 136.44C16.1466 137.183 17.9035 137.492 19.2403 136.069C20.3322 134.898 19.8353 133.489 19.2613 132.199C16.8746 126.85 15.3137 121.368 15.0898 115.416C14.9008 110.382 10.8832 108.756 6.74658 107.459C5.79468 107.157 4.21985 105.895 4.33884 105.58C5.01077 103.687 6.47364 104.893 7.64252 105.131C10.3722 105.685 13.2699 106.246 15.0127 108.552C17.7005 112.107 19.0164 112.864 19.1563 107.389C19.1983 105.769 20.6052 105.973 21.2211 107.256C21.6761 108.195 22.054 109.478 21.7811 110.41C18.4844 121.641 24.1608 130.173 30.0472 138.677C33.8199 144.124 37.4804 149.641 41.3091 155.046C42.03 156.056 43.0659 157.661 44.5987 156.679C45.2077 156.287 45.1867 154.674 45.1937 153.609C45.2427 147.797 45.3826 141.978 45.1587 136.174C44.8507 128.105 45.0957 119.959 47.3494 112.31C51.227 99.1303 45.8166 89.2105 37.8514 79.7884C36.2486 77.8885 34.4358 76.1639 32.9449 74.187C30.2642 70.6327 30.4182 70.864 34.6248 69.5811C37.8654 68.5926 40.1332 66.0198 41.2951 62.7669C43.2969 57.1725 44.3538 51.4309 43.8148 45.4369C43.7098 44.2592 43.0729 42.3804 44.9417 42.163C46.1316 42.0228 46.2436 43.7334 46.5026 44.7429C48.4344 52.2862 48.0564 59.5 43.5348 66.195C38.5093 73.6261 38.2854 73.8855 43.5768 80.5315C46.0196 83.5951 47.2305 89.6101 51.654 88.8249C54.9927 88.236 55.1677 82.4664 56.6795 78.9962C58.5623 74.6777 60.4731 70.3873 62.9299 66.3703C65.4426 62.2621 66.8425 57.9086 66.8425 53.0223C66.8425 50.5756 67.1785 48.0028 67.9834 45.6963C71.532 35.5031 73.8417 24.9803 76.5085 14.5487C76.9704 12.733 77.2084 9.43105 79.0002 9.98488C81.842 10.8542 79.4412 13.6724 79.1542 15.5162C77.5584 25.8987 75.0387 36.0779 71.658 46.0328C71.2171 47.3228 70.6501 48.9422 72.1969 49.6643C73.7298 50.3723 74.6887 48.8581 75.4796 47.7855C76.1235 46.9162 76.3685 45.7524 76.9915 44.8691C78.0623 43.3478 77.4464 39.5832 80.0572 40.5927C81.73 41.2377 80.645 44.834 79.4762 46.6217C75.1226 53.2817 71.105 60.0328 67.5984 67.2606C59.3882 84.1769 53.6418 101.906 53.3548 120.47C53.0889 138.018 52.4729 155.978 58.5133 173.07C58.8773 174.108 59.2203 175.152 59.5702 176.19C59.9692 175.264 60.4241 174.353 60.7601 173.407C62.5239 168.436 63.6928 163.353 63.9378 158.061C63.9798 157.1 64.5887 155.74 65.9116 156.013C66.8005 156.196 66.2756 157.374 66.4016 158.117C67.4374 164.391 64.8687 170.161 63.4548 175.951C61.649 183.34 63.6998 189.566 66.7095 195.896C68.5643 199.801 70.8111 200.86 74.1707 197.312C78.3563 192.896 82.8918 188.809 86.9234 184.266C91.242 179.393 93.9087 173.82 93.3768 166.901C92.9498 161.398 93.0338 155.824 93.3418 150.3C94.0067 138.529 92.2639 127.467 87.4064 116.474C83.1928 106.919 84.5716 95.8354 81.8419 85.6982C81.513 84.4854 81.884 82.8309 82.4929 81.6742C83.2978 80.1389 82.4439 77.0192 84.7957 77.2716C86.2445 77.4258 85.3276 80.1249 85.0616 81.7093C84.8797 82.7889 84.4737 83.9596 84.7117 84.9621C85.1387 86.7358 85.0266 89.2525 87.3643 89.6171C89.2332 89.9045 89.9471 87.8715 90.7451 86.4694C94.6227 79.6972 93.3488 71.9226 94.7556 64.6667C96.3235 56.5977 97.6463 48.3253 95.0706 40.0879C94.7696 39.1135 94.7906 37.2978 95.7845 37.1155C97.8563 36.7439 97.1914 38.819 97.4434 39.8987C101.048 55.3147 98.1573 70.6677 96.8064 86.0277C96.6944 87.2966 95.7496 88.5865 94.9517 89.6942C88.9883 97.9175 90.4581 106.281 94.1117 114.862C96.3655 120.162 99.8161 124.936 100.852 130.79C101.412 133.937 102.847 132.465 103.925 130.986C110.098 122.475 114.963 113.144 120.366 104.15C122.256 101.002 121.248 97.7212 120.219 94.5174C117.412 85.7753 115.809 76.9071 116.425 67.6252C116.754 62.6617 117.944 58.2942 121.738 55.0483C128.149 49.5731 131.593 42.5626 133.035 34.4094C133.217 33.3719 133.203 31.7244 134.386 31.8296C135.533 31.9277 135.233 33.6102 135.457 34.6618C135.967 37.0804 133.224 40.2912 135.491 41.6513C138.459 43.4249 140.881 39.9127 143.569 38.7419C146.76 37.3539 148.335 33.1826 152.528 33.5401C152.031 38.104 147.796 39.1415 144.885 41.0484C137.717 45.7384 130.186 49.8325 124.496 56.4785C122.872 58.3713 120.786 60.0258 120.772 62.7318C120.737 71.8034 119.19 81.0292 123.25 89.7152C124.013 91.3417 123.558 94.0477 126.105 94.1949C127.988 94.3001 128.45 92.0988 129.416 90.8159C130.907 88.8319 132.251 86.7358 133.812 84.8149C134.477 83.9947 135.757 83.1604 136.667 83.8334C137.927 84.7588 136.625 85.6982 136.051 86.5255C130.865 94.0267 128.016 102.853 122.431 110.186C119.064 114.602 119.526 115.016 125.189 115.661C126.707 115.836 129.353 115.135 129.318 116.909C129.283 118.62 126.56 117.883 125.014 118.178C119.764 119.194 116.005 122.118 113.598 126.871C112.345 129.339 111.393 132.073 109.671 134.155C103.477 141.628 101.79 150.097 102.196 159.638C102.658 170.665 100.019 180.957 92.1309 189.447C86.6855 195.307 81.9259 201.806 76.4315 207.618C70.937 213.436 68.6553 220.917 65.0226 227.703C64.4977 228.684 64.1617 229.953 65.2816 230.675C65.7646 230.991 66.9265 230.759 67.4864 230.36C73.7858 225.845 81.4289 223.882 87.6933 219.094C92.3408 215.54 94.4756 211.467 94.9796 205.928C95.4065 201.252 95.9805 196.492 100.341 193.485C100.978 193.043 102.189 192.559 102.609 192.854C104.156 193.933 102.504 194.536 101.993 195.3C95.8195 204.582 97.8213 209.069 108.404 210.296C110.595 210.548 114.76 208.641 114.529 210.857C114.235 213.605 109.692 213.191 107.305 212.455C102.245 210.906 99.2212 212.827 95.7775 216.332C91.585 220.608 86.9724 224.695 81.086 226.798C66.2825 232.084 60.2701 244.815 54.7827 258.002C53.0819 262.082 51.556 266.275 49.4142 270.116C47.0205 274.4 47.8604 277.926 51.752 280.008C63.2728 286.191 70.2162 296.237 76.2915 307.279C79.4062 312.936 86.2935 314.156 91.165 310.034C96.3585 305.646 99.9281 300.002 101.265 293.293C102.455 287.306 100.187 282.714 95.1335 279.02C87.9873 273.783 86.6365 265.258 91.354 258.682C92.0049 257.778 92.8378 256.488 93.8807 256.937C95.1756 257.49 94.4197 258.893 93.9018 259.769C92.5859 262.005 92.2499 264.41 92.2289 266.941C92.1939 271.049 93.1458 274.554 97.0724 276.762C100.264 278.557 102.609 281.207 104.408 284.453C106.5 288.245 107.914 291.863 105.514 296.125C104.296 298.291 103.197 301.495 104.751 303.206C106.934 305.603 109.013 302.238 111.064 301.376C119.204 297.955 127.176 294.113 135.337 290.748C142.911 287.622 147.439 282.427 148.419 274.147C149.945 261.29 151.674 248.475 150.183 235.456C149.301 227.752 149.392 219.998 150.743 212.294C151.66 207.064 151.94 201.778 149.763 196.766C145.598 187.168 144.787 177.024 144.724 166.775C144.682 160.241 143.233 154.261 139.551 148.751C135.002 141.943 135.666 133.461 140.86 127.27C141.357 126.682 141.861 125.889 142.736 126.422C143.037 126.604 143.142 127.404 143.058 127.866C142.911 128.673 142.701 129.549 142.239 130.208C135.799 139.441 141.672 146.178 146.767 153.111C148.496 155.467 149.539 154.023 150.358 152.487C154.375 144.944 157.91 137.155 161.991 129.626C164.412 125.16 161.053 119.482 160.325 114.343C160.136 113.004 159.345 111.763 158.897 110.459C158.078 108.097 156.972 104.36 158.974 103.715C160.983 103.07 159.968 107.136 161.095 108.861C163.587 112.675 163.202 117.4 164.888 121.473C165.84 123.779 167.128 125.588 169.648 122.889C169.837 122.686 169.998 122.37 170.229 122.307C183.647 118.388 180.35 107.052 181.092 97.581C181.372 93.9987 181.085 90.3672 182.555 86.9741C182.863 86.2661 183.451 85.0743 183.836 85.1023C185.256 85.2145 185.277 86.5886 185.004 87.528C183.129 94.0337 183.563 100.694 183.647 107.319C183.675 109.681 182.639 112.864 185.375 114.077C188.203 115.332 190.611 112.934 192.774 111.378C199.248 106.688 200.522 99.544 200.977 92.2671C201.327 86.7498 201.082 81.1975 201.208 75.6662C201.222 74.9581 201.887 74.2711 202.244 73.5701C202.622 74.2431 203.322 74.9021 203.336 75.5821C203.455 81.3938 203.616 87.2125 203.441 93.0172C203.301 97.8124 204.105 101.367 210.09 100.792C211.007 100.701 212.365 100.596 212.421 102.124C212.428 102.397 211.616 102.951 211.182 102.958C204.483 102.965 201.586 108.91 196.84 111.953C188.791 117.105 184.444 122.707 189.589 132.725C191.696 136.826 188.91 141.277 185.753 144.713C175.142 156.28 168.276 170.119 162.005 184.294C159.618 189.685 160.311 195.7 158.918 201.315C158.596 202.612 158.981 204.225 160.619 204.659C161.795 204.968 162.635 204.07 163.314 203.159C163.972 202.269 164.804 201.463 165.273 200.488C170.054 190.505 178.201 185.458 188.693 182.527C196.588 180.319 203.944 176.169 211.497 172.776C215.906 170.792 219.189 167.356 221.891 163.48C225.334 158.537 225.04 153.952 221.436 149.024C220.463 147.692 219.28 146.458 218.58 144.993C217.586 142.925 218.342 140.52 220.456 140.394C223.64 140.205 220.519 142.722 221.317 143.78C223.297 146.409 225.222 149.087 227.287 151.653C228.253 152.852 229.051 151.905 230.038 151.281C233.957 148.786 236.183 145.112 237.912 140.962C238.241 140.163 238.913 138.747 240.236 139.672C240.565 139.903 240.362 141.214 240.096 141.915C238.528 146.031 237.317 150.342 233.656 153.307C232.593 154.163 231.473 155.193 230.92 156.392C229.268 159.995 224.732 163.241 226.727 167.09C227.434 168.457 232.726 164.58 236.05 163.368C244.078 160.437 252.358 158.222 260.177 154.66C263.004 153.378 265.629 152.032 267.596 149.592C270.102 146.486 271.837 142.161 277.318 143.99C278.347 144.334 279.04 142.785 279.586 141.838C284.667 132.907 292.275 125.833 297.658 117.126C299.989 113.355 302.529 109.695 301.207 104.823C300.941 103.841 301.158 102.58 301.535 101.591C302.634 98.7237 302.34 94.0618 305.518 93.7813C307.044 93.6411 305.238 98.5835 304.958 101.226C304.447 106.127 305.973 106.975 310.81 105.138C313.21 104.227 316.115 99.9015 317.438 102.362C318.985 105.236 313.945 106.337 311.726 108.104C308.535 110.649 302.865 112.801 304.265 116.937C305.714 121.22 311.558 118.62 315.443 118.851C318.124 119.012 320.853 117.855 323.59 117.673C327.713 117.393 329.988 115.724 330.925 111.392C332.591 103.694 338.261 98.5765 343.776 93.4939C344.518 92.8139 345.512 91.6081 346.464 92.877C347.171 93.8164 346.296 94.9801 345.589 95.7863C342.145 99.7122 337.897 102.972 335.986 108.132C335.02 110.74 333.459 113.488 335.454 115.949C337.372 118.325 340.193 117.028 342.369 116.047C348.718 113.186 355.395 114.371 361.946 114.133C363.57 114.07 366.468 112.976 366.72 115.619C367.077 119.412 372.984 117.47 371.857 119.937C370.576 122.742 367.077 119.089 364.487 119.818C356.585 122.048 348.704 120.435 340.773 119.902C333.83 119.433 332.857 120.919 332.85 128.175C332.843 130.979 333.431 133.643 334.159 136.328C334.887 138.985 335.391 141.712 335.923 144.418C336.462 147.159 333.389 150.517 335.524 152.326C338.569 154.892 342.593 156.525 346.45 157.815C350.411 159.14 352.791 155.228 355.955 153.812C357.271 153.223 359.462 150.847 359.861 152.747C360.644 156.518 364.984 156.238 365.747 159.126C366.174 160.76 364.263 160.297 363.437 159.932C359.028 157.976 354.884 158.285 350.887 160.991C348.494 162.617 346.191 162.113 343.958 160.577C337.764 156.322 331.996 157.941 326.278 161.741C317.452 167.609 316.164 167.399 309.018 159.519C304.755 154.822 299.905 153.553 294.221 156.399C289.343 158.846 284.702 159.519 279.138 158.811C270.858 157.752 263.053 160.739 255.179 163.648C251.561 164.987 258.434 170.308 252.365 168.436C249.608 167.588 246.892 168.275 244.218 169.074C231.263 172.951 218.552 177.536 206.226 183.081C199.185 186.25 192.452 190.063 185.046 192.482C176.801 195.174 174.03 203.103 170.348 209.679C163.727 221.506 161.816 234.636 161.816 248.103C161.816 251.924 162.978 252.506 166.106 250.494C173.428 245.776 179.524 240.455 177.284 230.423C177.165 229.89 177.032 229.287 177.158 228.782C177.732 226.469 177.389 222.515 179.972 222.655C182.198 222.774 180.035 226.21 180.245 228.18C180.504 230.64 180.231 233.157 180.287 235.646C180.434 241.661 178.152 246.694 173.155 249.814C165.693 254.476 162.39 261.367 160.906 269.583C160.171 273.657 159.422 277.737 158.47 281.768C156.524 290.005 152.157 296.041 144.115 299.806C130.627 306.122 117.426 313.014 104.527 320.578C94.6156 326.39 82.8499 328.647 72.6589 334.29C71.693 334.823 70.6081 335.132 69.6282 335.629C59.6052 340.719 46.9575 364.569 49.4002 373.738C50.8491 379.186 52.9069 379.901 57.5544 376.62C68.1723 369.133 79.4202 362.641 90.787 356.415C102.245 350.141 111.442 341.827 117.496 330.182C118.539 328.17 119.778 326.397 121.752 325.226C123.817 323.999 126.686 321.377 128.128 322.975C129.577 324.588 125.804 325.766 124.601 327.371C120.94 332.257 120.086 338.553 116.299 343.467C115.124 344.988 117.608 345.171 118.84 344.694C133.245 339.086 147.663 333.519 161.991 327.715C165.35 326.355 167.912 323.515 169.9 320.536C177.998 308.359 187.293 296.988 194.656 284.327C201.012 273.39 204.693 261.697 204.476 248.839C204.385 243.329 203.552 238.401 199.199 234.608C196.35 232.119 195.608 229.112 197.309 225.677C197.624 225.032 198.443 224.134 198.926 224.191C199.899 224.303 199.927 225.417 199.738 226.217C198.121 233.115 205.295 235.106 207.451 239.936C208.179 241.57 210.531 241.023 211.861 239.894C213.526 238.478 215.157 236.908 216.382 235.12C219.973 229.869 223.437 224.618 228.428 220.447C231.907 217.545 232.991 212.995 234.594 208.887C235 207.849 235.693 206.826 236.946 207.351C237.842 207.73 237.457 208.739 237.261 209.546C235.924 215.238 234.398 220.819 229.807 224.927C228.981 225.663 228.064 226.357 227.462 227.254C226.468 228.74 224.081 230.451 226.174 232.14C227.581 233.276 229.296 231.103 229.961 229.841C233.579 223.027 240.593 221.442 246.724 218.484C247.669 218.028 248.894 217.089 249.657 218.281C250.378 219.395 249.041 220.04 248.306 220.797C239.207 230.192 228.162 236.964 217.201 243.792C212.239 246.884 208.935 250.136 211.518 256.509C212.092 257.932 211.805 259.818 211.553 261.437C211.07 264.543 212.561 265.3 214.562 263.47C222.36 256.334 231.991 253.102 241.706 249.905C250.518 246.996 259.785 245.692 268.45 242.271C269.199 241.976 270.319 242.032 270.613 242.916C270.907 243.792 269.962 244.227 269.234 244.507C264.859 246.197 260.464 247.837 256.096 249.555C255.361 249.842 254.318 250.305 254.157 250.894C253.835 252.071 255.088 251.756 255.725 251.903C264.523 253.838 273.405 257.427 281.784 250.627C282.637 249.933 284.149 249.611 284.457 248.776C287.474 240.742 295.67 238.709 301.41 233.858C302.109 233.269 302.515 231.51 303.796 232.715C304.657 233.522 304.174 234.783 303.474 235.702C302.977 236.361 302.473 237.279 301.794 237.489C292.968 240.217 290.225 249.779 282.938 254.202C281.973 254.784 281.231 255.429 281.07 256.684C280.846 258.465 284.884 259.537 282.189 261.213C281.182 261.837 278.767 259.797 276.905 259.523C266.007 257.911 255.123 255.64 244.162 255.198C234.86 254.819 226.755 259.481 219.56 265.496C209.187 274.161 202.538 285.68 195.461 296.819C192.375 301.685 193.411 302.918 199.178 303.073C205.246 303.234 211.133 303.612 217.033 305.8C223.507 308.204 230.059 306.326 236.288 303.514C243.952 300.058 250.686 295.41 256.292 289.101C257.097 288.196 258.42 286.724 259.708 288.238C260.45 289.115 259.274 290.173 258.581 290.994C257.685 292.045 256.579 292.985 255.942 294.176C254.745 296.413 255.34 297.829 258.133 298.011C276.121 299.182 293.185 295.908 309.137 287.341C314.232 284.607 317.697 280.681 319.328 274.926C321.504 267.228 326.369 261.22 332.437 256.172C333.431 255.345 334.705 253.943 335.937 255.219C336.714 256.018 335.51 257.203 334.719 257.876C327.741 263.786 323.499 271.287 320.833 280.008C319.23 285.245 314.554 288.245 310.187 291.239C309.319 291.835 308.08 292.83 308.108 293.608C308.178 295.613 310.173 294.772 311.348 295.172C318.726 297.689 325.508 297.724 330.604 290.573C330.897 290.159 331.541 289.612 331.898 289.69C333.704 290.068 335.461 286.759 336.861 289.136C337.659 290.482 335.566 291.947 334.404 293.083C333.62 293.854 332.752 294.597 331.793 295.109C329.12 296.546 328.595 297.941 331.541 299.68C332.724 300.381 333.865 301.194 334.88 302.119C335.44 302.631 336.154 303.626 335.986 304.145C335.678 305.106 334.67 304.727 333.886 304.405C318.25 298.004 302.452 296.995 285.934 301.292C277.773 303.416 269.024 303.676 260.513 303.928C253.954 304.117 247.928 305.428 242.252 308.499C232.068 314.002 222.01 315.152 210.426 311.766C199.367 308.534 187.755 311.065 180.735 321.202C171.545 334.473 157.497 339.156 143.982 345.304C120.919 355.806 96.7434 364.12 76.2985 379.859C71.364 383.658 67.1155 387.851 64.5467 393.501C63.7208 395.317 62.069 397.553 64.3647 399.565C66.5205 401.451 68.9423 401.409 71.259 399.902C76.8655 396.263 82.8708 393.697 89.3242 391.868C106.577 386.96 123.817 381.983 140.104 374.208C144.038 372.329 148.44 371.166 152.759 370.415C166.673 367.976 178.005 360.909 187.573 350.961C193.047 345.269 199.892 342.773 207.017 340.509C210.37 339.443 213.569 340.011 216.627 341.602C223.207 345.03 230.612 346.39 237.023 350.492C242.315 353.878 254.878 351.066 259.708 346.755C263.032 343.79 262.34 340.453 261.234 336.863C260.758 335.314 260.212 332.965 261.898 332.426C263.172 332.019 263.088 334.494 263.564 335.714C265.979 341.925 265.902 341.834 270.998 337.347C276.576 332.433 281.965 327.231 288.678 323.796C289.84 323.2 291.506 321.931 292.352 323.137C293.402 324.616 291.408 325.296 290.372 325.969C281.21 331.914 274.042 339.941 267.043 348.171C263.011 352.91 257.699 355.855 252.079 358.308C251.155 358.715 249.657 358.911 249.867 360.229C250.077 361.589 251.575 361.407 252.596 361.379C267.743 361.007 282.833 359.858 297.819 357.635C300.29 357.271 302.347 355.651 304.188 353.913C308.633 349.713 314.127 349.538 319.734 349.945C320.49 350.001 321.861 350.59 321.84 350.807C321.686 352.174 320.427 352.097 319.405 352.223C315.044 352.763 310.551 352.938 306.841 355.679C305.84 356.416 304.265 357.46 305.119 358.995C305.469 359.619 307.065 359.738 308.101 359.745C315.548 359.809 323.023 359.416 330.296 361.582C331.261 361.87 332.997 361.575 332.885 362.774C332.78 363.847 331.016 363.741 329.981 363.636C326.152 363.251 322.33 362.283 318.509 362.311C304.433 362.409 290.435 364.218 276.324 364.099C270.305 364.05 269.997 365.662 273.797 371.551C274.336 372.385 275.666 373.234 274.252 374.215C273.867 374.482 272.586 373.998 272.104 373.486C266.378 367.485 259.078 366.7 251.435 367.212C244.995 367.639 239.403 365.592 234.65 361.449C229.352 356.829 223.179 353.787 216.893 350.912C210.055 347.786 201.985 350.393 198.247 356.731C196.336 359.97 197.316 362.066 200.809 362.865C211.581 365.333 221.058 371.446 231.963 373.71C236.743 374.699 241.258 377.461 245.03 380.714C252.617 387.262 261.591 391.931 270.123 396.579C282.217 403.168 295.978 406.632 309.746 399.355C312.181 398.072 314.617 396.347 317.396 396.579C318.047 396.635 326.999 390.465 320.784 399.523C319.853 400.883 321.721 401.949 322.925 402.453C326.922 404.108 329.925 407.108 332.332 410.403C339.787 420.618 349.656 424.396 361.939 422.679C363.206 422.503 365.138 421.192 365.642 422.742C366.293 424.733 363.99 425.125 362.534 425.749C359.371 427.109 356.074 427.348 352.791 426.464C343.622 424.004 335.132 420.786 329.414 412.156C324.626 404.928 315.758 402.636 307.394 405.23C301.57 407.031 295.796 408.777 289.574 407.221C288.055 406.842 285.913 406.421 284.933 407.922C283.883 409.52 285.29 411.125 286.452 412.261C290.288 416.005 292.975 421.375 299.625 421.136C303.054 421.017 301.242 425.784 304.825 426.794C313.826 429.346 322.512 433.061 331.849 434.428C334.32 434.793 336.77 435.052 339.073 436.062C340.06 436.496 341.459 437.015 340.99 438.193C340.507 439.413 339.003 438.754 338.002 438.543C329.372 436.735 320.595 435.669 312.125 433.096C309.809 432.388 307.079 430.965 305.385 433.713C303.964 436.006 304.727 438.508 306.61 440.555C307.443 441.467 309.13 442.476 307.261 443.745C306.267 444.418 305.175 443.423 304.37 442.666C302.501 440.899 301.186 438.635 300.962 436.167C300.5 431.07 297.42 428.582 293.206 426.373C285.801 422.503 279.033 417.792 275.407 409.688C273.062 404.451 267.393 403.183 263.207 400.14C262.801 399.846 261.962 399.565 261.71 399.768C260.919 400.399 261.318 401.332 261.703 402.026C263.529 405.37 263.403 409.029 263.116 412.584C262.311 422.623 266.091 430.355 274.252 436.076C275.281 436.798 277.206 437.492 276.058 438.999C275.05 440.317 273.566 438.859 272.453 438.228C270.774 437.275 269.234 436.083 267.568 435.101C266.448 434.442 265.244 432.963 263.97 433.91C262.738 434.828 263.452 436.426 263.97 437.716C264.453 438.915 265.482 440.541 263.396 440.871C261.85 441.116 261.017 439.364 261.024 438.004C261.087 430.166 258.343 422.777 257.531 415.107C255.998 400.49 241.629 383.981 226.902 380.7C219.063 378.954 211.273 377.3 204.091 373.479C202.685 372.729 200.935 372.42 199.325 372.336C196.546 372.182 193.236 372.147 191.71 374.587C189.939 377.419 192.76 379.613 194.425 381.688C197.19 385.13 200.032 388.524 202.958 391.826C206.114 395.394 209.299 398.976 214.947 396.698C215.829 396.34 217.166 396.726 218.16 397.111C219.644 397.679 221.898 398.233 221.422 400.182C221.058 401.675 219.056 400.624 217.782 400.589C208.578 400.322 208.697 400.406 208.382 409.527C208.207 414.61 209.943 419.342 210.251 424.298C210.461 427.705 212.876 428.89 215.717 429.619C219.721 430.643 223.724 431.666 227.714 432.732C228.484 432.935 229.464 433.426 229.205 434.239C229.051 434.709 227.784 435.157 227.105 435.052C223.29 434.484 219.441 433.98 215.731 432.984C212.372 432.087 210.314 432.437 210.104 436.412C210.048 437.408 210.069 439.062 208.725 438.838C207.605 438.656 207.836 436.98 207.773 435.908C207.143 425.104 204.868 414.469 202.216 404.136C199.22 392.449 190.786 384.261 179.342 379.746C176.472 378.611 173.092 378.029 170.383 379.2C159.303 383.981 146.536 384.591 136.828 392.709C135.456 393.859 132.678 393.929 132.993 396.193C133.105 397.006 135.813 397.406 137.304 398.079C138.375 398.563 140.111 397.616 140.517 399.544C139.446 399.712 138.354 400.098 137.297 400.028C125.812 399.271 115.593 402.797 106.031 408.91C102.532 411.146 98.5703 412.675 94.5037 413.432C87.0635 414.82 80.4071 418.01 73.6598 421.235C52.5499 431.323 43.7308 449.396 43.0309 471.318C42.6179 484.112 40.9381 496.66 38.9573 509.111C37.1445 520.524 39.4892 531.075 41.624 541.836C45.5996 561.886 52.4099 581.207 57.0574 601.11C59.8571 613.098 66.0026 624.266 66.7865 636.884C66.9405 639.359 67.5074 641.82 67.5144 644.287C67.5774 661.996 68.8443 679.543 73.0439 696.831C75.0317 705.019 74.1637 705.917 65.5476 705.945C40.6791 706.022 15.8037 706.015 -9.06479 705.945C-16.561 705.924 -17.3519 705.23 -18.8498 697.686C-20.6976 688.377 -18.9758 679.263 -14.9862 671.011C-10.4716 661.673 -11.4585 652.917 -14.7412 643.79C-17.6249 635.763 -20.3267 627.701 -20.0747 618.938C-19.9907 616.028 -19.2558 614.465 -16.3091 615.446C-12.5084 616.715 -11.8785 614.808 -10.8496 611.654C-6.85999 599.378 -8.53984 586.822 -10.1357 574.736C-11.8855 561.515 -12.8514 548.412 -12.8514 535.134C-12.8514 525.2 -13.2784 515.266 -13.7683 505.332C-14.2933 494.726 -13.2153 483.845 -9.81369 473.435C-5.88009 461.405 -7.74191 450.167 -14.5732 439.448C-19.3887 431.883 -25.0232 425.721 -32.7574 420.744C-44.4112 413.236 -53.9722 402.797 -62.3993 391.987C-70.2805 381.878 -79.1416 377.279 -91.5233 378.842C-97.7947 379.634 -104.115 380.265 -110.309 381.471C-121.858 383.714 -129.774 391.377 -136.613 400.301C-139.664 404.283 -142.807 408.258 -146.902 411.034C-152.592 414.883 -154.664 420.19 -154.594 426.598C-154.482 437.12 -156.134 435.108 -164.631 439.013C-165.387 439.357 -166.402 439.693 -166.752 438.719C-166.927 438.221 -166.297 436.882 -165.87 436.798C-155.343 434.786 -157.653 426.352 -157.093 419.363C-156.757 415.206 -158.185 412.591 -162.678 411.665C-166.458 410.887 -170.034 409.191 -173.03 406.639C-176.964 403.288 -180.148 404.767 -183.032 408.034C-185.769 411.139 -188.239 414.49 -191.032 417.547C-197.87 425.041 -206.137 424.277 -211.253 415.451C-213.878 410.929 -215.922 406.036 -217.867 401.171C-219.463 397.189 -221.612 396.27 -226.057 396.775C-234.729 397.77 -242.288 401.142 -249.693 405.293C-247.026 400.028 -242.708 397.097 -236.94 396.158C-233.441 395.59 -229.906 395.141 -226.477 394.279C-222.368 393.242 -221.899 390.879 -224.951 387.886C-228.947 383.953 -235.219 382.999 -240.881 385.355C-247.677 388.173 -254.495 390.935 -261.298 393.725ZM14.3478 220.741C14.3478 221.618 14.6348 222.824 14.2988 223.812C12.878 228.025 13.9418 229.126 18.0434 227.191C18.6104 226.925 20.0243 227.24 20.2552 227.696C21.0252 229.203 19.3243 229.147 18.6314 229.764C6.23568 240.77 9.03537 256.453 24.4408 262.342C37.2565 267.242 37.2495 267.242 42.1 254.217C45.5716 244.9 47.1605 234.776 52.4169 226.266C59.1502 215.371 61.278 204.982 54.8317 192.938C51.101 185.969 49.8552 177.529 44.4028 171.465C38.6284 165.05 33.7428 158.075 29.2073 150.805C26.8415 147.012 23.8459 144.783 19.1983 144.537C13.4589 144.236 8.84638 141.242 4.43683 137.709C2.14106 135.872 1.22416 130.895 -1.51956 131.967C-4.45226 133.11 -3.43737 137.905 -4.29828 141.06C-4.80923 142.939 -5.29918 144.783 -4.89322 146.767C-1.28859 164.454 -3.94132 182.114 -6.89502 199.387C-10.0517 217.86 -12.7884 236.431 -16.512 254.812C-17.2679 258.549 -16.855 262.524 -17.009 266.387C-17.156 270.011 -15.9031 271.427 -12.0465 270.271C-7.78391 268.995 -3.75234 267.27 0.230255 265.342C2.44903 264.27 5.42372 263.912 6.84457 262.215C8.97936 259.657 4.82881 258.241 4.49985 255.899C4.26887 254.273 3.55494 252.492 3.9679 251.034C6.38265 242.509 6.35466 233.529 8.82541 225.06C10.8342 218.183 11.1911 211.445 8.67841 204.743C7.17356 200.74 6.90758 196.674 7.15256 192.503C7.20855 191.536 7.03357 190.19 8.50342 190.183C8.80439 190.183 9.35031 191.515 9.37131 192.251C9.4903 195.854 9.63731 199.394 11.3171 202.745C14.1169 208.347 14.9848 214.32 14.3478 220.741ZM-174.556 288.33C-172.344 288.33 -170.132 288.435 -167.935 288.309C-162.139 287.972 -161.901 287.46 -164.274 281.971C-167.228 275.136 -170.3 268.364 -172.694 261.269C-176.831 249.001 -181.212 237.118 -191.487 227.878C-196.38 223.475 -201.118 219.928 -207.152 217.86C-221.01 213.121 -235.436 210.681 -249.679 207.513C-254.306 206.482 -258.897 206.012 -263.608 206.047C-267.758 206.075 -268.787 207.611 -266.162 210.899C-259.59 219.122 -257.189 229.14 -253.963 238.814C-252.395 243.533 -250.547 248.173 -249.287 252.976C-247.95 258.058 -245.102 260.407 -239.81 260.147C-232.678 259.804 -226.687 262.797 -222.445 268.223C-210.147 283.948 -192.733 286.949 -174.556 288.33ZM-17.2399 312.81C-16.484 324.707 -18.4578 336.134 -15.0352 347.218C-14.1463 350.092 -13.7963 355.154 -11.8995 355.224C-9.17675 355.322 -9.33072 350.59 -7.95886 348.073C-7.30793 346.874 -7.02802 345.472 -6.42609 344.238C-6.09712 343.558 -5.32016 342.472 -4.9632 342.549C-4.06729 342.745 -4.07431 343.818 -4.23529 344.61C-5.01921 348.388 -5.71212 352.195 -6.71301 355.918C-10.7376 370.934 -5.50915 382.41 8.50342 389.07C17.2245 393.214 22.264 390.332 24.9798 381.135C29.7673 364.905 23.9858 349.475 22.313 333.751C21.1441 322.821 18.2884 311.871 22.9289 301.187C24.7067 297.1 26.0786 292.985 27.0585 288.673C29.2143 279.223 27.8774 277.113 18.6104 274.743C14.5858 273.713 10.9112 274.694 7.33453 276.152C1.45513 278.55 -4.38924 281.151 -10.6326 282.322C-15.8261 283.296 -17.345 286.297 -17.268 291.071C-17.149 298.523 -17.2399 305.982 -17.2399 312.81ZM-200.95 380.469C-207.145 379.585 -212.625 381.499 -216.58 386.939C-218.021 388.923 -219.463 391.068 -218.119 393.788C-214.571 400.96 -211.442 408.377 -207.396 415.248C-204.079 420.891 -198.913 421.059 -194.364 416.306C-191.711 413.523 -189.597 410.228 -186.966 407.424C-179.539 399.495 -178.944 399.467 -169.614 404.718C-158.5 410.978 -148.743 409.247 -141.197 399.264C-138.517 395.716 -135.535 392.52 -132.532 389.295C-131.37 388.047 -128.753 386.897 -130.397 384.717C-131.524 383.224 -133.47 384.668 -135.01 385.053C-151.626 389.197 -168.075 389.954 -184.439 383.546C-189.534 381.562 -194.966 380.181 -200.95 380.469ZM330.331 141.579C329.085 136.826 328.623 131.098 328.574 125.315C328.553 122.566 326.691 121.213 324.213 121.529C316.906 122.475 309.137 121.725 302.382 124.677C293.514 128.553 288.034 136.335 283.841 144.902C282.931 146.76 283.232 148.688 284.604 150.307C286.354 152.375 288.16 150.91 289.819 150.195C292.583 148.996 295.208 147.005 298.302 147.349C301.179 147.664 304.93 144.558 306.575 147.44C308.626 151.015 312.993 151.744 314.526 155.509C315.156 157.051 316.29 158.341 318.313 157.927C322.162 157.135 330.366 146.598 330.331 141.579ZM152.115 173.554C152.115 174.661 152.052 175.769 152.129 176.877C152.283 179.015 151.667 181.945 154.292 182.569C157.042 183.221 157.357 179.968 158.631 178.335C159.31 177.466 159.828 176.477 160.423 175.545C167.695 164.174 173.477 151.835 183.402 142.217C187.342 138.403 186.453 133.117 184.997 128.098C182.863 120.751 179.867 119.629 174.212 124.908C160.171 138.018 154.474 155.053 152.115 173.554ZM36.0316 314.976C37.1515 321.23 38.0334 328.086 39.6852 334.746C40.8121 339.268 44.3328 340.34 46.8595 336.975C50.7161 331.851 55.4966 327.7 59.6962 322.961C60.6341 321.896 61.383 320.683 61.173 319.232C59.5562 308.057 54.8247 298.775 44.9137 292.697C43.3809 291.758 41.911 291.036 41.1271 293.552C39.0063 300.395 36.8855 307.244 36.0316 314.976ZM-13.9713 137.709C-12.4944 137.197 -12.0535 135.886 -11.5005 134.646C-7.112 124.908 -9.79971 115.759 -18.7938 110.032C-19.9207 109.317 -21.2925 108.377 -22.5874 109.303C-23.8053 110.172 -23.8333 111.812 -23.4553 113.102C-21.3135 120.47 -19.0807 127.81 -16.764 135.129C-16.372 136.37 -15.6721 137.709 -13.9713 137.709Z" fill="#C0A084"/>
</svg>
